<?xml version="1.0" encoding="us-ascii" standalone="no"?><svg xmlns="http://www.w3.org/2000/svg" xmlns:xlink="http://www.w3.org/1999/xlink" contentStyleType="text/css" height="1265px" preserveAspectRatio="none" style="width:939px;height:1265px;background:#FFFFFF;" version="1.1" viewBox="0 0 939 1265" width="939px" zoomAndPan="magnify"><defs/><g><ellipse cx="479.5" cy="20" fill="#222222" rx="10" ry="10" style="stroke:#222222;stroke-width:1.0;"/><rect fill="#F1F1F1" height="33.7988" rx="12.5" ry="12.5" style="stroke:#181818;stroke-width:0.5;" width="123" x="418" y="50"/><text fill="#000000" font-family="Arial" font-size="12" lengthAdjust="spacing" textLength="103" x="428" y="71.4521">Display Main Menu</text><rect fill="#F1F1F1" height="33.7988" rx="12.5" ry="12.5" style="stroke:#181818;stroke-width:0.5;" width="93" x="433" y="103.7988"/><text fill="#000000" font-family="Arial" font-size="12" lengthAdjust="spacing" textLength="73" x="443" y="125.251">Select Option</text><rect fill="#555555" height="6" rx="2.5" ry="2.5" style="stroke:#555555;stroke-width:1.0;" width="917" x="11" y="157.5977"/><polygon fill="#F1F1F1" points="283.25,183.5977,417.25,183.5977,429.25,195.5977,417.25,207.5977,283.25,207.5977,271.25,195.5977,283.25,183.5977" style="stroke:#181818;stroke-width:0.5;"/><text fill="#000000" font-family="Arial" font-size="12" lengthAdjust="spacing" textLength="134" x="283.25" y="200.1504">Authentication selected?</text><text fill="#000000" font-family="sans-serif" font-size="11" lengthAdjust="spacing" textLength="18" x="253.25" y="193.1807">yes</text><rect fill="none" height="884.6748" style="stroke:#000000;stroke-width:1.5;" width="412" x="23" y="217.5977"/><path d="M123,217.5977 L123,228.207 L113,238.207 L23,238.207 " fill="none" style="stroke:#000000;stroke-width:1.5;"/><text fill="#000000" font-family="sans-serif" font-size="14" lengthAdjust="spacing" textLength="90" x="26" y="233.1309">Authentication</text><rect fill="#F1F1F1" height="33.7988" rx="12.5" ry="12.5" style="stroke:#181818;stroke-width:0.5;" width="161" x="103" y="255.207"/><text fill="#000000" font-family="Arial" font-size="12" lengthAdjust="spacing" textLength="141" x="113" y="276.6592">Initialize attempt count = 0</text><rect fill="#F1F1F1" height="33.7988" rx="12.5" ry="12.5" style="stroke:#181818;stroke-width:0.5;" width="122" x="122.5" y="353.0059"/><text fill="#000000" font-family="Arial" font-size="12" lengthAdjust="spacing" textLength="102" x="132.5" y="374.458">Capture fingerprint</text><rect fill="#F1F1F1" height="33.7988" rx="12.5" ry="12.5" style="stroke:#181818;stroke-width:0.5;" width="122" x="122.5" y="406.8047"/><text fill="#000000" font-family="Arial" font-size="12" lengthAdjust="spacing" textLength="102" x="132.5" y="428.2568">Preprocess image</text><rect fill="#F1F1F1" height="33.7988" rx="12.5" ry="12.5" style="stroke:#181818;stroke-width:0.5;" width="104" x="131.5" y="475.6035"/><text fill="#000000" font-family="Arial" font-size="12" lengthAdjust="spacing" textLength="84" x="141.5" y="497.0557">Extract features</text><rect fill="#F1F1F1" height="33.7988" rx="12.5" ry="12.5" style="stroke:#181818;stroke-width:0.5;" width="231" x="68" y="544.1221"/><text fill="#000000" font-family="Arial" font-size="12" lengthAdjust="spacing" textLength="211" x="78" y="565.5742">Match fingerprint with stored templates</text><polygon fill="#F1F1F1" points="147,612.6406,220,612.6406,232,624.6406,220,636.6406,147,636.6406,135,624.6406,147,612.6406" style="stroke:#181818;stroke-width:0.5;"/><text fill="#000000" font-family="Arial" font-size="12" lengthAdjust="spacing" textLength="73" x="147" y="629.1934">Match found?</text><text fill="#000000" font-family="sans-serif" font-size="11" lengthAdjust="spacing" textLength="18" x="117" y="622.2236">yes</text><text fill="#000000" font-family="sans-serif" font-size="11" lengthAdjust="spacing" textLength="12" x="232" y="622.2236">no</text><rect fill="#F1F1F1" height="33.7988" rx="12.5" ry="12.5" style="stroke:#181818;stroke-width:0.5;" width="115" x="35" y="646.6406"/><text fill="#000000" font-family="Arial" font-size="12" lengthAdjust="spacing" textLength="95" x="45" y="668.0928">Authenticate user</text><rect fill="#F1F1F1" height="33.7988" rx="12.5" ry="12.5" style="stroke:#181818;stroke-width:0.5;" width="152" x="198.5" y="646.6406"/><text fill="#000000" font-family="Arial" font-size="12" lengthAdjust="spacing" textLength="132" x="208.5" y="668.0928">Increment attempt count</text><rect fill="#F1F1F1" height="33.7988" rx="12.5" ry="12.5" style="stroke:#181818;stroke-width:0.5;" width="174" x="187.5" y="764.3574"/><text fill="#000000" font-family="Arial" font-size="12" lengthAdjust="spacing" textLength="154" x="197.5" y="785.8096">Return authentication failure</text><ellipse cx="274.5" cy="837.7568" fill="none" rx="11" ry="11" style="stroke:#222222;stroke-width:1.0;"/><ellipse cx="274.5" cy="837.7568" fill="#222222" rx="6" ry="6" style="stroke:#222222;stroke-width:1.0;"/><polygon fill="#F1F1F1" points="182,715.4395,367,715.4395,379,727.4395,367,739.4395,182,739.4395,170,727.4395,182,715.4395" style="stroke:#181818;stroke-width:0.5;"/><text fill="#000000" font-family="sans-serif" font-size="11" lengthAdjust="spacing" textLength="18" x="278.5" y="750.8584">yes</text><text fill="#000000" font-family="Arial" font-size="12" lengthAdjust="spacing" textLength="185" x="182" y="731.9922">attempt count &gt;= MAX_ATTEMPTS</text><rect fill="#F1F1F1" height="33.7988" rx="12.5" ry="12.5" style="stroke:#181818;stroke-width:0.5;" width="127" x="211" y="914.6748"/><text fill="#000000" font-family="Arial" font-size="12" lengthAdjust="spacing" textLength="107" x="221" y="936.127">Prompt user to retry</text><polygon fill="#F1F1F1" points="183.5,309.0059,195.5,321.0059,183.5,333.0059,171.5,321.0059,183.5,309.0059" style="stroke:#181818;stroke-width:0.5;"/><polygon fill="#F1F1F1" points="94.5,968.4736,272.5,968.4736,284.5,980.4736,272.5,992.4736,94.5,992.4736,82.5,980.4736,94.5,968.4736" style="stroke:#181818;stroke-width:0.5;"/><text fill="#000000" font-family="Arial" font-size="12" lengthAdjust="spacing" textLength="178" x="94.5" y="985.0264">attempt count &lt; MAX_ATTEMPTS</text><polygon fill="#F1F1F1" points="183.5,1012.4736,195.5,1024.4736,183.5,1036.4736,171.5,1024.4736,183.5,1012.4736" style="stroke:#181818;stroke-width:0.5;"/><rect fill="#F1F1F1" height="33.7988" rx="12.5" ry="12.5" style="stroke:#181818;stroke-width:0.5;" width="183" x="92" y="1056.4736"/><text fill="#000000" font-family="Arial" font-size="12" lengthAdjust="spacing" textLength="163" x="102" y="1077.9258">Finish Authentication Process</text><rect fill="#F1F1F1" height="33.7988" rx="12.5" ry="12.5" style="stroke:#181818;stroke-width:0.5;" width="124" x="455" y="217.5977"/><text fill="#000000" font-family="Arial" font-size="12" lengthAdjust="spacing" textLength="104" x="465" y="239.0498">Skip Authentication</text><polygon fill="#F1F1F1" points="350.25,1108.2725,362.25,1120.2725,350.25,1132.2725,338.25,1120.2725,350.25,1108.2725" style="stroke:#181818;stroke-width:0.5;"/><polygon fill="#F1F1F1" points="717.25,418.7139,834.25,418.7139,846.25,430.7139,834.25,442.7139,717.25,442.7139,705.25,430.7139,717.25,418.7139" style="stroke:#181818;stroke-width:0.5;"/><text fill="#000000" font-family="Arial" font-size="12" lengthAdjust="spacing" textLength="117" x="717.25" y="435.2666">Enrollment selected?</text><text fill="#000000" font-family="sans-serif" font-size="11" lengthAdjust="spacing" textLength="18" x="687.25" y="428.2969">yes</text><rect fill="none" height="428.4424" style="stroke:#000000;stroke-width:1.5;" width="200" x="589" y="452.7139"/><path d="M666,452.7139 L666,463.3232 L656,473.3232 L589,473.3232 " fill="none" style="stroke:#000000;stroke-width:1.5;"/><text fill="#000000" font-family="sans-serif" font-size="14" lengthAdjust="spacing" textLength="67" x="592" y="468.2471">Enrollment</text><rect fill="#F1F1F1" height="33.7988" rx="12.5" ry="12.5" style="stroke:#181818;stroke-width:0.5;" width="122" x="628" y="490.3232"/><text fill="#000000" font-family="Arial" font-size="12" lengthAdjust="spacing" textLength="102" x="638" y="511.7754">Capture fingerprint</text><rect fill="#F1F1F1" height="33.7988" rx="12.5" ry="12.5" style="stroke:#181818;stroke-width:0.5;" width="122" x="628" y="558.8418"/><text fill="#000000" font-family="Arial" font-size="12" lengthAdjust="spacing" textLength="102" x="638" y="580.2939">Preprocess image</text><rect fill="#F1F1F1" height="33.7988" rx="12.5" ry="12.5" style="stroke:#181818;stroke-width:0.5;" width="104" x="637" y="627.3604"/><text fill="#000000" font-family="Arial" font-size="12" lengthAdjust="spacing" textLength="84" x="647" y="648.8125">Extract features</text><rect fill="#F1F1F1" height="33.7988" rx="12.5" ry="12.5" style="stroke:#181818;stroke-width:0.5;" width="180" x="599" y="696.1592"/><text fill="#000000" font-family="Arial" font-size="12" lengthAdjust="spacing" textLength="160" x="609" y="717.6113">Generate fingerprint template</text><rect fill="#F1F1F1" height="33.7988" rx="12.5" ry="12.5" style="stroke:#181818;stroke-width:0.5;" width="173" x="602.5" y="764.958"/><text fill="#000000" font-family="Arial" font-size="12" lengthAdjust="spacing" textLength="153" x="612.5" y="786.4102">Store new user in Database</text><rect fill="#F1F1F1" height="33.7988" rx="12.5" ry="12.5" style="stroke:#181818;stroke-width:0.5;" width="126" x="626" y="827.3574"/><text fill="#000000" font-family="Arial" font-size="12" lengthAdjust="spacing" textLength="106" x="636" y="848.8096">Confirm enrollment</text><rect fill="#F1F1F1" height="33.7988" rx="12.5" ry="12.5" style="stroke:#181818;stroke-width:0.5;" width="107" x="809" y="452.7139"/><text fill="#000000" font-family="Arial" font-size="12" lengthAdjust="spacing" textLength="87" x="819" y="474.166">Skip Enrollment</text><polygon fill="#F1F1F1" points="775.75,887.1563,787.75,899.1563,775.75,911.1563,763.75,899.1563,775.75,887.1563" style="stroke:#181818;stroke-width:0.5;"/><rect fill="#555555" height="6" rx="2.5" ry="2.5" style="stroke:#555555;stroke-width:1.0;" width="917" x="11" y="1152.2725"/><rect fill="#F1F1F1" height="33.7988" rx="12.5" ry="12.5" style="stroke:#181818;stroke-width:0.5;" width="90" x="434.5" y="1178.2725"/><text fill="#000000" font-family="Arial" font-size="12" lengthAdjust="spacing" textLength="70" x="444.5" y="1199.7246">End process</text><ellipse cx="479.5" cy="1243.0713" fill="none" rx="11" ry="11" style="stroke:#222222;stroke-width:1.0;"/><ellipse cx="479.5" cy="1243.0713" fill="#222222" rx="6" ry="6" style="stroke:#222222;stroke-width:1.0;"/><line style="stroke:#181818;stroke-width:1.0;" x1="479.5" x2="479.5" y1="30" y2="50"/><polygon fill="#181818" points="475.5,40,479.5,50,483.5,40,479.5,44" style="stroke:#181818;stroke-width:1.0;"/><line style="stroke:#181818;stroke-width:1.0;" x1="479.5" x2="479.5" y1="83.7988" y2="103.7988"/><polygon fill="#181818" points="475.5,93.7988,479.5,103.7988,483.5,93.7988,479.5,97.7988" style="stroke:#181818;stroke-width:1.0;"/><line style="stroke:#181818;stroke-width:1.0;" x1="183.5" x2="183.5" y1="386.8047" y2="406.8047"/><polygon fill="#181818" points="179.5,396.8047,183.5,406.8047,187.5,396.8047,183.5,400.8047" style="stroke:#181818;stroke-width:1.0;"/><line style="stroke:#181818;stroke-width:1.0;" x1="183.5" x2="183.5" y1="440.6035" y2="475.6035"/><polygon fill="#181818" points="179.5,465.6035,183.5,475.6035,187.5,465.6035,183.5,469.6035" style="stroke:#181818;stroke-width:1.0;"/><line style="stroke:#181818;stroke-width:1.0;" x1="183.5" x2="183.5" y1="509.4023" y2="544.1221"/><polygon fill="#181818" points="179.5,534.1221,183.5,544.1221,187.5,534.1221,183.5,538.1221" style="stroke:#181818;stroke-width:1.0;"/><line style="stroke:#181818;stroke-width:1.0;" x1="92.5" x2="92.5" y1="680.4395" y2="1024.4736"/><line style="stroke:#181818;stroke-width:1.0;" x1="92.5" x2="171.5" y1="1024.4736" y2="1024.4736"/><polygon fill="#181818" points="161.5,1020.4736,171.5,1024.4736,161.5,1028.4736,165.5,1024.4736" style="stroke:#181818;stroke-width:1.0;"/><line style="stroke:#181818;stroke-width:1.0;" x1="274.5" x2="274.5" y1="798.1563" y2="826.7568"/><polygon fill="#181818" points="270.5,816.7568,274.5,826.7568,278.5,816.7568,274.5,820.7568" style="stroke:#181818;stroke-width:1.0;"/><line style="stroke:#181818;stroke-width:1.0;" x1="274.5" x2="274.5" y1="739.4395" y2="764.3574"/><polygon fill="#181818" points="270.5,754.3574,274.5,764.3574,278.5,754.3574,274.5,758.3574" style="stroke:#181818;stroke-width:1.0;"/><line style="stroke:#181818;stroke-width:1.0;" x1="379" x2="391" y1="727.4395" y2="727.4395"/><polygon fill="#181818" points="387,796.7568,391,806.7568,395,796.7568,391,800.7568" style="stroke:#181818;stroke-width:1.0;"/><line style="stroke:#181818;stroke-width:1.0;" x1="391" x2="391" y1="727.4395" y2="879.6748"/><line style="stroke:#181818;stroke-width:1.0;" x1="391" x2="274.5" y1="879.6748" y2="879.6748"/><line style="stroke:#181818;stroke-width:1.0;" x1="274.5" x2="274.5" y1="879.6748" y2="914.6748"/><polygon fill="#181818" points="270.5,904.6748,274.5,914.6748,278.5,904.6748,274.5,908.6748" style="stroke:#181818;stroke-width:1.0;"/><line style="stroke:#181818;stroke-width:1.0;" x1="274.5" x2="274.5" y1="680.4395" y2="715.4395"/><polygon fill="#181818" points="270.5,705.4395,274.5,715.4395,278.5,705.4395,274.5,709.4395" style="stroke:#181818;stroke-width:1.0;"/><line style="stroke:#181818;stroke-width:1.0;" x1="135" x2="92.5" y1="624.6406" y2="624.6406"/><line style="stroke:#181818;stroke-width:1.0;" x1="92.5" x2="92.5" y1="624.6406" y2="646.6406"/><polygon fill="#181818" points="88.5,636.6406,92.5,646.6406,96.5,636.6406,92.5,640.6406" style="stroke:#181818;stroke-width:1.0;"/><line style="stroke:#181818;stroke-width:1.0;" x1="232" x2="274.5" y1="624.6406" y2="624.6406"/><line style="stroke:#181818;stroke-width:1.0;" x1="274.5" x2="274.5" y1="624.6406" y2="646.6406"/><polygon fill="#181818" points="270.5,636.6406,274.5,646.6406,278.5,636.6406,274.5,640.6406" style="stroke:#181818;stroke-width:1.0;"/><line style="stroke:#181818;stroke-width:1.0;" x1="274.5" x2="274.5" y1="948.4736" y2="953.4736"/><line style="stroke:#181818;stroke-width:1.0;" x1="274.5" x2="183.5" y1="953.4736" y2="953.4736"/><line style="stroke:#181818;stroke-width:1.0;" x1="183.5" x2="183.5" y1="953.4736" y2="968.4736"/><polygon fill="#181818" points="179.5,958.4736,183.5,968.4736,187.5,958.4736,183.5,962.4736" style="stroke:#181818;stroke-width:1.0;"/><line style="stroke:#181818;stroke-width:1.0;" x1="183.5" x2="183.5" y1="577.9209" y2="612.6406"/><polygon fill="#181818" points="179.5,602.6406,183.5,612.6406,187.5,602.6406,183.5,606.6406" style="stroke:#181818;stroke-width:1.0;"/><line style="stroke:#181818;stroke-width:1.0;" x1="183.5" x2="183.5" y1="333.0059" y2="353.0059"/><polygon fill="#181818" points="179.5,343.0059,183.5,353.0059,187.5,343.0059,183.5,347.0059" style="stroke:#181818;stroke-width:1.0;"/><line style="stroke:#181818;stroke-width:1.0;" x1="284.5" x2="413" y1="980.4736" y2="980.4736"/><polygon fill="#181818" points="409,659.1592,413,649.1592,417,659.1592,413,655.1592" style="stroke:#181818;stroke-width:1.0;"/><line style="stroke:#181818;stroke-width:1.0;" x1="413" x2="413" y1="321.0059" y2="980.4736"/><line style="stroke:#181818;stroke-width:1.0;" x1="413" x2="195.5" y1="321.0059" y2="321.0059"/><polygon fill="#181818" points="205.5,317.0059,195.5,321.0059,205.5,325.0059,201.5,321.0059" style="stroke:#181818;stroke-width:1.0;"/><line style="stroke:#181818;stroke-width:1.0;" x1="183.5" x2="183.5" y1="992.4736" y2="1012.4736"/><polygon fill="#181818" points="179.5,1002.4736,183.5,1012.4736,187.5,1002.4736,183.5,1006.4736" style="stroke:#181818;stroke-width:1.0;"/><line style="stroke:#181818;stroke-width:1.0;" x1="183.5" x2="183.5" y1="289.0059" y2="309.0059"/><polygon fill="#181818" points="179.5,299.0059,183.5,309.0059,187.5,299.0059,183.5,303.0059" style="stroke:#181818;stroke-width:1.0;"/><line style="stroke:#181818;stroke-width:1.0;" x1="183.5" x2="183.5" y1="1036.4736" y2="1056.4736"/><polygon fill="#181818" points="179.5,1046.4736,183.5,1056.4736,187.5,1046.4736,183.5,1050.4736" style="stroke:#181818;stroke-width:1.0;"/><line style="stroke:#181818;stroke-width:1.0;" x1="271.25" x2="183.5" y1="195.5977" y2="195.5977"/><line style="stroke:#181818;stroke-width:1.0;" x1="183.5" x2="183.5" y1="195.5977" y2="255.207"/><polygon fill="#181818" points="179.5,245.207,183.5,255.207,187.5,245.207,183.5,249.207" style="stroke:#181818;stroke-width:1.0;"/><line style="stroke:#181818;stroke-width:1.0;" x1="429.25" x2="517" y1="195.5977" y2="195.5977"/><line style="stroke:#181818;stroke-width:1.0;" x1="517" x2="517" y1="195.5977" y2="217.5977"/><polygon fill="#181818" points="513,207.5977,517,217.5977,521,207.5977,517,211.5977" style="stroke:#181818;stroke-width:1.0;"/><line style="stroke:#181818;stroke-width:1.0;" x1="183.5" x2="183.5" y1="1090.2725" y2="1120.2725"/><line style="stroke:#181818;stroke-width:1.0;" x1="183.5" x2="338.25" y1="1120.2725" y2="1120.2725"/><polygon fill="#181818" points="328.25,1116.2725,338.25,1120.2725,328.25,1124.2725,332.25,1120.2725" style="stroke:#181818;stroke-width:1.0;"/><line style="stroke:#181818;stroke-width:1.0;" x1="517" x2="517" y1="251.3965" y2="1120.2725"/><line style="stroke:#181818;stroke-width:1.0;" x1="517" x2="362.25" y1="1120.2725" y2="1120.2725"/><polygon fill="#181818" points="372.25,1116.2725,362.25,1120.2725,372.25,1124.2725,368.25,1120.2725" style="stroke:#181818;stroke-width:1.0;"/><line style="stroke:#181818;stroke-width:1.0;" x1="689" x2="689" y1="524.1221" y2="558.8418"/><polygon fill="#181818" points="685,548.8418,689,558.8418,693,548.8418,689,552.8418" style="stroke:#181818;stroke-width:1.0;"/><line style="stroke:#181818;stroke-width:1.0;" x1="689" x2="689" y1="592.6406" y2="627.3604"/><polygon fill="#181818" points="685,617.3604,689,627.3604,693,617.3604,689,621.3604" style="stroke:#181818;stroke-width:1.0;"/><line style="stroke:#181818;stroke-width:1.0;" x1="689" x2="689" y1="661.1592" y2="696.1592"/><polygon fill="#181818" points="685,686.1592,689,696.1592,693,686.1592,689,690.1592" style="stroke:#181818;stroke-width:1.0;"/><line style="stroke:#181818;stroke-width:1.0;" x1="689" x2="689" y1="729.958" y2="764.958"/><polygon fill="#181818" points="685,754.958,689,764.958,693,754.958,689,758.958" style="stroke:#181818;stroke-width:1.0;"/><line style="stroke:#181818;stroke-width:1.0;" x1="689" x2="689" y1="798.7568" y2="827.3574"/><polygon fill="#181818" points="685,817.3574,689,827.3574,693,817.3574,689,821.3574" style="stroke:#181818;stroke-width:1.0;"/><line style="stroke:#181818;stroke-width:1.0;" x1="705.25" x2="689" y1="430.7139" y2="430.7139"/><line style="stroke:#181818;stroke-width:1.0;" x1="689" x2="689" y1="430.7139" y2="490.3232"/><polygon fill="#181818" points="685,480.3232,689,490.3232,693,480.3232,689,484.3232" style="stroke:#181818;stroke-width:1.0;"/><line style="stroke:#181818;stroke-width:1.0;" x1="846.25" x2="862.5" y1="430.7139" y2="430.7139"/><line style="stroke:#181818;stroke-width:1.0;" x1="862.5" x2="862.5" y1="430.7139" y2="452.7139"/><polygon fill="#181818" points="858.5,442.7139,862.5,452.7139,866.5,442.7139,862.5,446.7139" style="stroke:#181818;stroke-width:1.0;"/><line style="stroke:#181818;stroke-width:1.0;" x1="689" x2="689" y1="861.1563" y2="899.1563"/><line style="stroke:#181818;stroke-width:1.0;" x1="689" x2="763.75" y1="899.1563" y2="899.1563"/><polygon fill="#181818" points="753.75,895.1563,763.75,899.1563,753.75,903.1563,757.75,899.1563" style="stroke:#181818;stroke-width:1.0;"/><line style="stroke:#181818;stroke-width:1.0;" x1="862.5" x2="862.5" y1="486.5127" y2="899.1563"/><line style="stroke:#181818;stroke-width:1.0;" x1="862.5" x2="787.75" y1="899.1563" y2="899.1563"/><polygon fill="#181818" points="797.75,895.1563,787.75,899.1563,797.75,903.1563,793.75,899.1563" style="stroke:#181818;stroke-width:1.0;"/><line style="stroke:#181818;stroke-width:1.0;" x1="350.25" x2="350.25" y1="163.5977" y2="183.5977"/><polygon fill="#181818" points="346.25,173.5977,350.25,183.5977,354.25,173.5977,350.25,177.5977" style="stroke:#181818;stroke-width:1.0;"/><line style="stroke:#181818;stroke-width:1.0;" x1="775.75" x2="775.75" y1="163.5977" y2="418.7139"/><polygon fill="#181818" points="771.75,408.7139,775.75,418.7139,779.75,408.7139,775.75,412.7139" style="stroke:#181818;stroke-width:1.0;"/><line style="stroke:#181818;stroke-width:1.0;" x1="350.25" x2="350.25" y1="1132.2725" y2="1152.2725"/><polygon fill="#181818" points="346.25,1142.2725,350.25,1152.2725,354.25,1142.2725,350.25,1146.2725" style="stroke:#181818;stroke-width:1.0;"/><line style="stroke:#181818;stroke-width:1.0;" x1="775.75" x2="775.75" y1="911.1563" y2="1152.2725"/><polygon fill="#181818" points="771.75,1142.2725,775.75,1152.2725,779.75,1142.2725,775.75,1146.2725" style="stroke:#181818;stroke-width:1.0;"/><line style="stroke:#181818;stroke-width:1.0;" x1="479.5" x2="479.5" y1="137.5977" y2="157.5977"/><polygon fill="#181818" points="475.5,147.5977,479.5,157.5977,483.5,147.5977,479.5,151.5977" style="stroke:#181818;stroke-width:1.0;"/><line style="stroke:#181818;stroke-width:1.0;" x1="479.5" x2="479.5" y1="1158.2725" y2="1178.2725"/><polygon fill="#181818" points="475.5,1168.2725,479.5,1178.2725,483.5,1168.2725,479.5,1172.2725" style="stroke:#181818;stroke-width:1.0;"/><line style="stroke:#181818;stroke-width:1.0;" x1="479.5" x2="479.5" y1="1212.0713" y2="1232.0713"/><polygon fill="#181818" points="475.5,1222.0713,479.5,1232.0713,483.5,1222.0713,479.5,1226.0713" style="stroke:#181818;stroke-width:1.0;"/><!--SRC=[ZLF1Rfj04Btp5NDqRcsFaBIo4YVAWTOgFlHMJV1WZmoxQ7UewqRvzyu2jXShhdf1xCwRnvit3xzZqwB31h0K_iLoWDS4uD4Q-OeDmTmnrkD5mNy8FdvAtfB42pf9qWVsROq7o94Dv6IwB4aBggaK-DOAMvCbIMNTJWcuWjcyaoqPuH933NoFfFMN6mZtC3kGlr4eW2eIxZ4NBQzz6I1zDbh7EYX24MfQWT9sHk0EFcGZo55BAED1U-wnbSuHL6msv5h7Hh9pTQbmPqlo7hZ13KMbnMznQWzKIgS4FYhbAEKsPeGzonQyM4Th2C9gbBWZ-30sgTvtPX-9ey49EaykYwelZd1tEbFj2MR6JlgVJUceKOQfFp5Ba38rx_CTvFCVF-UhrI9VheehsfJzEwaH1d2wdGgvLd-o2LQjQACBCckkOg5BPuE0C2A8rQM9EvmPOlYmJzXlkQPBvRTJuSUOFB9XlxrCqNBOy_2LjsHmi3-anOxR2tY03J92b04t6lOnq0lZR5ttBlzFc2FuASZ_2ENLI5uDPFf4Xbn8J9p8OmfFg2Aa4mpj1zVrttr0mHVqPyYzDHMxHWS_Ihxgrc826PpI9_G_Vf8kzBKz6Xx2y1S0]--></g></svg>