<?xml version="1.0" encoding="us-ascii" standalone="no"?><svg xmlns="http://www.w3.org/2000/svg" xmlns:xlink="http://www.w3.org/1999/xlink" contentStyleType="text/css" height="1126px" preserveAspectRatio="none" style="width:634px;height:1126px;background:#FFFFFF;" version="1.1" viewBox="0 0 634 1126" width="634px" zoomAndPan="magnify"><defs/><g><ellipse cx="318" cy="20" fill="#222222" rx="10" ry="10" style="stroke:#222222;stroke-width:1.0;"/><rect fill="#F1F1F1" height="33.7988" rx="12.5" ry="12.5" style="stroke:#181818;stroke-width:0.5;" width="123" x="256.5" y="50"/><text fill="#000000" font-family="Arial" font-size="12" lengthAdjust="spacing" textLength="103" x="266.5" y="71.4521">Display Main Menu</text><polygon fill="#F1F1F1" points="282.5,103.7988,353.5,103.7988,365.5,115.7988,353.5,127.7988,282.5,127.7988,270.5,115.7988,282.5,103.7988" style="stroke:#181818;stroke-width:0.5;"/><text fill="#000000" font-family="Arial" font-size="12" lengthAdjust="spacing" textLength="71" x="282.5" y="120.3516">Select option</text><rect fill="none" height="834.1221" style="stroke:#000000;stroke-width:1.5;" width="402" x="11" y="151.665"/><path d="M111,151.665 L111,162.2744 L101,172.2744 L11,172.2744 " fill="none" style="stroke:#000000;stroke-width:1.5;"/><text fill="#000000" font-family="sans-serif" font-size="14" lengthAdjust="spacing" textLength="90" x="14" y="167.1982">Authentication</text><rect fill="#F1F1F1" height="33.7988" rx="12.5" ry="12.5" style="stroke:#181818;stroke-width:0.5;" width="161" x="91" y="189.2744"/><text fill="#000000" font-family="Arial" font-size="12" lengthAdjust="spacing" textLength="141" x="101" y="210.7266">Initialize attempt count = 0</text><rect fill="#F1F1F1" height="33.7988" rx="12.5" ry="12.5" style="stroke:#181818;stroke-width:0.5;" width="122" x="110.5" y="300.0732"/><text fill="#000000" font-family="Arial" font-size="12" lengthAdjust="spacing" textLength="102" x="120.5" y="321.5254">Capture fingerprint</text><rect fill="#F1F1F1" height="33.7988" rx="12.5" ry="12.5" style="stroke:#181818;stroke-width:0.5;" width="122" x="110.5" y="357.0732"/><text fill="#000000" font-family="Arial" font-size="12" lengthAdjust="spacing" textLength="102" x="120.5" y="378.5254">Preprocess image</text><rect fill="#F1F1F1" height="33.7988" rx="12.5" ry="12.5" style="stroke:#181818;stroke-width:0.5;" width="104" x="119.5" y="414.0732"/><text fill="#000000" font-family="Arial" font-size="12" lengthAdjust="spacing" textLength="84" x="129.5" y="435.5254">Extract features</text><rect fill="#F1F1F1" height="33.7988" rx="12.5" ry="12.5" style="stroke:#181818;stroke-width:0.5;" width="231" x="56" y="471.0732"/><text fill="#000000" font-family="Arial" font-size="12" lengthAdjust="spacing" textLength="211" x="66" y="492.5254">Match fingerprint with stored templates</text><polygon fill="#F1F1F1" points="135,535.0732,208,535.0732,220,547.0732,208,559.0732,135,559.0732,123,547.0732,135,535.0732" style="stroke:#181818;stroke-width:0.5;"/><text fill="#000000" font-family="Arial" font-size="12" lengthAdjust="spacing" textLength="73" x="135" y="551.626">Match found?</text><text fill="#000000" font-family="sans-serif" font-size="11" lengthAdjust="spacing" textLength="18" x="105" y="544.6563">yes</text><text fill="#000000" font-family="sans-serif" font-size="11" lengthAdjust="spacing" textLength="12" x="220" y="544.6563">no</text><rect fill="#F1F1F1" height="33.7988" rx="12.5" ry="12.5" style="stroke:#181818;stroke-width:0.5;" width="115" x="23" y="569.0732"/><text fill="#000000" font-family="Arial" font-size="12" lengthAdjust="spacing" textLength="95" x="33" y="590.5254">Authenticate user</text><rect fill="#F1F1F1" height="33.7988" rx="12.5" ry="12.5" style="stroke:#181818;stroke-width:0.5;" width="152" x="186.5" y="569.0732"/><text fill="#000000" font-family="Arial" font-size="12" lengthAdjust="spacing" textLength="132" x="196.5" y="590.5254">Increment attempt count</text><rect fill="#F1F1F1" height="33.7988" rx="12.5" ry="12.5" style="stroke:#181818;stroke-width:0.5;" width="174" x="175.5" y="671.79"/><text fill="#000000" font-family="Arial" font-size="12" lengthAdjust="spacing" textLength="154" x="185.5" y="693.2422">Return authentication failure</text><ellipse cx="262.5" cy="745.1895" fill="none" rx="11" ry="11" style="stroke:#222222;stroke-width:1.0;"/><ellipse cx="262.5" cy="745.1895" fill="#222222" rx="6" ry="6" style="stroke:#222222;stroke-width:1.0;"/><polygon fill="#F1F1F1" points="170,622.8721,355,622.8721,367,634.8721,355,646.8721,170,646.8721,158,634.8721,170,622.8721" style="stroke:#181818;stroke-width:0.5;"/><text fill="#000000" font-family="sans-serif" font-size="11" lengthAdjust="spacing" textLength="18" x="266.5" y="658.291">yes</text><text fill="#000000" font-family="Arial" font-size="12" lengthAdjust="spacing" textLength="185" x="170" y="639.4248">attempt count &gt;= MAX_ATTEMPTS</text><rect fill="#F1F1F1" height="33.7988" rx="12.5" ry="12.5" style="stroke:#181818;stroke-width:0.5;" width="127" x="199" y="798.1895"/><text fill="#000000" font-family="Arial" font-size="12" lengthAdjust="spacing" textLength="107" x="209" y="819.6416">Prompt user to retry</text><polygon fill="#F1F1F1" points="171.5,243.0732,183.5,255.0732,171.5,267.0732,159.5,255.0732,171.5,243.0732" style="stroke:#181818;stroke-width:0.5;"/><polygon fill="#F1F1F1" points="82.5,851.9883,260.5,851.9883,272.5,863.9883,260.5,875.9883,82.5,875.9883,70.5,863.9883,82.5,851.9883" style="stroke:#181818;stroke-width:0.5;"/><text fill="#000000" font-family="Arial" font-size="12" lengthAdjust="spacing" textLength="178" x="82.5" y="868.541">attempt count &lt; MAX_ATTEMPTS</text><polygon fill="#F1F1F1" points="171.5,895.9883,183.5,907.9883,171.5,919.9883,159.5,907.9883,171.5,895.9883" style="stroke:#181818;stroke-width:0.5;"/><rect fill="#F1F1F1" height="33.7988" rx="12.5" ry="12.5" style="stroke:#181818;stroke-width:0.5;" width="183" x="80" y="939.9883"/><text fill="#000000" font-family="Arial" font-size="12" lengthAdjust="spacing" textLength="163" x="90" y="961.4404">Finish Authentication Process</text><rect fill="none" height="365.207" style="stroke:#000000;stroke-width:1.5;" width="200" x="423" y="151.665"/><path d="M500,151.665 L500,162.2744 L490,172.2744 L423,172.2744 " fill="none" style="stroke:#000000;stroke-width:1.5;"/><text fill="#000000" font-family="sans-serif" font-size="14" lengthAdjust="spacing" textLength="67" x="426" y="167.1982">Enrollment</text><rect fill="#F1F1F1" height="33.7988" rx="12.5" ry="12.5" style="stroke:#181818;stroke-width:0.5;" width="122" x="462" y="189.2744"/><text fill="#000000" font-family="Arial" font-size="12" lengthAdjust="spacing" textLength="102" x="472" y="210.7266">Capture fingerprint</text><rect fill="#F1F1F1" height="33.7988" rx="12.5" ry="12.5" style="stroke:#181818;stroke-width:0.5;" width="122" x="462" y="243.0732"/><text fill="#000000" font-family="Arial" font-size="12" lengthAdjust="spacing" textLength="102" x="472" y="264.5254">Preprocess image</text><rect fill="#F1F1F1" height="33.7988" rx="12.5" ry="12.5" style="stroke:#181818;stroke-width:0.5;" width="104" x="471" y="296.8721"/><text fill="#000000" font-family="Arial" font-size="12" lengthAdjust="spacing" textLength="84" x="481" y="318.3242">Extract features</text><rect fill="#F1F1F1" height="33.7988" rx="12.5" ry="12.5" style="stroke:#181818;stroke-width:0.5;" width="180" x="433" y="353.8721"/><text fill="#000000" font-family="Arial" font-size="12" lengthAdjust="spacing" textLength="160" x="443" y="375.3242">Generate fingerprint template</text><rect fill="#F1F1F1" height="33.7988" rx="12.5" ry="12.5" style="stroke:#181818;stroke-width:0.5;" width="173" x="436.5" y="410.8721"/><text fill="#000000" font-family="Arial" font-size="12" lengthAdjust="spacing" textLength="153" x="446.5" y="432.3242">Store new user in Database</text><rect fill="#F1F1F1" height="33.7988" rx="12.5" ry="12.5" style="stroke:#181818;stroke-width:0.5;" width="126" x="460" y="467.8721"/><text fill="#000000" font-family="Arial" font-size="12" lengthAdjust="spacing" textLength="106" x="470" y="489.3242">Confirm enrollment</text><polygon fill="#F1F1F1" points="318,995.7871,318,995.7871,330,1007.7871,318,1019.7871,318,1019.7871,306,1007.7871,318,995.7871" style="stroke:#181818;stroke-width:0.5;"/><rect fill="#F1F1F1" height="33.7988" rx="12.5" ry="12.5" style="stroke:#181818;stroke-width:0.5;" width="90" x="273" y="1039.7871"/><text fill="#000000" font-family="Arial" font-size="12" lengthAdjust="spacing" textLength="70" x="283" y="1061.2393">End process</text><ellipse cx="318" cy="1104.5859" fill="none" rx="11" ry="11" style="stroke:#222222;stroke-width:1.0;"/><ellipse cx="318" cy="1104.5859" fill="#222222" rx="6" ry="6" style="stroke:#222222;stroke-width:1.0;"/><line style="stroke:#181818;stroke-width:1.0;" x1="318" x2="318" y1="30" y2="50"/><polygon fill="#181818" points="314,40,318,50,322,40,318,44" style="stroke:#181818;stroke-width:1.0;"/><line style="stroke:#181818;stroke-width:1.0;" x1="171.5" x2="171.5" y1="333.8721" y2="357.0732"/><polygon fill="#181818" points="167.5,347.0732,171.5,357.0732,175.5,347.0732,171.5,351.0732" style="stroke:#181818;stroke-width:1.0;"/><line style="stroke:#181818;stroke-width:1.0;" x1="171.5" x2="171.5" y1="390.8721" y2="414.0732"/><polygon fill="#181818" points="167.5,404.0732,171.5,414.0732,175.5,404.0732,171.5,408.0732" style="stroke:#181818;stroke-width:1.0;"/><line style="stroke:#181818;stroke-width:1.0;" x1="171.5" x2="171.5" y1="447.8721" y2="471.0732"/><polygon fill="#181818" points="167.5,461.0732,171.5,471.0732,175.5,461.0732,171.5,465.0732" style="stroke:#181818;stroke-width:1.0;"/><line style="stroke:#181818;stroke-width:1.0;" x1="80.5" x2="80.5" y1="602.8721" y2="907.9883"/><line style="stroke:#181818;stroke-width:1.0;" x1="80.5" x2="159.5" y1="907.9883" y2="907.9883"/><polygon fill="#181818" points="149.5,903.9883,159.5,907.9883,149.5,911.9883,153.5,907.9883" style="stroke:#181818;stroke-width:1.0;"/><line style="stroke:#181818;stroke-width:1.0;" x1="262.5" x2="262.5" y1="705.5889" y2="734.1895"/><polygon fill="#181818" points="258.5,724.1895,262.5,734.1895,266.5,724.1895,262.5,728.1895" style="stroke:#181818;stroke-width:1.0;"/><line style="stroke:#181818;stroke-width:1.0;" x1="262.5" x2="262.5" y1="646.8721" y2="671.79"/><polygon fill="#181818" points="258.5,661.79,262.5,671.79,266.5,661.79,262.5,665.79" style="stroke:#181818;stroke-width:1.0;"/><line style="stroke:#181818;stroke-width:1.0;" x1="367" x2="379" y1="634.8721" y2="634.8721"/><polygon fill="#181818" points="375,704.1895,379,714.1895,383,704.1895,379,708.1895" style="stroke:#181818;stroke-width:1.0;"/><line style="stroke:#181818;stroke-width:1.0;" x1="379" x2="379" y1="634.8721" y2="778.1895"/><line style="stroke:#181818;stroke-width:1.0;" x1="379" x2="262.5" y1="778.1895" y2="778.1895"/><line style="stroke:#181818;stroke-width:1.0;" x1="262.5" x2="262.5" y1="778.1895" y2="798.1895"/><polygon fill="#181818" points="258.5,788.1895,262.5,798.1895,266.5,788.1895,262.5,792.1895" style="stroke:#181818;stroke-width:1.0;"/><line style="stroke:#181818;stroke-width:1.0;" x1="262.5" x2="262.5" y1="602.8721" y2="622.8721"/><polygon fill="#181818" points="258.5,612.8721,262.5,622.8721,266.5,612.8721,262.5,616.8721" style="stroke:#181818;stroke-width:1.0;"/><line style="stroke:#181818;stroke-width:1.0;" x1="123" x2="80.5" y1="547.0732" y2="547.0732"/><line style="stroke:#181818;stroke-width:1.0;" x1="80.5" x2="80.5" y1="547.0732" y2="569.0732"/><polygon fill="#181818" points="76.5,559.0732,80.5,569.0732,84.5,559.0732,80.5,563.0732" style="stroke:#181818;stroke-width:1.0;"/><line style="stroke:#181818;stroke-width:1.0;" x1="220" x2="262.5" y1="547.0732" y2="547.0732"/><line style="stroke:#181818;stroke-width:1.0;" x1="262.5" x2="262.5" y1="547.0732" y2="569.0732"/><polygon fill="#181818" points="258.5,559.0732,262.5,569.0732,266.5,559.0732,262.5,563.0732" style="stroke:#181818;stroke-width:1.0;"/><line style="stroke:#181818;stroke-width:1.0;" x1="262.5" x2="262.5" y1="831.9883" y2="836.9883"/><line style="stroke:#181818;stroke-width:1.0;" x1="262.5" x2="171.5" y1="836.9883" y2="836.9883"/><line style="stroke:#181818;stroke-width:1.0;" x1="171.5" x2="171.5" y1="836.9883" y2="851.9883"/><polygon fill="#181818" points="167.5,841.9883,171.5,851.9883,175.5,841.9883,171.5,845.9883" style="stroke:#181818;stroke-width:1.0;"/><line style="stroke:#181818;stroke-width:1.0;" x1="171.5" x2="171.5" y1="504.8721" y2="535.0732"/><polygon fill="#181818" points="167.5,525.0732,171.5,535.0732,175.5,525.0732,171.5,529.0732" style="stroke:#181818;stroke-width:1.0;"/><line style="stroke:#181818;stroke-width:1.0;" x1="171.5" x2="171.5" y1="267.0732" y2="300.0732"/><polygon fill="#181818" points="167.5,290.0732,171.5,300.0732,175.5,290.0732,171.5,294.0732" style="stroke:#181818;stroke-width:1.0;"/><line style="stroke:#181818;stroke-width:1.0;" x1="272.5" x2="397" y1="863.9883" y2="863.9883"/><polygon fill="#181818" points="393,581.5918,397,571.5918,401,581.5918,397,577.5918" style="stroke:#181818;stroke-width:1.0;"/><line style="stroke:#181818;stroke-width:1.0;" x1="397" x2="397" y1="255.0732" y2="863.9883"/><line style="stroke:#181818;stroke-width:1.0;" x1="397" x2="183.5" y1="255.0732" y2="255.0732"/><polygon fill="#181818" points="193.5,251.0732,183.5,255.0732,193.5,259.0732,189.5,255.0732" style="stroke:#181818;stroke-width:1.0;"/><line style="stroke:#181818;stroke-width:1.0;" x1="171.5" x2="171.5" y1="875.9883" y2="895.9883"/><polygon fill="#181818" points="167.5,885.9883,171.5,895.9883,175.5,885.9883,171.5,889.9883" style="stroke:#181818;stroke-width:1.0;"/><line style="stroke:#181818;stroke-width:1.0;" x1="171.5" x2="171.5" y1="223.0732" y2="243.0732"/><polygon fill="#181818" points="167.5,233.0732,171.5,243.0732,175.5,233.0732,171.5,237.0732" style="stroke:#181818;stroke-width:1.0;"/><line style="stroke:#181818;stroke-width:1.0;" x1="171.5" x2="171.5" y1="919.9883" y2="939.9883"/><polygon fill="#181818" points="167.5,929.9883,171.5,939.9883,175.5,929.9883,171.5,933.9883" style="stroke:#181818;stroke-width:1.0;"/><line style="stroke:#181818;stroke-width:1.0;" x1="523" x2="523" y1="223.0732" y2="243.0732"/><polygon fill="#181818" points="519,233.0732,523,243.0732,527,233.0732,523,237.0732" style="stroke:#181818;stroke-width:1.0;"/><line style="stroke:#181818;stroke-width:1.0;" x1="523" x2="523" y1="276.8721" y2="296.8721"/><polygon fill="#181818" points="519,286.8721,523,296.8721,527,286.8721,523,290.8721" style="stroke:#181818;stroke-width:1.0;"/><line style="stroke:#181818;stroke-width:1.0;" x1="523" x2="523" y1="330.6709" y2="353.8721"/><polygon fill="#181818" points="519,343.8721,523,353.8721,527,343.8721,523,347.8721" style="stroke:#181818;stroke-width:1.0;"/><line style="stroke:#181818;stroke-width:1.0;" x1="523" x2="523" y1="387.6709" y2="410.8721"/><polygon fill="#181818" points="519,400.8721,523,410.8721,527,400.8721,523,404.8721" style="stroke:#181818;stroke-width:1.0;"/><line style="stroke:#181818;stroke-width:1.0;" x1="523" x2="523" y1="444.6709" y2="467.8721"/><polygon fill="#181818" points="519,457.8721,523,467.8721,527,457.8721,523,461.8721" style="stroke:#181818;stroke-width:1.0;"/><line style="stroke:#181818;stroke-width:1.0;" x1="270.5" x2="171.5" y1="115.7988" y2="115.7988"/><line style="stroke:#181818;stroke-width:1.0;" x1="171.5" x2="171.5" y1="115.7988" y2="189.2744"/><polygon fill="#181818" points="167.5,179.2744,171.5,189.2744,175.5,179.2744,171.5,183.2744" style="stroke:#181818;stroke-width:1.0;"/><text fill="#000000" font-family="sans-serif" font-size="11" lengthAdjust="spacing" textLength="113" x="171.5" y="150.1348">Authentication selected</text><line style="stroke:#181818;stroke-width:1.0;" x1="365.5" x2="523" y1="115.7988" y2="115.7988"/><line style="stroke:#181818;stroke-width:1.0;" x1="523" x2="523" y1="115.7988" y2="189.2744"/><polygon fill="#181818" points="519,179.2744,523,189.2744,527,179.2744,523,183.2744" style="stroke:#181818;stroke-width:1.0;"/><text fill="#000000" font-family="sans-serif" font-size="11" lengthAdjust="spacing" textLength="93" x="523" y="150.1348">Enrollment selected</text><line style="stroke:#181818;stroke-width:1.0;" x1="171.5" x2="171.5" y1="973.7871" y2="1007.7871"/><line style="stroke:#181818;stroke-width:1.0;" x1="171.5" x2="306" y1="1007.7871" y2="1007.7871"/><polygon fill="#181818" points="296,1003.7871,306,1007.7871,296,1011.7871,300,1007.7871" style="stroke:#181818;stroke-width:1.0;"/><line style="stroke:#181818;stroke-width:1.0;" x1="523" x2="523" y1="501.6709" y2="1007.7871"/><line style="stroke:#181818;stroke-width:1.0;" x1="523" x2="330" y1="1007.7871" y2="1007.7871"/><polygon fill="#181818" points="340,1003.7871,330,1007.7871,340,1011.7871,336,1007.7871" style="stroke:#181818;stroke-width:1.0;"/><line style="stroke:#181818;stroke-width:1.0;" x1="318" x2="318" y1="83.7988" y2="103.7988"/><polygon fill="#181818" points="314,93.7988,318,103.7988,322,93.7988,318,97.7988" style="stroke:#181818;stroke-width:1.0;"/><line style="stroke:#181818;stroke-width:1.0;" x1="318" x2="318" y1="1019.7871" y2="1039.7871"/><polygon fill="#181818" points="314,1029.7871,318,1039.7871,322,1029.7871,318,1033.7871" style="stroke:#181818;stroke-width:1.0;"/><line style="stroke:#181818;stroke-width:1.0;" x1="318" x2="318" y1="1073.5859" y2="1093.5859"/><polygon fill="#181818" points="314,1083.5859,318,1093.5859,322,1083.5859,318,1087.5859" style="stroke:#181818;stroke-width:1.0;"/><!--SRC=[TLFBRjj03BphAtYqRssFLjF2I9mY1nL6xKDl1IDH4H69A-nITTqY_rwk7hPin3VjSiYT6Ox2AqkB7Xl0NFatwn7-9G2FJlGxDWHhprYF5pl-I_3nK_AM947HQx9wuD3MU8GCMI0ZwL8h7LZp2XOxgYbNSAsoasMIOo1Oh3kjI9HpZBSGUWmLItl1M2ZtjrUWo0TWzIHMnJfoG5LgMeNSTQ9m1n_I7kAf9TJ-q_3ts6hd2KgM5_AjPz5qgcqDwbrE8G0t-4AdmkQFUZC2IXjapU5Ko32Aciq2arb1KEUfW4YdHZtZkOJ5s68SYwzBY99WSQIm724sT2QKe0laqrFjsHE-ZYUgetNYPfrFadjghFVIYtD_971fqvSxoDO_Vwtt-qsstU_UPMIJVv095y3B7PJ8jVcHpf0clJqTIGekp_IstiM7eoHGPujHVvnwpz1XNt2ekAPhjfyloGuHU6JXK5tdOpjiCiv_6sEs4U_gklVd_OZD06EyRiRbHbXkH6NrZOHytESyArC-HimkfWQ43eD3zkyyeEApKHy1zqvAzervDT4Sr9btm- -L9AkD5D1EqkCo_WC0]--></g></svg>