<?xml version="1.0" encoding="us-ascii" standalone="no"?><svg xmlns="http://www.w3.org/2000/svg" xmlns:xlink="http://www.w3.org/1999/xlink" contentStyleType="text/css" height="1059px" preserveAspectRatio="none" style="width:1103px;height:1059px;background:#FFFFFF;" version="1.1" viewBox="0 0 1103 1059" width="1103px" zoomAndPan="magnify"><defs/><g><text fill="#000000" font-family="sans-serif" font-size="14" font-weight="bold" lengthAdjust="spacing" textLength="721" x="197.75" y="29.5332">Sequence Diagram for Fingerprint-Based User Recognition with Detailed Logging and Limited Attempts</text><rect fill="none" height="248.6484" style="stroke:#000000;stroke-width:1.5;" width="1077.5" x="20" y="618.8438"/><rect fill="none" height="125.2422" style="stroke:#000000;stroke-width:1.5;" width="1057.5" x="30" y="735.25"/><rect fill="none" height="79.0547" style="stroke:#000000;stroke-width:1.5;" width="1057.5" x="30" y="881.4922"/><line style="stroke:#181818;stroke-width:0.5;stroke-dasharray:5.0,5.0;" x1="57" x2="57" y1="121.2188" y2="977.5469"/><line style="stroke:#181818;stroke-width:0.5;stroke-dasharray:5.0,5.0;" x1="301" x2="301" y1="121.2188" y2="977.5469"/><line style="stroke:#181818;stroke-width:0.5;stroke-dasharray:5.0,5.0;" x1="467.5" x2="467.5" y1="121.2188" y2="977.5469"/><line style="stroke:#181818;stroke-width:0.5;stroke-dasharray:5.0,5.0;" x1="590.5" x2="590.5" y1="121.2188" y2="977.5469"/><line style="stroke:#181818;stroke-width:0.5;stroke-dasharray:5.0,5.0;" x1="710.5" x2="710.5" y1="121.2188" y2="977.5469"/><line style="stroke:#181818;stroke-width:0.5;stroke-dasharray:5.0,5.0;" x1="851.5" x2="851.5" y1="121.2188" y2="977.5469"/><line style="stroke:#181818;stroke-width:0.5;stroke-dasharray:5.0,5.0;" x1="970.5" x2="970.5" y1="121.2188" y2="977.5469"/><line style="stroke:#181818;stroke-width:0.5;stroke-dasharray:5.0,5.0;" x1="1047.5" x2="1047.5" y1="121.2188" y2="977.5469"/><text fill="#000000" font-family="sans-serif" font-size="14" lengthAdjust="spacing" textLength="29" x="40" y="118.1426">User</text><ellipse cx="57.5" cy="52.1094" fill="#E2E2F0" rx="8" ry="8" style="stroke:#181818;stroke-width:0.5;"/><path d="M57.5,60.1094 L57.5,87.1094 M44.5,68.1094 L70.5,68.1094 M57.5,87.1094 L44.5,102.1094 M57.5,87.1094 L70.5,102.1094 " fill="none" style="stroke:#181818;stroke-width:0.5;"/><text fill="#000000" font-family="sans-serif" font-size="14" lengthAdjust="spacing" textLength="29" x="40" y="991.0801">User</text><ellipse cx="57.5" cy="1002.6563" fill="#E2E2F0" rx="8" ry="8" style="stroke:#181818;stroke-width:0.5;"/><path d="M57.5,1010.6563 L57.5,1037.6563 M44.5,1018.6563 L70.5,1018.6563 M57.5,1037.6563 L44.5,1052.6563 M57.5,1037.6563 L70.5,1052.6563 " fill="none" style="stroke:#181818;stroke-width:0.5;"/><rect fill="#E2E2F0" height="31.6094" rx="2.5" ry="2.5" style="stroke:#181818;stroke-width:0.5;" width="135" x="234" y="88.6094"/><text fill="#000000" font-family="sans-serif" font-size="14" lengthAdjust="spacing" textLength="121" x="241" y="110.1426">RecognitionSystem</text><rect fill="#E2E2F0" height="31.6094" rx="2.5" ry="2.5" style="stroke:#181818;stroke-width:0.5;" width="135" x="234" y="976.5469"/><text fill="#000000" font-family="sans-serif" font-size="14" lengthAdjust="spacing" textLength="121" x="241" y="998.0801">RecognitionSystem</text><rect fill="#E2E2F0" height="31.6094" rx="2.5" ry="2.5" style="stroke:#181818;stroke-width:0.5;" width="128" x="403.5" y="88.6094"/><text fill="#000000" font-family="sans-serif" font-size="14" lengthAdjust="spacing" textLength="114" x="410.5" y="110.1426">FingerprintSensor</text><rect fill="#E2E2F0" height="31.6094" rx="2.5" ry="2.5" style="stroke:#181818;stroke-width:0.5;" width="128" x="403.5" y="976.5469"/><text fill="#000000" font-family="sans-serif" font-size="14" lengthAdjust="spacing" textLength="114" x="410.5" y="998.0801">FingerprintSensor</text><rect fill="#E2E2F0" height="31.6094" rx="2.5" ry="2.5" style="stroke:#181818;stroke-width:0.5;" width="99" x="541.5" y="88.6094"/><text fill="#000000" font-family="sans-serif" font-size="14" lengthAdjust="spacing" textLength="85" x="548.5" y="110.1426">Preprocessor</text><rect fill="#E2E2F0" height="31.6094" rx="2.5" ry="2.5" style="stroke:#181818;stroke-width:0.5;" width="99" x="541.5" y="976.5469"/><text fill="#000000" font-family="sans-serif" font-size="14" lengthAdjust="spacing" textLength="85" x="548.5" y="998.0801">Preprocessor</text><rect fill="#E2E2F0" height="31.6094" rx="2.5" ry="2.5" style="stroke:#181818;stroke-width:0.5;" width="120" x="650.5" y="88.6094"/><text fill="#000000" font-family="sans-serif" font-size="14" lengthAdjust="spacing" textLength="106" x="657.5" y="110.1426">FeatureExtractor</text><rect fill="#E2E2F0" height="31.6094" rx="2.5" ry="2.5" style="stroke:#181818;stroke-width:0.5;" width="120" x="650.5" y="976.5469"/><text fill="#000000" font-family="sans-serif" font-size="14" lengthAdjust="spacing" textLength="106" x="657.5" y="998.0801">FeatureExtractor</text><rect fill="#E2E2F0" height="31.6094" rx="2.5" ry="2.5" style="stroke:#181818;stroke-width:0.5;" width="143" x="780.5" y="88.6094"/><text fill="#000000" font-family="sans-serif" font-size="14" lengthAdjust="spacing" textLength="129" x="787.5" y="110.1426">NeuralNetworkModel</text><rect fill="#E2E2F0" height="31.6094" rx="2.5" ry="2.5" style="stroke:#181818;stroke-width:0.5;" width="143" x="780.5" y="976.5469"/><text fill="#000000" font-family="sans-serif" font-size="14" lengthAdjust="spacing" textLength="129" x="787.5" y="998.0801">NeuralNetworkModel</text><rect fill="#E2E2F0" height="31.6094" rx="2.5" ry="2.5" style="stroke:#181818;stroke-width:0.5;" width="75" x="933.5" y="88.6094"/><text fill="#000000" font-family="sans-serif" font-size="14" lengthAdjust="spacing" textLength="61" x="940.5" y="110.1426">Database</text><rect fill="#E2E2F0" height="31.6094" rx="2.5" ry="2.5" style="stroke:#181818;stroke-width:0.5;" width="75" x="933.5" y="976.5469"/><text fill="#000000" font-family="sans-serif" font-size="14" lengthAdjust="spacing" textLength="61" x="940.5" y="998.0801">Database</text><rect fill="#E2E2F0" height="31.6094" rx="2.5" ry="2.5" style="stroke:#181818;stroke-width:0.5;" width="59" x="1018.5" y="88.6094"/><text fill="#000000" font-family="sans-serif" font-size="14" lengthAdjust="spacing" textLength="45" x="1025.5" y="110.1426">Logger</text><rect fill="#E2E2F0" height="31.6094" rx="2.5" ry="2.5" style="stroke:#181818;stroke-width:0.5;" width="59" x="1018.5" y="976.5469"/><text fill="#000000" font-family="sans-serif" font-size="14" lengthAdjust="spacing" textLength="45" x="1025.5" y="998.0801">Logger</text><polygon fill="#181818" points="289.5,149.5703,299.5,153.5703,289.5,157.5703,293.5,153.5703" style="stroke:#181818;stroke-width:1.0;"/><line style="stroke:#181818;stroke-width:1.0;" x1="57.5" x2="295.5" y1="153.5703" y2="153.5703"/><text fill="#000000" font-family="sans-serif" font-size="13" lengthAdjust="spacing" textLength="123" x="64.5" y="148.7139">Initiate authentication</text><polygon fill="#181818" points="1036,179.9219,1046,183.9219,1036,187.9219,1040,183.9219" style="stroke:#181818;stroke-width:1.0;"/><line style="stroke:#181818;stroke-width:1.0;" x1="301.5" x2="1042" y1="183.9219" y2="183.9219"/><text fill="#000000" font-family="sans-serif" font-size="13" lengthAdjust="spacing" textLength="162" x="308.5" y="179.0654">Log "Authentication started"</text><polygon fill="#181818" points="455.5,235.625,465.5,239.625,455.5,243.625,459.5,239.625" style="stroke:#181818;stroke-width:1.0;"/><line style="stroke:#181818;stroke-width:1.0;" x1="301.5" x2="461.5" y1="239.625" y2="239.625"/><text fill="#000000" font-family="sans-serif" font-size="13" lengthAdjust="spacing" textLength="105" x="308.5" y="234.7686">Capture fingerprint</text><polygon fill="#181818" points="312.5,265.9766,302.5,269.9766,312.5,273.9766,308.5,269.9766" style="stroke:#181818;stroke-width:1.0;"/><line style="stroke:#181818;stroke-width:1.0;" x1="306.5" x2="466.5" y1="269.9766" y2="269.9766"/><text fill="#000000" font-family="sans-serif" font-size="13" lengthAdjust="spacing" textLength="142" x="318.5" y="265.1201">Return Fingerprint object</text><polygon fill="#181818" points="1036,296.3281,1046,300.3281,1036,304.3281,1040,300.3281" style="stroke:#181818;stroke-width:1.0;"/><line style="stroke:#181818;stroke-width:1.0;" x1="301.5" x2="1042" y1="300.3281" y2="300.3281"/><text fill="#000000" font-family="sans-serif" font-size="13" lengthAdjust="spacing" textLength="150" x="308.5" y="295.4717">Log "Fingerprint captured"</text><polygon fill="#181818" points="579,326.6797,589,330.6797,579,334.6797,583,330.6797" style="stroke:#181818;stroke-width:1.0;"/><line style="stroke:#181818;stroke-width:1.0;" x1="301.5" x2="585" y1="330.6797" y2="330.6797"/><text fill="#000000" font-family="sans-serif" font-size="13" lengthAdjust="spacing" textLength="165" x="308.5" y="325.8232">Preprocess fingerprint image</text><polygon fill="#181818" points="312.5,357.0313,302.5,361.0313,312.5,365.0313,308.5,361.0313" style="stroke:#181818;stroke-width:1.0;"/><line style="stroke:#181818;stroke-width:1.0;" x1="306.5" x2="590" y1="361.0313" y2="361.0313"/><text fill="#000000" font-family="sans-serif" font-size="13" lengthAdjust="spacing" textLength="137" x="318.5" y="356.1748">Return enhanced image</text><polygon fill="#181818" points="1036,387.3828,1046,391.3828,1036,395.3828,1040,391.3828" style="stroke:#181818;stroke-width:1.0;"/><line style="stroke:#181818;stroke-width:1.0;" x1="301.5" x2="1042" y1="391.3828" y2="391.3828"/><text fill="#000000" font-family="sans-serif" font-size="13" lengthAdjust="spacing" textLength="152" x="308.5" y="386.5264">Log "Image preprocessed"</text><polygon fill="#181818" points="698.5,417.7344,708.5,421.7344,698.5,425.7344,702.5,421.7344" style="stroke:#181818;stroke-width:1.0;"/><line style="stroke:#181818;stroke-width:1.0;" x1="301.5" x2="704.5" y1="421.7344" y2="421.7344"/><text fill="#000000" font-family="sans-serif" font-size="13" lengthAdjust="spacing" textLength="160" x="308.5" y="416.8779">Extract features from image</text><polygon fill="#181818" points="312.5,448.0859,302.5,452.0859,312.5,456.0859,308.5,452.0859" style="stroke:#181818;stroke-width:1.0;"/><line style="stroke:#181818;stroke-width:1.0;" x1="306.5" x2="709.5" y1="452.0859" y2="452.0859"/><text fill="#000000" font-family="sans-serif" font-size="13" lengthAdjust="spacing" textLength="119" x="318.5" y="447.2295">Return feature vector</text><polygon fill="#181818" points="1036,478.4375,1046,482.4375,1036,486.4375,1040,482.4375" style="stroke:#181818;stroke-width:1.0;"/><line style="stroke:#181818;stroke-width:1.0;" x1="301.5" x2="1042" y1="482.4375" y2="482.4375"/><text fill="#000000" font-family="sans-serif" font-size="13" lengthAdjust="spacing" textLength="144" x="308.5" y="477.5811">Log "Features extracted"</text><polygon fill="#181818" points="840,508.7891,850,512.7891,840,516.7891,844,512.7891" style="stroke:#181818;stroke-width:1.0;"/><line style="stroke:#181818;stroke-width:1.0;" x1="301.5" x2="846" y1="512.7891" y2="512.7891"/><text fill="#000000" font-family="sans-serif" font-size="13" lengthAdjust="spacing" textLength="170" x="308.5" y="507.9326">Predict match (feature vector)</text><polygon fill="#181818" points="312.5,539.1406,302.5,543.1406,312.5,547.1406,308.5,543.1406" style="stroke:#181818;stroke-width:1.0;"/><line style="stroke:#181818;stroke-width:1.0;" x1="306.5" x2="851" y1="543.1406" y2="543.1406"/><text fill="#000000" font-family="sans-serif" font-size="13" lengthAdjust="spacing" textLength="131" x="318.5" y="538.2842">Return matching score</text><polygon fill="#181818" points="1036,569.4922,1046,573.4922,1036,577.4922,1040,573.4922" style="stroke:#181818;stroke-width:1.0;"/><line style="stroke:#181818;stroke-width:1.0;" x1="301.5" x2="1042" y1="573.4922" y2="573.4922"/><text fill="#000000" font-family="sans-serif" font-size="13" lengthAdjust="spacing" textLength="208" x="308.5" y="568.6357">Log "Neural network returned score"</text><polygon fill="#181818" points="959,599.8438,969,603.8438,959,607.8438,963,603.8438" style="stroke:#181818;stroke-width:1.0;"/><line style="stroke:#181818;stroke-width:1.0;" x1="301.5" x2="965" y1="603.8438" y2="603.8438"/><text fill="#000000" font-family="sans-serif" font-size="13" lengthAdjust="spacing" textLength="186" x="308.5" y="598.9873">Query user by fingerprint (score)</text><path d="M20,618.8438 L81,618.8438 L81,627.1953 L71,637.1953 L20,637.1953 L20,618.8438 " fill="#EEEEEE" style="stroke:#000000;stroke-width:1.5;"/><rect fill="none" height="248.6484" style="stroke:#000000;stroke-width:1.5;" width="1077.5" x="20" y="618.8438"/><text fill="#000000" font-family="sans-serif" font-size="13" font-weight="bold" lengthAdjust="spacing" textLength="16" x="35" y="633.3389">alt</text><text fill="#000000" font-family="sans-serif" font-size="11" font-weight="bold" lengthAdjust="spacing" textLength="76" x="96" y="632.2627">[Match found]</text><polygon fill="#181818" points="312.5,655.5469,302.5,659.5469,312.5,663.5469,308.5,659.5469" style="stroke:#181818;stroke-width:1.0;"/><line style="stroke:#181818;stroke-width:1.0;" x1="306.5" x2="970" y1="659.5469" y2="659.5469"/><text fill="#000000" font-family="sans-serif" font-size="13" lengthAdjust="spacing" textLength="105" x="318.5" y="654.6904">Return user profile</text><polygon fill="#181818" points="1036,685.8984,1046,689.8984,1036,693.8984,1040,689.8984" style="stroke:#181818;stroke-width:1.0;"/><line style="stroke:#181818;stroke-width:1.0;" x1="301.5" x2="1042" y1="689.8984" y2="689.8984"/><text fill="#000000" font-family="sans-serif" font-size="13" lengthAdjust="spacing" textLength="144" x="308.5" y="685.042">Log "User authenticated"</text><polygon fill="#181818" points="68.5,716.25,58.5,720.25,68.5,724.25,64.5,720.25" style="stroke:#181818;stroke-width:1.0;"/><line style="stroke:#181818;stroke-width:1.0;" x1="62.5" x2="300.5" y1="720.25" y2="720.25"/><text fill="#000000" font-family="sans-serif" font-size="13" lengthAdjust="spacing" textLength="220" x="74.5" y="715.3936">Return authentication result (success)</text><path d="M30,735.25 L111,735.25 L111,743.6016 L101,753.6016 L30,753.6016 L30,735.25 " fill="#EEEEEE" style="stroke:#000000;stroke-width:1.5;"/><rect fill="none" height="125.2422" style="stroke:#000000;stroke-width:1.5;" width="1057.5" x="30" y="735.25"/><text fill="#000000" font-family="sans-serif" font-size="13" font-weight="bold" lengthAdjust="spacing" textLength="36" x="45" y="749.7451">break</text><line style="stroke:#000000;stroke-width:1.0;stroke-dasharray:2.0,2.0;" x1="30" x2="1087.5" y1="754.6016" y2="754.6016"/><text fill="#000000" font-family="sans-serif" font-size="11" font-weight="bold" lengthAdjust="spacing" textLength="59" x="35" y="766.0205">[No match]</text><polygon fill="#181818" points="1036,787.7891,1046,791.7891,1036,795.7891,1040,791.7891" style="stroke:#181818;stroke-width:1.0;"/><line style="stroke:#181818;stroke-width:1.0;" x1="301.5" x2="1042" y1="791.7891" y2="791.7891"/><text fill="#000000" font-family="sans-serif" font-size="13" lengthAdjust="spacing" textLength="126" x="308.5" y="786.9326">Log "No match found"</text><polygon fill="#181818" points="68.5,818.1406,58.5,822.1406,68.5,826.1406,64.5,822.1406" style="stroke:#181818;stroke-width:1.0;"/><line style="stroke:#181818;stroke-width:1.0;" x1="62.5" x2="300.5" y1="822.1406" y2="822.1406"/><text fill="#000000" font-family="sans-serif" font-size="13" lengthAdjust="spacing" textLength="87" x="74.5" y="817.2842">Prompt to retry</text><polygon fill="#181818" points="1036,848.4922,1046,852.4922,1036,856.4922,1040,852.4922" style="stroke:#181818;stroke-width:1.0;"/><line style="stroke:#181818;stroke-width:1.0;" x1="301.5" x2="1042" y1="852.4922" y2="852.4922"/><text fill="#000000" font-family="sans-serif" font-size="13" lengthAdjust="spacing" textLength="124" x="308.5" y="847.6357">Log "Retry prompted"</text><path d="M30,881.4922 L91,881.4922 L91,889.8438 L81,899.8438 L30,899.8438 L30,881.4922 " fill="#EEEEEE" style="stroke:#000000;stroke-width:1.5;"/><rect fill="none" height="79.0547" style="stroke:#000000;stroke-width:1.5;" width="1057.5" x="30" y="881.4922"/><text fill="#000000" font-family="sans-serif" font-size="13" font-weight="bold" lengthAdjust="spacing" textLength="16" x="45" y="895.9873">alt</text><text fill="#000000" font-family="sans-serif" font-size="11" font-weight="bold" lengthAdjust="spacing" textLength="278" x="106" y="894.9111">[(attempt count &gt;= MAX_ATTEMPTS and no match)]</text><polygon fill="#181818" points="1036,918.1953,1046,922.1953,1036,926.1953,1040,922.1953" style="stroke:#181818;stroke-width:1.0;"/><line style="stroke:#181818;stroke-width:1.0;" x1="301.5" x2="1042" y1="922.1953" y2="922.1953"/><text fill="#000000" font-family="sans-serif" font-size="13" lengthAdjust="spacing" textLength="322" x="308.5" y="917.3389">Log "Authentication failed: Maximum attempts reached"</text><polygon fill="#181818" points="68.5,948.5469,58.5,952.5469,68.5,956.5469,64.5,952.5469" style="stroke:#181818;stroke-width:1.0;"/><line style="stroke:#181818;stroke-width:1.0;" x1="62.5" x2="300.5" y1="952.5469" y2="952.5469"/><text fill="#000000" font-family="sans-serif" font-size="13" lengthAdjust="spacing" textLength="161" x="74.5" y="947.6904">Return authentication failure</text><!--SRC=[XLJ1Zfim4Btp5QESaiF-06fNIfgmMYb1DAHgRvLZ1d0NR6fCT_Ft7Ti92zv8Uq12pFDxRzwCCS8q23d-7L1oXArWbMOjb4f38cI5kjD2ceSDwx607prgE29NbHH6A0clmjImHSD4G-MzgYew0qpIksY5eMzhOx3jJ1z5Z1iYjHHHnxGHN7HC6bXC-F9BJ-W5i1wE-HmrCPEZx9Lsg2H0PHexhJZsDq2M1JJ8pA1nzsQqy-DPTdDGYeDcJOhcLUcNWogmSR0qdSEspB0pvUAAsysyQBD0Jxz_YYANtCCZjHN3issM6GGsc1ebdM6s-UYOMyJ-ARP1mc8zgq9lY1wBHHGrIdNmiwR8OSbylC3LGAfVuB3-zNjzEkqEsIbVHG2UCo7LRwopdKFv7YJLa_pcweXKbjEXWph_GMv6bj7P5CCzBVa2695P5iFxAAQI85fM8G6pB116MJFQm6941ABFzZDq8siWcUnYk4uLIZza4jQg7VcINQ1uXS4_j9jmfyqR3NhUG35DNPE58CMM6Lx3Siveyq_JGDGXxINfkT9tslIx1z8l7sXtYb9ny9d-TXF3zm7r1GQxNEVBBEUbEs0jiCR0mVahQKaA-W9qDh3bA2ZPahRA8G9RRdyd- -gpkC5iTQIQRpLrq0-DzJDmExQLEtRMo5xe3PiU8LK-bNkwjvht_b4pemdJ-XjbazANUnH7Mx2z4T3RHah1Ff6D9hX2ZrzdTyZzo-JLnEhZk89BMheVOKnvlubsQE7AtPCxnckl_dbabeNMo7dy3m00]--></g></svg>