<?xml version="1.0" encoding="us-ascii" standalone="no"?><svg xmlns="http://www.w3.org/2000/svg" xmlns:xlink="http://www.w3.org/1999/xlink" contentStyleType="text/css" height="1238px" preserveAspectRatio="none" style="width:1390px;height:1238px;background:#FFFFFF;" version="1.1" viewBox="0 0 1390 1238" width="1390px" zoomAndPan="magnify"><defs/><g><rect fill="none" height="473.625" style="stroke:#000000;stroke-width:1.5;" width="1364.5" x="10" y="129.9609"/><rect fill="none" height="521.8125" style="stroke:#000000;stroke-width:1.5;" width="1285.5" x="99" y="617.5859"/><rect fill="none" height="216.2969" style="stroke:#000000;stroke-width:1.5;" width="1265.5" x="109" y="916.1016"/><line style="stroke:#181818;stroke-width:0.5;stroke-dasharray:5.0,5.0;" x1="64" x2="64" y1="82.6094" y2="1156.3984"/><line style="stroke:#181818;stroke-width:0.5;stroke-dasharray:5.0,5.0;" x1="136" x2="136" y1="82.6094" y2="1156.3984"/><line style="stroke:#181818;stroke-width:0.5;stroke-dasharray:5.0,5.0;" x1="426.5" x2="426.5" y1="82.6094" y2="1156.3984"/><line style="stroke:#181818;stroke-width:0.5;stroke-dasharray:5.0,5.0;" x1="601.5" x2="601.5" y1="82.6094" y2="1156.3984"/><line style="stroke:#181818;stroke-width:0.5;stroke-dasharray:5.0,5.0;" x1="726.5" x2="726.5" y1="82.6094" y2="1156.3984"/><line style="stroke:#181818;stroke-width:0.5;stroke-dasharray:5.0,5.0;" x1="848.5" x2="848.5" y1="82.6094" y2="1156.3984"/><line style="stroke:#181818;stroke-width:0.5;stroke-dasharray:5.0,5.0;" x1="991.5" x2="991.5" y1="82.6094" y2="1156.3984"/><line style="stroke:#181818;stroke-width:0.5;stroke-dasharray:5.0,5.0;" x1="1141.5" x2="1141.5" y1="82.6094" y2="1156.3984"/><line style="stroke:#181818;stroke-width:0.5;stroke-dasharray:5.0,5.0;" x1="1257.5" x2="1257.5" y1="82.6094" y2="1156.3984"/><line style="stroke:#181818;stroke-width:0.5;stroke-dasharray:5.0,5.0;" x1="1334.5" x2="1334.5" y1="82.6094" y2="1156.3984"/><text fill="#000000" font-family="sans-serif" font-size="14" lengthAdjust="spacing" textLength="83" x="20" y="79.5332">Administrator</text><ellipse cx="64.5" cy="13.5" fill="#E2E2F0" rx="8" ry="8" style="stroke:#181818;stroke-width:0.5;"/><path d="M64.5,21.5 L64.5,48.5 M51.5,29.5 L77.5,29.5 M64.5,48.5 L51.5,63.5 M64.5,48.5 L77.5,63.5 " fill="none" style="stroke:#181818;stroke-width:0.5;"/><text fill="#000000" font-family="sans-serif" font-size="14" lengthAdjust="spacing" textLength="83" x="20" y="1169.9316">Administrator</text><ellipse cx="64.5" cy="1181.5078" fill="#E2E2F0" rx="8" ry="8" style="stroke:#181818;stroke-width:0.5;"/><path d="M64.5,1189.5078 L64.5,1216.5078 M51.5,1197.5078 L77.5,1197.5078 M64.5,1216.5078 L51.5,1231.5078 M64.5,1216.5078 L77.5,1231.5078 " fill="none" style="stroke:#181818;stroke-width:0.5;"/><text fill="#000000" font-family="sans-serif" font-size="14" lengthAdjust="spacing" textLength="29" x="119" y="79.5332">User</text><ellipse cx="136.5" cy="13.5" fill="#E2E2F0" rx="8" ry="8" style="stroke:#181818;stroke-width:0.5;"/><path d="M136.5,21.5 L136.5,48.5 M123.5,29.5 L149.5,29.5 M136.5,48.5 L123.5,63.5 M136.5,48.5 L149.5,63.5 " fill="none" style="stroke:#181818;stroke-width:0.5;"/><text fill="#000000" font-family="sans-serif" font-size="14" lengthAdjust="spacing" textLength="29" x="119" y="1169.9316">User</text><ellipse cx="136.5" cy="1181.5078" fill="#E2E2F0" rx="8" ry="8" style="stroke:#181818;stroke-width:0.5;"/><path d="M136.5,1189.5078 L136.5,1216.5078 M123.5,1197.5078 L149.5,1197.5078 M136.5,1216.5078 L123.5,1231.5078 M136.5,1216.5078 L149.5,1231.5078 " fill="none" style="stroke:#181818;stroke-width:0.5;"/><rect fill="#E2E2F0" height="31.6094" rx="2.5" ry="2.5" style="stroke:#181818;stroke-width:0.5;" width="60" x="396.5" y="50"/><text fill="#000000" font-family="sans-serif" font-size="14" lengthAdjust="spacing" textLength="46" x="403.5" y="71.5332">System</text><rect fill="#E2E2F0" height="31.6094" rx="2.5" ry="2.5" style="stroke:#181818;stroke-width:0.5;" width="60" x="396.5" y="1155.3984"/><text fill="#000000" font-family="sans-serif" font-size="14" lengthAdjust="spacing" textLength="46" x="403.5" y="1176.9316">System</text><rect fill="#E2E2F0" height="31.6094" rx="2.5" ry="2.5" style="stroke:#181818;stroke-width:0.5;" width="132" x="535.5" y="50"/><text fill="#000000" font-family="sans-serif" font-size="14" lengthAdjust="spacing" textLength="118" x="542.5" y="71.5332">Fingerprint Sensor</text><rect fill="#E2E2F0" height="31.6094" rx="2.5" ry="2.5" style="stroke:#181818;stroke-width:0.5;" width="132" x="535.5" y="1155.3984"/><text fill="#000000" font-family="sans-serif" font-size="14" lengthAdjust="spacing" textLength="118" x="542.5" y="1176.9316">Fingerprint Sensor</text><rect fill="#E2E2F0" height="31.6094" rx="2.5" ry="2.5" style="stroke:#181818;stroke-width:0.5;" width="99" x="677.5" y="50"/><text fill="#000000" font-family="sans-serif" font-size="14" lengthAdjust="spacing" textLength="85" x="684.5" y="71.5332">Preprocessor</text><rect fill="#E2E2F0" height="31.6094" rx="2.5" ry="2.5" style="stroke:#181818;stroke-width:0.5;" width="99" x="677.5" y="1155.3984"/><text fill="#000000" font-family="sans-serif" font-size="14" lengthAdjust="spacing" textLength="85" x="684.5" y="1176.9316">Preprocessor</text><rect fill="#E2E2F0" height="31.6094" rx="2.5" ry="2.5" style="stroke:#181818;stroke-width:0.5;" width="124" x="786.5" y="50"/><text fill="#000000" font-family="sans-serif" font-size="14" lengthAdjust="spacing" textLength="110" x="793.5" y="71.5332">Feature Extractor</text><rect fill="#E2E2F0" height="31.6094" rx="2.5" ry="2.5" style="stroke:#181818;stroke-width:0.5;" width="124" x="786.5" y="1155.3984"/><text fill="#000000" font-family="sans-serif" font-size="14" lengthAdjust="spacing" textLength="110" x="793.5" y="1176.9316">Feature Extractor</text><rect fill="#E2E2F0" height="31.6094" rx="2.5" ry="2.5" style="stroke:#181818;stroke-width:0.5;" width="142" x="920.5" y="50"/><text fill="#000000" font-family="sans-serif" font-size="14" lengthAdjust="spacing" textLength="128" x="927.5" y="71.5332">Template Generator</text><rect fill="#E2E2F0" height="31.6094" rx="2.5" ry="2.5" style="stroke:#181818;stroke-width:0.5;" width="142" x="920.5" y="1155.3984"/><text fill="#000000" font-family="sans-serif" font-size="14" lengthAdjust="spacing" textLength="128" x="927.5" y="1176.9316">Template Generator</text><rect fill="#E2E2F0" height="31.6094" rx="2.5" ry="2.5" style="stroke:#181818;stroke-width:0.5;" width="138" x="1072.5" y="50"/><text fill="#000000" font-family="sans-serif" font-size="14" lengthAdjust="spacing" textLength="124" x="1079.5" y="71.5332">Fingerprint Matcher</text><rect fill="#E2E2F0" height="31.6094" rx="2.5" ry="2.5" style="stroke:#181818;stroke-width:0.5;" width="138" x="1072.5" y="1155.3984"/><text fill="#000000" font-family="sans-serif" font-size="14" lengthAdjust="spacing" textLength="124" x="1079.5" y="1176.9316">Fingerprint Matcher</text><rect fill="#E2E2F0" height="31.6094" rx="2.5" ry="2.5" style="stroke:#181818;stroke-width:0.5;" width="75" x="1220.5" y="50"/><text fill="#000000" font-family="sans-serif" font-size="14" lengthAdjust="spacing" textLength="61" x="1227.5" y="71.5332">Database</text><rect fill="#E2E2F0" height="31.6094" rx="2.5" ry="2.5" style="stroke:#181818;stroke-width:0.5;" width="75" x="1220.5" y="1155.3984"/><text fill="#000000" font-family="sans-serif" font-size="14" lengthAdjust="spacing" textLength="61" x="1227.5" y="1176.9316">Database</text><rect fill="#E2E2F0" height="31.6094" rx="2.5" ry="2.5" style="stroke:#181818;stroke-width:0.5;" width="59" x="1305.5" y="50"/><text fill="#000000" font-family="sans-serif" font-size="14" lengthAdjust="spacing" textLength="45" x="1312.5" y="71.5332">Logger</text><rect fill="#E2E2F0" height="31.6094" rx="2.5" ry="2.5" style="stroke:#181818;stroke-width:0.5;" width="59" x="1305.5" y="1155.3984"/><text fill="#000000" font-family="sans-serif" font-size="14" lengthAdjust="spacing" textLength="45" x="1312.5" y="1176.9316">Logger</text><polygon fill="#181818" points="414.5,110.9609,424.5,114.9609,414.5,118.9609,418.5,114.9609" style="stroke:#181818;stroke-width:1.0;"/><line style="stroke:#181818;stroke-width:1.0;" x1="136.5" x2="420.5" y1="114.9609" y2="114.9609"/><text fill="#000000" font-family="sans-serif" font-size="13" lengthAdjust="spacing" textLength="266" x="143.5" y="110.1045">Select Operation (Enrollment / Authentication)</text><path d="M10,129.9609 L71,129.9609 L71,138.3125 L61,148.3125 L10,148.3125 L10,129.9609 " fill="#EEEEEE" style="stroke:#000000;stroke-width:1.5;"/><rect fill="none" height="473.625" style="stroke:#000000;stroke-width:1.5;" width="1364.5" x="10" y="129.9609"/><text fill="#000000" font-family="sans-serif" font-size="13" font-weight="bold" lengthAdjust="spacing" textLength="16" x="25" y="144.4561">alt</text><text fill="#000000" font-family="sans-serif" font-size="11" font-weight="bold" lengthAdjust="spacing" textLength="97" x="86" y="143.3799">[Enrollment Flow]</text><polygon fill="#181818" points="414.5,166.6641,424.5,170.6641,414.5,174.6641,418.5,170.6641" style="stroke:#181818;stroke-width:1.0;"/><line style="stroke:#181818;stroke-width:1.0;" x1="64.5" x2="420.5" y1="170.6641" y2="170.6641"/><text fill="#000000" font-family="sans-serif" font-size="13" lengthAdjust="spacing" textLength="104" x="71.5" y="165.8076">Initiate Enrollment</text><polygon fill="#181818" points="147.5,197.0156,137.5,201.0156,147.5,205.0156,143.5,201.0156" style="stroke:#181818;stroke-width:1.0;"/><line style="stroke:#181818;stroke-width:1.0;" x1="141.5" x2="425.5" y1="201.0156" y2="201.0156"/><text fill="#000000" font-family="sans-serif" font-size="13" lengthAdjust="spacing" textLength="222" x="153.5" y="196.1592">Request fingerprint scan for enrollment</text><polygon fill="#181818" points="589.5,227.3672,599.5,231.3672,589.5,235.3672,593.5,231.3672" style="stroke:#181818;stroke-width:1.0;"/><line style="stroke:#181818;stroke-width:1.0;" x1="136.5" x2="595.5" y1="231.3672" y2="231.3672"/><text fill="#000000" font-family="sans-serif" font-size="13" lengthAdjust="spacing" textLength="105" x="143.5" y="226.5107">Capture fingerprint</text><polygon fill="#181818" points="437.5,257.7188,427.5,261.7188,437.5,265.7188,433.5,261.7188" style="stroke:#181818;stroke-width:1.0;"/><line style="stroke:#181818;stroke-width:1.0;" x1="431.5" x2="600.5" y1="261.7188" y2="261.7188"/><text fill="#000000" font-family="sans-serif" font-size="13" lengthAdjust="spacing" textLength="151" x="443.5" y="256.8623">Return raw fingerprint data</text><polygon fill="#181818" points="715,288.0703,725,292.0703,715,296.0703,719,292.0703" style="stroke:#181818;stroke-width:1.0;"/><line style="stroke:#181818;stroke-width:1.0;" x1="426.5" x2="721" y1="292.0703" y2="292.0703"/><text fill="#000000" font-family="sans-serif" font-size="13" lengthAdjust="spacing" textLength="163" x="433.5" y="287.2139">Enhance &amp; normalize image</text><polygon fill="#181818" points="437.5,318.4219,427.5,322.4219,437.5,326.4219,433.5,322.4219" style="stroke:#181818;stroke-width:1.0;"/><line style="stroke:#181818;stroke-width:1.0;" x1="431.5" x2="726" y1="322.4219" y2="322.4219"/><text fill="#000000" font-family="sans-serif" font-size="13" lengthAdjust="spacing" textLength="141" x="443.5" y="317.5654">Return processed image</text><polygon fill="#181818" points="836.5,348.7734,846.5,352.7734,836.5,356.7734,840.5,352.7734" style="stroke:#181818;stroke-width:1.0;"/><line style="stroke:#181818;stroke-width:1.0;" x1="426.5" x2="842.5" y1="352.7734" y2="352.7734"/><text fill="#000000" font-family="sans-serif" font-size="13" lengthAdjust="spacing" textLength="152" x="433.5" y="347.917">Extract fingerprint features</text><polygon fill="#181818" points="437.5,379.125,427.5,383.125,437.5,387.125,433.5,383.125" style="stroke:#181818;stroke-width:1.0;"/><line style="stroke:#181818;stroke-width:1.0;" x1="431.5" x2="847.5" y1="383.125" y2="383.125"/><text fill="#000000" font-family="sans-serif" font-size="13" lengthAdjust="spacing" textLength="119" x="443.5" y="378.2686">Return feature vector</text><polygon fill="#181818" points="979.5,409.4766,989.5,413.4766,979.5,417.4766,983.5,413.4766" style="stroke:#181818;stroke-width:1.0;"/><line style="stroke:#181818;stroke-width:1.0;" x1="426.5" x2="985.5" y1="413.4766" y2="413.4766"/><text fill="#000000" font-family="sans-serif" font-size="13" lengthAdjust="spacing" textLength="167" x="433.5" y="408.6201">Generate fingerprint template</text><polygon fill="#181818" points="437.5,439.8281,427.5,443.8281,437.5,447.8281,433.5,443.8281" style="stroke:#181818;stroke-width:1.0;"/><line style="stroke:#181818;stroke-width:1.0;" x1="431.5" x2="990.5" y1="443.8281" y2="443.8281"/><text fill="#000000" font-family="sans-serif" font-size="13" lengthAdjust="spacing" textLength="152" x="443.5" y="438.9717">Return fingerprint template</text><polygon fill="#181818" points="1246,470.1797,1256,474.1797,1246,478.1797,1250,474.1797" style="stroke:#181818;stroke-width:1.0;"/><line style="stroke:#181818;stroke-width:1.0;" x1="426.5" x2="1252" y1="474.1797" y2="474.1797"/><text fill="#000000" font-family="sans-serif" font-size="13" lengthAdjust="spacing" textLength="198" x="433.5" y="469.3232">Add new user profile with template</text><polygon fill="#181818" points="437.5,500.5313,427.5,504.5313,437.5,508.5313,433.5,504.5313" style="stroke:#181818;stroke-width:1.0;"/><line style="stroke:#181818;stroke-width:1.0;" x1="431.5" x2="1257" y1="504.5313" y2="504.5313"/><text fill="#000000" font-family="sans-serif" font-size="13" lengthAdjust="spacing" textLength="72" x="443.5" y="499.6748">Confirmation</text><polygon fill="#181818" points="1323,530.8828,1333,534.8828,1323,538.8828,1327,534.8828" style="stroke:#181818;stroke-width:1.0;"/><line style="stroke:#181818;stroke-width:1.0;" x1="426.5" x2="1329" y1="534.8828" y2="534.8828"/><text fill="#000000" font-family="sans-serif" font-size="13" lengthAdjust="spacing" textLength="119" x="433.5" y="530.0264">Log enrollment event</text><polygon fill="#181818" points="75.5,561.2344,65.5,565.2344,75.5,569.2344,71.5,565.2344" style="stroke:#181818;stroke-width:1.0;"/><line style="stroke:#181818;stroke-width:1.0;" x1="69.5" x2="425.5" y1="565.2344" y2="565.2344"/><text fill="#000000" font-family="sans-serif" font-size="13" lengthAdjust="spacing" textLength="128" x="81.5" y="560.3779">Enrollment successful</text><polygon fill="#181818" points="147.5,591.5859,137.5,595.5859,147.5,599.5859,143.5,595.5859" style="stroke:#181818;stroke-width:1.0;"/><line style="stroke:#181818;stroke-width:1.0;" x1="141.5" x2="425.5" y1="595.5859" y2="595.5859"/><text fill="#000000" font-family="sans-serif" font-size="13" lengthAdjust="spacing" textLength="128" x="153.5" y="590.7295">Enrollment successful</text><path d="M99,617.5859 L160,617.5859 L160,625.9375 L150,635.9375 L99,635.9375 L99,617.5859 " fill="#EEEEEE" style="stroke:#000000;stroke-width:1.5;"/><rect fill="none" height="521.8125" style="stroke:#000000;stroke-width:1.5;" width="1285.5" x="99" y="617.5859"/><text fill="#000000" font-family="sans-serif" font-size="13" font-weight="bold" lengthAdjust="spacing" textLength="16" x="114" y="632.0811">alt</text><text fill="#000000" font-family="sans-serif" font-size="11" font-weight="bold" lengthAdjust="spacing" textLength="117" x="175" y="631.0049">[Authentication Flow]</text><polygon fill="#181818" points="147.5,654.2891,137.5,658.2891,147.5,662.2891,143.5,658.2891" style="stroke:#181818;stroke-width:1.0;"/><line style="stroke:#181818;stroke-width:1.0;" x1="141.5" x2="425.5" y1="658.2891" y2="658.2891"/><text fill="#000000" font-family="sans-serif" font-size="13" lengthAdjust="spacing" textLength="243" x="153.5" y="653.4326">Request fingerprint scan for authentication</text><polygon fill="#181818" points="589.5,684.6406,599.5,688.6406,589.5,692.6406,593.5,688.6406" style="stroke:#181818;stroke-width:1.0;"/><line style="stroke:#181818;stroke-width:1.0;" x1="136.5" x2="595.5" y1="688.6406" y2="688.6406"/><text fill="#000000" font-family="sans-serif" font-size="13" lengthAdjust="spacing" textLength="105" x="143.5" y="683.7842">Capture fingerprint</text><polygon fill="#181818" points="437.5,714.9922,427.5,718.9922,437.5,722.9922,433.5,718.9922" style="stroke:#181818;stroke-width:1.0;"/><line style="stroke:#181818;stroke-width:1.0;" x1="431.5" x2="600.5" y1="718.9922" y2="718.9922"/><text fill="#000000" font-family="sans-serif" font-size="13" lengthAdjust="spacing" textLength="151" x="443.5" y="714.1357">Return raw fingerprint data</text><polygon fill="#181818" points="715,745.3438,725,749.3438,715,753.3438,719,749.3438" style="stroke:#181818;stroke-width:1.0;"/><line style="stroke:#181818;stroke-width:1.0;" x1="426.5" x2="721" y1="749.3438" y2="749.3438"/><text fill="#000000" font-family="sans-serif" font-size="13" lengthAdjust="spacing" textLength="163" x="433.5" y="744.4873">Enhance &amp; normalize image</text><polygon fill="#181818" points="437.5,775.6953,427.5,779.6953,437.5,783.6953,433.5,779.6953" style="stroke:#181818;stroke-width:1.0;"/><line style="stroke:#181818;stroke-width:1.0;" x1="431.5" x2="726" y1="779.6953" y2="779.6953"/><text fill="#000000" font-family="sans-serif" font-size="13" lengthAdjust="spacing" textLength="141" x="443.5" y="774.8389">Return processed image</text><polygon fill="#181818" points="836.5,806.0469,846.5,810.0469,836.5,814.0469,840.5,810.0469" style="stroke:#181818;stroke-width:1.0;"/><line style="stroke:#181818;stroke-width:1.0;" x1="426.5" x2="842.5" y1="810.0469" y2="810.0469"/><text fill="#000000" font-family="sans-serif" font-size="13" lengthAdjust="spacing" textLength="152" x="433.5" y="805.1904">Extract fingerprint features</text><polygon fill="#181818" points="437.5,836.3984,427.5,840.3984,437.5,844.3984,433.5,840.3984" style="stroke:#181818;stroke-width:1.0;"/><line style="stroke:#181818;stroke-width:1.0;" x1="431.5" x2="847.5" y1="840.3984" y2="840.3984"/><text fill="#000000" font-family="sans-serif" font-size="13" lengthAdjust="spacing" textLength="119" x="443.5" y="835.542">Return feature vector</text><polygon fill="#181818" points="1129.5,866.75,1139.5,870.75,1129.5,874.75,1133.5,870.75" style="stroke:#181818;stroke-width:1.0;"/><line style="stroke:#181818;stroke-width:1.0;" x1="426.5" x2="1135.5" y1="870.75" y2="870.75"/><text fill="#000000" font-family="sans-serif" font-size="13" lengthAdjust="spacing" textLength="230" x="433.5" y="865.8936">Compare features with stored templates</text><polygon fill="#181818" points="437.5,897.1016,427.5,901.1016,437.5,905.1016,433.5,901.1016" style="stroke:#181818;stroke-width:1.0;"/><line style="stroke:#181818;stroke-width:1.0;" x1="431.5" x2="1140.5" y1="901.1016" y2="901.1016"/><text fill="#000000" font-family="sans-serif" font-size="13" lengthAdjust="spacing" textLength="131" x="443.5" y="896.2451">Return matching result</text><path d="M109,916.1016 L170,916.1016 L170,924.4531 L160,934.4531 L109,934.4531 L109,916.1016 " fill="#EEEEEE" style="stroke:#000000;stroke-width:1.5;"/><rect fill="none" height="216.2969" style="stroke:#000000;stroke-width:1.5;" width="1265.5" x="109" y="916.1016"/><text fill="#000000" font-family="sans-serif" font-size="13" font-weight="bold" lengthAdjust="spacing" textLength="16" x="124" y="930.5967">alt</text><text fill="#000000" font-family="sans-serif" font-size="11" font-weight="bold" lengthAdjust="spacing" textLength="78" x="185" y="929.5205">[Match Found]</text><polygon fill="#181818" points="1246,952.8047,1256,956.8047,1246,960.8047,1250,956.8047" style="stroke:#181818;stroke-width:1.0;"/><line style="stroke:#181818;stroke-width:1.0;" x1="426.5" x2="1252" y1="956.8047" y2="956.8047"/><text fill="#000000" font-family="sans-serif" font-size="13" lengthAdjust="spacing" textLength="170" x="433.5" y="951.9482">Retrieve matching user profile</text><polygon fill="#181818" points="437.5,983.1563,427.5,987.1563,437.5,991.1563,433.5,987.1563" style="stroke:#181818;stroke-width:1.0;"/><line style="stroke:#181818;stroke-width:1.0;" x1="431.5" x2="1257" y1="987.1563" y2="987.1563"/><text fill="#000000" font-family="sans-serif" font-size="13" lengthAdjust="spacing" textLength="105" x="443.5" y="982.2998">Return user profile</text><polygon fill="#181818" points="1323,1013.5078,1333,1017.5078,1323,1021.5078,1327,1017.5078" style="stroke:#181818;stroke-width:1.0;"/><line style="stroke:#181818;stroke-width:1.0;" x1="426.5" x2="1329" y1="1017.5078" y2="1017.5078"/><text fill="#000000" font-family="sans-serif" font-size="13" lengthAdjust="spacing" textLength="206" x="433.5" y="1012.6514">Log successful authentication event</text><polygon fill="#181818" points="147.5,1043.8594,137.5,1047.8594,147.5,1051.8594,143.5,1047.8594" style="stroke:#181818;stroke-width:1.0;"/><line style="stroke:#181818;stroke-width:1.0;" x1="141.5" x2="425.5" y1="1047.8594" y2="1047.8594"/><text fill="#000000" font-family="sans-serif" font-size="13" lengthAdjust="spacing" textLength="149" x="153.5" y="1043.0029">Authentication successful</text><line style="stroke:#000000;stroke-width:1.0;stroke-dasharray:2.0,2.0;" x1="109" x2="1374.5" y1="1056.8594" y2="1056.8594"/><text fill="#000000" font-family="sans-serif" font-size="11" font-weight="bold" lengthAdjust="spacing" textLength="95" x="114" y="1068.2783">[No Match Found]</text><polygon fill="#181818" points="1323,1090.0469,1333,1094.0469,1323,1098.0469,1327,1094.0469" style="stroke:#181818;stroke-width:1.0;"/><line style="stroke:#181818;stroke-width:1.0;" x1="426.5" x2="1329" y1="1094.0469" y2="1094.0469"/><text fill="#000000" font-family="sans-serif" font-size="13" lengthAdjust="spacing" textLength="174" x="433.5" y="1089.1904">Log failed authentication event</text><polygon fill="#181818" points="147.5,1120.3984,137.5,1124.3984,147.5,1128.3984,143.5,1124.3984" style="stroke:#181818;stroke-width:1.0;"/><line style="stroke:#181818;stroke-width:1.0;" x1="141.5" x2="425.5" y1="1124.3984" y2="1124.3984"/><text fill="#000000" font-family="sans-serif" font-size="13" lengthAdjust="spacing" textLength="217" x="153.5" y="1119.542">Authentication failed, please try again</text><!--SRC=[xPLDZzCm48Rl-HMZ7bYGGDnxGEfkMuJ4btQN7p1D9gc5OmVRsRByUiOVQUnkGC2PmwuSp_lEZCTFKgoTDh3QDBrGmZg3_BW2j11sAepXBvRYhbzKrO36YLeCg1oixXwjepv4ux8CxuNgo0n6yCCTAPlInsKf_MneCBecEudInaL2GZSQWjrtxhQUsZq_bU9xwWU9Zk0jAPeFDstpxg-x_O2kFgPpftKftgB30reAYkrr6NolkowPULbLLt1_9B1XGd2WJYWBXqSEV-MIu3Wsycp1QR0agNQ02lJWUnPQLNxkyEfDcZ2iUNv1z6bImFETCbhAdhZuQzYCd55nDo7uegfGEiWKUwbF5S1LliS0EC53QNnVlY7CeM1rGABeubsoP6bOby8i36sluPQ-ZMGTjDbqRSq7R1akogtdSmOys7g3GxZjpEehn73UoYsnJe71Kr6cuJigMafCiMEdZgXgWcUWjEbHYXy4eiUEM3-f5YeaH7bCatXEVgRGfu_hefisiclPD4iNQYGTF50THp-NoD1bVSAwc0-u965Vhbwgi-oQgsslMRnf6b1qYe3oyLiX2Kx27NCFA_C2DrgrWgSQwCqpyil0OVz_ldYWXqjo8clhd4yxrdxmxIYN65iMaceY- -KBCV7_TwHYaUC_hNz0Q_fk1Y1w_ZxIEMa4oBA1UviuygKcoqAXteVyvvBze_IZzLSR3B3N8zyrm1DwsMi40pQxSuw3uuBTLEs9R0dYcRKBFCvCBr1s0MC1DabBy57_vbHpyHQvjURV2qV_InWaySyOECE_HnqAZxP_SVpVJm00]--></g></svg>