<?xml version="1.0" encoding="us-ascii" standalone="no"?><svg xmlns="http://www.w3.org/2000/svg" xmlns:xlink="http://www.w3.org/1999/xlink" contentStyleType="text/css" height="1011px" preserveAspectRatio="none" style="width:1143px;height:1011px;background:#FFFFFF;" version="1.1" viewBox="0 0 1143 1011" width="1143px" zoomAndPan="magnify"><defs/><g><ellipse cx="667.5" cy="16" fill="#222222" rx="10" ry="10" style="stroke:#222222;stroke-width:1.0;"/><g id="Idle"><rect fill="#F1F1F1" height="52.7031" rx="12.5" ry="12.5" style="stroke:#181818;stroke-width:0.5;" width="361" x="487" y="87"/><line style="stroke:#181818;stroke-width:0.5;" x1="487" x2="848" y1="114.6094" y2="114.6094"/><text fill="#000000" font-family="sans-serif" font-size="14" lengthAdjust="spacing" textLength="22" x="656.5" y="106.5332">Idle</text><text fill="#000000" font-family="sans-serif" font-size="12" lengthAdjust="spacing" textLength="341" x="492" y="132.0664">System is waiting for user action (authentication or enrollment)</text></g><path d="M19.5,218 L737,218 A12.5,12.5 0 0 1 749.5,230.5 L749.5,245.6094 L7,245.6094 L7,230.5 A12.5,12.5 0 0 1 19.5,218 " fill="#F1F1F1" style="stroke:#F1F1F1;stroke-width:1.0;"/><rect fill="none" height="787.6094" rx="12.5" ry="12.5" style="stroke:#181818;stroke-width:0.5;" width="742.5" x="7" y="218"/><line style="stroke:#181818;stroke-width:0.5;" x1="7" x2="749.5" y1="245.6094" y2="245.6094"/><text fill="#000000" font-family="sans-serif" font-size="14" lengthAdjust="spacing" textLength="145" x="305.75" y="237.5332">Authentication Process</text><ellipse cx="556.5" cy="266.6094" fill="#222222" rx="10" ry="10" style="stroke:#222222;stroke-width:1.0;"/><g id="Auth.Capturing"><rect fill="#F1F1F1" height="52.7031" rx="12.5" ry="12.5" style="stroke:#181818;stroke-width:0.5;" width="249" x="432" y="313.6094"/><line style="stroke:#181818;stroke-width:0.5;" x1="432" x2="681" y1="341.2188" y2="341.2188"/><text fill="#000000" font-family="sans-serif" font-size="14" lengthAdjust="spacing" textLength="62" x="525.5" y="333.1426">Capturing</text><text fill="#000000" font-family="sans-serif" font-size="12" lengthAdjust="spacing" textLength="229" x="437" y="358.6758">The sensor captures the user's fingerprint</text></g><g id="Auth.Preprocessing"><rect fill="#F1F1F1" height="52.7031" rx="12.5" ry="12.5" style="stroke:#181818;stroke-width:0.5;" width="206" x="386.5" y="420.6094"/><line style="stroke:#181818;stroke-width:0.5;" x1="386.5" x2="592.5" y1="448.2188" y2="448.2188"/><text fill="#000000" font-family="sans-serif" font-size="14" lengthAdjust="spacing" textLength="91" x="444" y="440.1426">Preprocessing</text><text fill="#000000" font-family="sans-serif" font-size="12" lengthAdjust="spacing" textLength="186" x="391.5" y="465.6758">Enhance image and reduce noise</text></g><g id="Auth.FeatureExtraction"><rect fill="#F1F1F1" height="52.7031" rx="12.5" ry="12.5" style="stroke:#181818;stroke-width:0.5;" width="248" x="319.5" y="527.6094"/><line style="stroke:#181818;stroke-width:0.5;" x1="319.5" x2="567.5" y1="555.2188" y2="555.2188"/><text fill="#000000" font-family="sans-serif" font-size="14" lengthAdjust="spacing" textLength="112" x="387.5" y="547.1426">FeatureExtraction</text><text fill="#000000" font-family="sans-serif" font-size="12" lengthAdjust="spacing" textLength="228" x="324.5" y="572.6758">Extract features from the fingerprint image</text></g><g id="Auth.Matching"><rect fill="#F1F1F1" height="52.7031" rx="12.5" ry="12.5" style="stroke:#181818;stroke-width:0.5;" width="260" x="232.5" y="634.6094"/><line style="stroke:#181818;stroke-width:0.5;" x1="232.5" x2="492.5" y1="662.2188" y2="662.2188"/><text fill="#000000" font-family="sans-serif" font-size="14" lengthAdjust="spacing" textLength="57" x="334" y="654.1426">Matching</text><text fill="#000000" font-family="sans-serif" font-size="12" lengthAdjust="spacing" textLength="240" x="237.5" y="679.6758">Compare features against stored templates</text></g><g id="Auth.Authenticated"><rect fill="#F1F1F1" height="52.7031" rx="12.5" ry="12.5" style="stroke:#181818;stroke-width:0.5;" width="195" x="19" y="812.6094"/><line style="stroke:#181818;stroke-width:0.5;" x1="19" x2="214" y1="840.2188" y2="840.2188"/><text fill="#000000" font-family="sans-serif" font-size="14" lengthAdjust="spacing" textLength="87" x="73" y="832.1426">Authenticated</text><text fill="#000000" font-family="sans-serif" font-size="12" lengthAdjust="spacing" textLength="175" x="24" y="857.6758">User authenticated successfully</text></g><g id="Auth.Failed"><rect fill="#F1F1F1" height="52.7031" rx="12.5" ry="12.5" style="stroke:#181818;stroke-width:0.5;" width="289" x="218" y="741.6094"/><line style="stroke:#181818;stroke-width:0.5;" x1="218" x2="507" y1="769.2188" y2="769.2188"/><text fill="#000000" font-family="sans-serif" font-size="14" lengthAdjust="spacing" textLength="39" x="343" y="761.1426">Failed</text><text fill="#000000" font-family="sans-serif" font-size="12" lengthAdjust="spacing" textLength="269" x="223" y="786.6758">Authentication failed; no matching template found</text></g><g id="Auth.Retry"><rect fill="#F1F1F1" height="52.7031" rx="12.5" ry="12.5" style="stroke:#181818;stroke-width:0.5;" width="211" x="437" y="883.6094"/><line style="stroke:#181818;stroke-width:0.5;" x1="437" x2="648" y1="911.2188" y2="911.2188"/><text fill="#000000" font-family="sans-serif" font-size="14" lengthAdjust="spacing" textLength="34" x="525.5" y="903.1426">Retry</text><text fill="#000000" font-family="sans-serif" font-size="12" lengthAdjust="spacing" textLength="191" x="442" y="928.6758">User reattempts fingerprint capture</text></g><g id="Auth.AuthFailure"><rect fill="#F1F1F1" height="52.7031" rx="12.5" ry="12.5" style="stroke:#181818;stroke-width:0.5;" width="198" x="141.5" y="883.6094"/><line style="stroke:#181818;stroke-width:0.5;" x1="141.5" x2="339.5" y1="911.2188" y2="911.2188"/><text fill="#000000" font-family="sans-serif" font-size="14" lengthAdjust="spacing" textLength="73" x="204" y="903.1426">AuthFailure</text><text fill="#000000" font-family="sans-serif" font-size="12" lengthAdjust="spacing" textLength="178" x="146.5" y="928.6758">Permanent authentication failure</text></g><ellipse cx="125.5" cy="984.6094" fill="none" rx="11" ry="11" style="stroke:#222222;stroke-width:1.0;"/><ellipse cx="125.5" cy="984.6094" fill="#222222" rx="6" ry="6" style="stroke:#222222;stroke-width:1.0;"/><!--link *start*Auth to Capturing--><g id="link_*start*Auth_Capturing"><path d="M556.5,276.6694 C556.5,285.9094 556.5,294.6894 556.5,307.5394 " fill="none" id="*start*Auth-to-Capturing" style="stroke:#181818;stroke-width:1.0;"/><polygon fill="#181818" points="556.5,313.5394,560.5,304.5394,556.5,308.5394,552.5,304.5394,556.5,313.5394" style="stroke:#181818;stroke-width:1.0;"/></g><!--link Capturing to Preprocessing--><g id="link_Capturing_Preprocessing"><path d="M506.54,366.8294 C500.56,371.9294 495.26,377.8394 491.5,384.6094 C485.54,395.3494 484.1692,402.8602 484.8692,414.4802 " fill="none" id="Capturing-to-Preprocessing" style="stroke:#181818;stroke-width:1.0;"/><polygon fill="#181818" points="485.23,420.4694,488.6816,411.2451,484.9293,415.4784,480.6961,411.7262,485.23,420.4694" style="stroke:#181818;stroke-width:1.0;"/><text fill="#000000" font-family="sans-serif" font-size="13" lengthAdjust="spacing" textLength="115" x="492.5" y="399.1045">Fingerprint captured</text></g><!--link Preprocessing to FeatureExtraction--><g id="link_Preprocessing_FeatureExtraction"><path d="M478.25,473.7994 C471.12,490.0694 464.3358,505.5428 457.2058,521.8328 " fill="none" id="Preprocessing-to-FeatureExtraction" style="stroke:#181818;stroke-width:1.0;"/><polygon fill="#181818" points="454.8,527.3294,462.0731,520.6884,456.8048,522.7489,454.7443,517.4807,454.8,527.3294" style="stroke:#181818;stroke-width:1.0;"/><text fill="#000000" font-family="sans-serif" font-size="13" lengthAdjust="spacing" textLength="117" x="469.5" y="506.1045">Image preprocessed</text></g><!--link FeatureExtraction to Matching--><g id="link_FeatureExtraction_Matching"><path d="M423.69,580.7994 C411.13,597.0694 398.6254,613.2892 386.0554,629.5792 " fill="none" id="FeatureExtraction-to-Matching" style="stroke:#181818;stroke-width:1.0;"/><polygon fill="#181818" points="382.39,634.3294,391.055,629.6477,385.4445,630.3709,384.7214,624.7604,382.39,634.3294" style="stroke:#181818;stroke-width:1.0;"/><text fill="#000000" font-family="sans-serif" font-size="13" lengthAdjust="spacing" textLength="109" x="408.5" y="613.1045">Features extracted</text></g><!--link Matching to Authenticated--><g id="link_Matching_Authenticated"><path d="M301.64,687.7794 C272.15,701.6094 237.04,720.2294 208.5,741.6094 C180.9,762.2894 158.1087,786.9864 140.6587,807.8564 " fill="none" id="Matching-to-Authenticated" style="stroke:#181818;stroke-width:1.0;"/><polygon fill="#181818" points="136.81,812.4594,145.6517,808.1207,140.0172,808.6235,139.5144,802.9891,136.81,812.4594" style="stroke:#181818;stroke-width:1.0;"/><text fill="#000000" font-family="sans-serif" font-size="13" lengthAdjust="spacing" textLength="71" x="267.5" y="720.1045">Match found</text></g><!--link Matching to Failed--><g id="link_Matching_Failed"><path d="M362.5,687.7994 C362.5,704.0694 362.5,719.0394 362.5,735.3294 " fill="none" id="Matching-to-Failed" style="stroke:#181818;stroke-width:1.0;"/><polygon fill="#181818" points="362.5,741.3294,366.5,732.3294,362.5,736.3294,358.5,732.3294,362.5,741.3294" style="stroke:#181818;stroke-width:1.0;"/><text fill="#000000" font-family="sans-serif" font-size="13" lengthAdjust="spacing" textLength="91" x="363.5" y="720.1045">No match found</text></g><!--link Failed to Retry--><g id="link_Failed_Retry"><path d="M396.31,794.8194 C402.18,800.2694 407.88,806.2994 412.5,812.6094 C427.67,833.3294 417.13,847.6694 435.5,865.6094 C442.67,872.6194 445.8806,875.6256 454.8406,880.6256 " fill="none" id="Failed-to-Retry" style="stroke:#181818;stroke-width:1.0;"/><polygon fill="#181818" points="460.08,883.5494,454.1701,875.6708,455.7138,881.1129,450.2717,882.6566,460.08,883.5494" style="stroke:#181818;stroke-width:1.0;"/><text fill="#000000" font-family="sans-serif" font-size="13" lengthAdjust="spacing" textLength="171" x="436.5" y="844.6045">Attempts &lt; MAX_ATTEMPTS</text></g><!--link Failed to AuthFailure--><g id="link_Failed_AuthFailure"><path d="M257.64,794.7294 C250.67,799.6794 244.47,805.5794 239.5,812.6094 C225.09,832.9894 226.4565,856.4894 231.2365,877.4594 " fill="none" id="Failed-to-AuthFailure" style="stroke:#181818;stroke-width:1.0;"/><polygon fill="#181818" points="232.57,883.3094,234.4698,873.6455,231.4588,878.4344,226.6698,875.4234,232.57,883.3094" style="stroke:#181818;stroke-width:1.0;"/><text fill="#000000" font-family="sans-serif" font-size="13" lengthAdjust="spacing" textLength="171" x="240.5" y="844.6045">Attempts = MAX_ATTEMPTS</text></g><!--link Retry to Capturing--><g id="link_Retry_Capturing"><path d="M592.21,883.3494 C598.51,878.2294 604.23,872.3294 608.5,865.6094 C631.74,829.0294 622.5,812.4494 622.5,769.1094 C622.5,446.1094 622.5,446.1094 622.5,446.1094 C622.5,418.0794 623.13,408.5194 608.5,384.6094 C604.51,378.0794 603.5684,376.1717 597.8584,370.8217 " fill="none" id="Retry-to-Capturing" style="stroke:#181818;stroke-width:1.0;"/><polygon fill="#181818" points="593.48,366.7194,597.3127,375.7919,597.1287,370.138,602.7825,369.954,593.48,366.7194" style="stroke:#181818;stroke-width:1.0;"/><text fill="#000000" font-family="sans-serif" font-size="13" lengthAdjust="spacing" textLength="116" x="623.5" y="613.1045">Retry authentication</text></g><!--link Authenticated to *end*Auth--><g id="link_Authenticated_*end*Auth"><path d="M118.11,865.7594 C120.12,897.8494 123.0951,945.2711 124.4851,967.4711 " fill="none" id="Authenticated-to-*end*Auth" style="stroke:#181818;stroke-width:1.0;"/><polygon fill="#181818" points="124.86,973.4594,128.2898,964.227,124.5475,968.4691,120.3054,964.7269,124.86,973.4594" style="stroke:#181818;stroke-width:1.0;"/></g><!--link AuthFailure to *end*Auth--><g id="link_AuthFailure_*end*Auth"><path d="M199.96,936.6694 C176.42,951.5094 153.7841,965.7673 139.7441,974.6273 " fill="none" id="AuthFailure-to-*end*Auth" style="stroke:#181818;stroke-width:1.0;"/><polygon fill="#181818" points="134.67,977.8294,144.4159,976.4091,138.8984,975.161,140.1465,969.6435,134.67,977.8294" style="stroke:#181818;stroke-width:1.0;"/></g><path d="M798,235.5 L1117,235.5 A12.5,12.5 0 0 1 1129.5,248 L1129.5,263.1094 L785.5,263.1094 L785.5,248 A12.5,12.5 0 0 1 798,235.5 " fill="#F1F1F1" style="stroke:#F1F1F1;stroke-width:1.0;"/><rect fill="none" height="752.6094" rx="12.5" ry="12.5" style="stroke:#181818;stroke-width:0.5;" width="344" x="785.5" y="235.5"/><line style="stroke:#181818;stroke-width:0.5;" x1="785.5" x2="1129.5" y1="263.1094" y2="263.1094"/><text fill="#000000" font-family="sans-serif" font-size="14" lengthAdjust="spacing" textLength="67" x="924" y="255.0332">Enrollment</text><ellipse cx="959" cy="284.1094" fill="#222222" rx="10" ry="10" style="stroke:#222222;stroke-width:1.0;"/><g id="Enrollment.Waiting"><rect fill="#F1F1F1" height="52.7031" rx="12.5" ry="12.5" style="stroke:#181818;stroke-width:0.5;" width="242" x="838" y="331.1094"/><line style="stroke:#181818;stroke-width:0.5;" x1="838" x2="1080" y1="358.7188" y2="358.7188"/><text fill="#000000" font-family="sans-serif" font-size="14" lengthAdjust="spacing" textLength="47" x="935.5" y="350.6426">Waiting</text><text fill="#000000" font-family="sans-serif" font-size="12" lengthAdjust="spacing" textLength="222" x="843" y="376.1758">Waiting for enrollment initiation by admin</text></g><g id="Enrollment.CapturingEnr"><rect fill="#F1F1F1" height="52.7031" rx="12.5" ry="12.5" style="stroke:#181818;stroke-width:0.5;" width="222" x="848" y="438.1094"/><line style="stroke:#181818;stroke-width:0.5;" x1="848" x2="1070" y1="465.7188" y2="465.7188"/><text fill="#000000" font-family="sans-serif" font-size="14" lengthAdjust="spacing" textLength="84" x="917" y="457.6426">CapturingEnr</text><text fill="#000000" font-family="sans-serif" font-size="12" lengthAdjust="spacing" textLength="202" x="853" y="483.1758">Admin places user finger on scanner</text></g><g id="Enrollment.PreprocessingEnr"><rect fill="#F1F1F1" height="52.7031" rx="12.5" ry="12.5" style="stroke:#181818;stroke-width:0.5;" width="169" x="874.5" y="545.1094"/><line style="stroke:#181818;stroke-width:0.5;" x1="874.5" x2="1043.5" y1="572.7188" y2="572.7188"/><text fill="#000000" font-family="sans-serif" font-size="14" lengthAdjust="spacing" textLength="113" x="902.5" y="564.6426">PreprocessingEnr</text><text fill="#000000" font-family="sans-serif" font-size="12" lengthAdjust="spacing" textLength="149" x="879.5" y="590.1758">Enhance enrollment image</text></g><g id="Enrollment.FeatureExtractionEnr"><rect fill="#F1F1F1" height="52.7031" rx="12.5" ry="12.5" style="stroke:#181818;stroke-width:0.5;" width="183" x="867.5" y="652.1094"/><line style="stroke:#181818;stroke-width:0.5;" x1="867.5" x2="1050.5" y1="679.7188" y2="679.7188"/><text fill="#000000" font-family="sans-serif" font-size="14" lengthAdjust="spacing" textLength="134" x="892" y="671.6426">FeatureExtractionEnr</text><text fill="#000000" font-family="sans-serif" font-size="12" lengthAdjust="spacing" textLength="163" x="872.5" y="697.1758">Extract features for enrollment</text></g><g id="Enrollment.TemplateGeneration"><rect fill="#F1F1F1" height="52.7031" rx="12.5" ry="12.5" style="stroke:#181818;stroke-width:0.5;" width="323" x="797.5" y="759.1094"/><line style="stroke:#181818;stroke-width:0.5;" x1="797.5" x2="1120.5" y1="786.7188" y2="786.7188"/><text fill="#000000" font-family="sans-serif" font-size="14" lengthAdjust="spacing" textLength="130" x="894" y="778.6426">TemplateGeneration</text><text fill="#000000" font-family="sans-serif" font-size="12" lengthAdjust="spacing" textLength="303" x="802.5" y="804.1758">Generate a new fingerprint template for user enrollment</text></g><g id="Enrollment.EnrollmentComplete"><rect fill="#F1F1F1" height="52.7031" rx="12.5" ry="12.5" style="stroke:#181818;stroke-width:0.5;" width="212" x="853" y="866.1094"/><line style="stroke:#181818;stroke-width:0.5;" x1="853" x2="1065" y1="893.7188" y2="893.7188"/><text fill="#000000" font-family="sans-serif" font-size="14" lengthAdjust="spacing" textLength="127" x="895.5" y="885.6426">EnrollmentComplete</text><text fill="#000000" font-family="sans-serif" font-size="12" lengthAdjust="spacing" textLength="192" x="858" y="911.1758">Enrollment completed successfully</text></g><ellipse cx="959" cy="967.1094" fill="none" rx="11" ry="11" style="stroke:#222222;stroke-width:1.0;"/><ellipse cx="959" cy="967.1094" fill="#222222" rx="6" ry="6" style="stroke:#222222;stroke-width:1.0;"/><!--link *start*Enrollment to Waiting--><g id="link_*start*Enrollment_Waiting"><path d="M959,294.1694 C959,303.4094 959,312.1894 959,325.0394 " fill="none" id="*start*Enrollment-to-Waiting" style="stroke:#181818;stroke-width:1.0;"/><polygon fill="#181818" points="959,331.0394,963,322.0394,959,326.0394,955,322.0394,959,331.0394" style="stroke:#181818;stroke-width:1.0;"/></g><!--link Waiting to CapturingEnr--><g id="link_Waiting_CapturingEnr"><path d="M959,384.2994 C959,400.5694 959,415.5394 959,431.8294 " fill="none" id="Waiting-to-CapturingEnr" style="stroke:#181818;stroke-width:1.0;"/><polygon fill="#181818" points="959,437.8294,963,428.8294,959,432.8294,955,428.8294,959,437.8294" style="stroke:#181818;stroke-width:1.0;"/><text fill="#000000" font-family="sans-serif" font-size="13" lengthAdjust="spacing" textLength="102" x="960" y="416.6045">Initiate enrollment</text></g><!--link CapturingEnr to PreprocessingEnr--><g id="link_CapturingEnr_PreprocessingEnr"><path d="M959,491.2994 C959,507.5694 959,522.5394 959,538.8294 " fill="none" id="CapturingEnr-to-PreprocessingEnr" style="stroke:#181818;stroke-width:1.0;"/><polygon fill="#181818" points="959,544.8294,963,535.8294,959,539.8294,955,535.8294,959,544.8294" style="stroke:#181818;stroke-width:1.0;"/><text fill="#000000" font-family="sans-serif" font-size="13" lengthAdjust="spacing" textLength="115" x="960" y="523.6045">Fingerprint captured</text></g><!--link PreprocessingEnr to FeatureExtractionEnr--><g id="link_PreprocessingEnr_FeatureExtractionEnr"><path d="M959,598.2994 C959,614.5694 959,629.5394 959,645.8294 " fill="none" id="PreprocessingEnr-to-FeatureExtractionEnr" style="stroke:#181818;stroke-width:1.0;"/><polygon fill="#181818" points="959,651.8294,963,642.8294,959,646.8294,955,642.8294,959,651.8294" style="stroke:#181818;stroke-width:1.0;"/><text fill="#000000" font-family="sans-serif" font-size="13" lengthAdjust="spacing" textLength="117" x="960" y="630.6045">Image preprocessed</text></g><!--link FeatureExtractionEnr to TemplateGeneration--><g id="link_FeatureExtractionEnr_TemplateGeneration"><path d="M959,705.2994 C959,721.5694 959,736.5394 959,752.8294 " fill="none" id="FeatureExtractionEnr-to-TemplateGeneration" style="stroke:#181818;stroke-width:1.0;"/><polygon fill="#181818" points="959,758.8294,963,749.8294,959,753.8294,955,749.8294,959,758.8294" style="stroke:#181818;stroke-width:1.0;"/><text fill="#000000" font-family="sans-serif" font-size="13" lengthAdjust="spacing" textLength="109" x="960" y="737.6045">Features extracted</text></g><!--link TemplateGeneration to EnrollmentComplete--><g id="link_TemplateGeneration_EnrollmentComplete"><path d="M959,812.2994 C959,828.5694 959,843.5394 959,859.8294 " fill="none" id="TemplateGeneration-to-EnrollmentComplete" style="stroke:#181818;stroke-width:1.0;"/><polygon fill="#181818" points="959,865.8294,963,856.8294,959,860.8294,955,856.8294,959,865.8294" style="stroke:#181818;stroke-width:1.0;"/><text fill="#000000" font-family="sans-serif" font-size="13" lengthAdjust="spacing" textLength="114" x="960" y="844.6045">Template generated</text></g><!--link EnrollmentComplete to *end*Enrollment--><g id="link_EnrollmentComplete_*end*Enrollment"><path d="M959,919.3694 C959,932.0694 959,940.6494 959,950.0994 " fill="none" id="EnrollmentComplete-to-*end*Enrollment" style="stroke:#181818;stroke-width:1.0;"/><polygon fill="#181818" points="959,956.0994,963,947.0994,959,951.0994,955,947.0994,959,956.0994" style="stroke:#181818;stroke-width:1.0;"/></g><!--link *start* to Idle--><g id="link_*start*_Idle"><path d="M667.5,26.16 C667.5,39.98 667.5,60.67 667.5,80.74 " fill="none" id="*start*-to-Idle" style="stroke:#181818;stroke-width:1.0;"/><polygon fill="#181818" points="667.5,86.74,671.5,77.74,667.5,81.74,663.5,77.74,667.5,86.74" style="stroke:#181818;stroke-width:1.0;"/></g><!--link Idle to Auth--><g id="link_Idle_Auth"><path d="M652.57,140.15 C641.85,158.57 629.0387,180.5747 610.2987,212.7647 " fill="none" id="Idle-to-Auth" style="stroke:#181818;stroke-width:1.0;"/><polygon fill="#181818" points="607.28,217.95,615.2649,212.1845,609.7956,213.6289,608.3512,208.1596,607.28,217.95" style="stroke:#181818;stroke-width:1.0;"/><text fill="#000000" font-family="sans-serif" font-size="13" lengthAdjust="spacing" textLength="161" x="633.5" y="184.4951">User initiates authentication</text></g><!--link Idle to Enrollment--><g id="link_Idle_Enrollment"><path d="M760.84,140.16 C776.59,147.76 791.65,157.52 803.5,170 C822.21,189.7 835.5186,206.6781 849.9786,230.2081 " fill="none" id="Idle-to-Enrollment" style="stroke:#181818;stroke-width:1.0;"/><polygon fill="#181818" points="853.12,235.32,851.8158,225.5579,850.5021,231.0601,844.9999,229.7465,853.12,235.32" style="stroke:#181818;stroke-width:1.0;"/><text fill="#000000" font-family="sans-serif" font-size="13" lengthAdjust="spacing" textLength="150" x="812.5" y="184.4951">Admin initiates enrollment</text></g><!--SRC=[bLNRQjj047ttLmnvSLlm3xWNS8DTyk1W6fKKGWaRQMGBf9NONU66qd_lp5waNKcK5l8GpPvpvhApnq_lVi1cymdkYXfNAss4GVi_RE7XLHjieD9m5PMfv1dALa6lKO78JTLAU2DwSq5fgbpORpf6gTgwRYZuThLQa_G6xf5q2jYbs4FTNldOvxoP79zKcwFMDo2qPSAl5S2JB_PMTAPNL17577s8KDtP1K6Zr5HDRiEeWRHjvMiD9Q5GTGGsH1-9B7nIsBd4JkemOeDMCUISWlVo8cIEK3NYZ21a0OJkAI3RIYFHKWBdEw1WpVrFe_n8jt1dwTs0ZJ8kmVq7bEwC-bDjO_kD6dKraSvSWSiu2fDVVCT11XqaoXwXRjkc4mh7fE8iAgaD8Ljg6cXlkfeuciW3ZJD5jqomhJkalUfbCOKUH5LRp7qBJG8RAfggVRExcGHrd_CGoxwkNySv1kd9qfKs_fukp6NaKa8hSVOrV5PqrVRSZjiBlWYwBI0XOPX6EqCStZ9_pcrzHQDUERM3QFW0nzttvrsMxO-dx245SttyIJEEAH-dbA6pe6udeL04HZbVPE8uTFAYYEkYwTEUJdqiweIg4PAG4uOTfaj3V-bDSKPwopuUj4BqzyGuzeEbJ4qZEedjuT7PrL2m_wPY7oCZ6vqAAabXL_KBTLuq5JSSmCbyA2M_KKV0I6HkHGwwOpMW5Q8rTERfxeBNHET2IbIn3J5fvaHEwT_DoE637yMDUXkOeHVDoFVw7txa4yyiAHdtaWs56ZB_shuWpKLuY_kB9otY_GTvC4Yy9hiVlMR_KvRKjI37LOrxniPNe-753rWu-tHZLOluQ5bp7vtPqm9nzYeoiXvTSMtUw-tFDJyA_u-pZM02VhVPezCNFQ2ZmiAwZgHeF7y0]--></g></svg>