<?xml version="1.0" encoding="us-ascii" standalone="no"?><svg xmlns="http://www.w3.org/2000/svg" xmlns:xlink="http://www.w3.org/1999/xlink" contentStyleType="text/css" height="506px" preserveAspectRatio="none" style="width:1754px;height:506px;background:#FFFFFF;" version="1.1" viewBox="0 0 1754 506" width="1754px" zoomAndPan="magnify"><defs/><g><!--cluster Fingerprint Recognition System--><g id="cluster_Fingerprint Recognition System"><rect fill="none" height="373.5" rx="2.5" ry="2.5" style="stroke:#181818;stroke-width:1.0;" width="1688" x="60.46" y="126.5"/><text fill="#000000" font-family="Arial" font-size="12" font-weight="bold" lengthAdjust="spacing" textLength="177" x="815.96" y="139.9521">Fingerprint Recognition System</text></g><!--cluster User Profile Management--><g id="cluster_User Profile Management"><path d="M1269.96,170 L1414.96,170 A3.75,3.75 0 0 1 1417.46,172.5 L1424.46,189.7988 L1721.96,189.7988 A2.5,2.5 0 0 1 1724.46,192.2988 L1724.46,365 A2.5,2.5 0 0 1 1721.96,367.5 L1269.96,367.5 A2.5,2.5 0 0 1 1267.46,365 L1267.46,172.5 A2.5,2.5 0 0 1 1269.96,170 " fill="none" style="stroke:#000000;stroke-width:1.5;"/><line style="stroke:#000000;stroke-width:1.5;" x1="1267.46" x2="1424.46" y1="189.7988" y2="189.7988"/><text fill="#000000" font-family="Arial" font-size="12" font-weight="bold" lengthAdjust="spacing" textLength="144" x="1271.46" y="183.4521">User Profile Management</text></g><!--cluster User Authentication--><g id="cluster_User Authentication"><path d="M1023.96,166.5 L1136.96,166.5 A3.75,3.75 0 0 1 1139.46,169 L1146.46,186.2988 L1240.96,186.2988 A2.5,2.5 0 0 1 1243.46,188.7988 L1243.46,473.5 A2.5,2.5 0 0 1 1240.96,476 L1023.96,476 A2.5,2.5 0 0 1 1021.46,473.5 L1021.46,169 A2.5,2.5 0 0 1 1023.96,166.5 " fill="none" style="stroke:#000000;stroke-width:1.5;"/><line style="stroke:#000000;stroke-width:1.5;" x1="1021.46" x2="1146.46" y1="186.2988" y2="186.2988"/><text fill="#000000" font-family="Arial" font-size="12" font-weight="bold" lengthAdjust="spacing" textLength="112" x="1025.46" y="179.9521">User Authentication</text></g><!--cluster Audit and Reporting--><g id="cluster_Audit and Reporting"><path d="M616.96,168 L728.96,168 A3.75,3.75 0 0 1 731.46,170.5 L738.46,187.7988 L994.96,187.7988 A2.5,2.5 0 0 1 997.46,190.2988 L997.46,253.5 A2.5,2.5 0 0 1 994.96,256 L616.96,256 A2.5,2.5 0 0 1 614.46,253.5 L614.46,170.5 A2.5,2.5 0 0 1 616.96,168 " fill="none" style="stroke:#000000;stroke-width:1.5;"/><line style="stroke:#000000;stroke-width:1.5;" x1="614.46" x2="738.46" y1="187.7988" y2="187.7988"/><text fill="#000000" font-family="Arial" font-size="12" font-weight="bold" lengthAdjust="spacing" textLength="111" x="618.46" y="181.4521">Audit and Reporting</text></g><!--cluster System Maintenance--><g id="cluster_System Maintenance"><path d="M240.96,170 L360.96,170 A3.75,3.75 0 0 1 363.46,172.5 L370.46,189.7988 L587.96,189.7988 A2.5,2.5 0 0 1 590.46,192.2988 L590.46,251.5 A2.5,2.5 0 0 1 587.96,254 L240.96,254 A2.5,2.5 0 0 1 238.46,251.5 L238.46,172.5 A2.5,2.5 0 0 1 240.96,170 " fill="none" style="stroke:#000000;stroke-width:1.5;"/><line style="stroke:#000000;stroke-width:1.5;" x1="238.46" x2="370.46" y1="189.7988" y2="189.7988"/><text fill="#000000" font-family="Arial" font-size="12" font-weight="bold" lengthAdjust="spacing" textLength="119" x="242.46" y="183.4521">System Maintenance</text></g><g id="elem_UC1"><ellipse cx="148.3051" cy="220.169" fill="#F1F1F1" rx="71.3451" ry="16.669" style="stroke:#181818;stroke-width:0.5;"/><text fill="#000000" font-family="Arial" font-size="12" lengthAdjust="spacing" textLength="106" x="95.3051" y="222.7217">Capture Fingerprint</text></g><g id="elem_UC1a"><ellipse cx="156.603" cy="335.4286" fill="#F1F1F1" rx="80.143" ry="18.4286" style="stroke:#181818;stroke-width:0.5;"/><text fill="#000000" font-family="Arial" font-size="12" lengthAdjust="spacing" textLength="126" x="93.603" y="337.9813">Preprocess Fingerprint</text></g><g id="elem_UC1b"><ellipse cx="156.7058" cy="444.6492" fill="#F1F1F1" rx="63.7458" ry="15.1492" style="stroke:#181818;stroke-width:0.5;"/><text fill="#000000" font-family="Arial" font-size="12" lengthAdjust="spacing" textLength="88" x="112.7058" y="447.2019">Extract Features</text></g><g id="elem_UC4"><ellipse cx="1421.489" cy="219.8058" fill="#F1F1F1" rx="77.029" ry="17.8058" style="stroke:#181818;stroke-width:0.5;"/><text fill="#000000" font-family="Arial" font-size="12" lengthAdjust="spacing" textLength="119" x="1361.989" y="222.3585">Manage User Profiles</text></g><g id="elem_UC2"><ellipse cx="1337.547" cy="335.6174" fill="#F1F1F1" rx="53.587" ry="13.1174" style="stroke:#181818;stroke-width:0.5;"/><text fill="#000000" font-family="Arial" font-size="12" lengthAdjust="spacing" textLength="62" x="1306.547" y="338.1701">Enroll User</text></g><g id="elem_UC4a"><ellipse cx="1494.3075" cy="335.5695" fill="#F1F1F1" rx="68.3475" ry="16.0695" style="stroke:#181818;stroke-width:0.5;"/><text fill="#000000" font-family="Arial" font-size="12" lengthAdjust="spacing" textLength="99" x="1444.8075" y="338.1222">Update User Data</text></g><g id="elem_UC4b"><ellipse cx="1653.5277" cy="335.4135" fill="#F1F1F1" rx="55.0677" ry="13.4135" style="stroke:#181818;stroke-width:0.5;"/><text fill="#000000" font-family="Arial" font-size="12" lengthAdjust="spacing" textLength="66" x="1620.5277" y="337.9663">Delete User</text></g><g id="elem_UC3"><ellipse cx="1118.4604" cy="335.4001" fill="#F1F1F1" rx="67.5004" ry="15.9001" style="stroke:#181818;stroke-width:0.5;"/><text fill="#000000" font-family="Arial" font-size="12" lengthAdjust="spacing" textLength="97" x="1069.9604" y="337.9528">Authenticate User</text></g><g id="elem_UC3a"><ellipse cx="1118.698" cy="444.6476" fill="#F1F1F1" rx="66.238" ry="15.6476" style="stroke:#181818;stroke-width:0.5;"/><text fill="#000000" font-family="Arial" font-size="12" lengthAdjust="spacing" textLength="94" x="1071.698" y="447.2003">Match Fingerprint</text></g><g id="elem_UC3b"><ellipse cx="1132.2305" cy="219.7541" fill="#F1F1F1" rx="94.2705" ry="21.2541" style="stroke:#181818;stroke-width:0.5;"/><text fill="#000000" font-family="Arial" font-size="12" lengthAdjust="spacing" textLength="157" x="1053.7305" y="222.3068">Handle Failed Authentication</text></g><g id="elem_UC5"><ellipse cx="912.6589" cy="220.2398" fill="#F1F1F1" rx="69.1989" ry="16.2398" style="stroke:#181818;stroke-width:0.5;"/><text fill="#000000" font-family="Arial" font-size="12" lengthAdjust="spacing" textLength="101" x="862.1589" y="222.7925">Review Audit Logs</text></g><g id="elem_UC5a"><ellipse cx="719.248" cy="220.0576" fill="#F1F1F1" rx="88.288" ry="20.0576" style="stroke:#181818;stroke-width:0.5;"/><text fill="#000000" font-family="Arial" font-size="12" lengthAdjust="spacing" textLength="144" x="647.248" y="222.6103">Generate Security Reports</text></g><g id="elem_UC6"><ellipse cx="509.5315" cy="219.8143" fill="#F1F1F1" rx="64.5715" ry="15.3143" style="stroke:#181818;stroke-width:0.5;"/><text fill="#000000" font-family="Arial" font-size="12" lengthAdjust="spacing" textLength="90" x="464.5315" y="222.367">Maintain System</text></g><g id="elem_UC6a"><ellipse cx="332.4318" cy="219.8944" fill="#F1F1F1" rx="77.4718" ry="17.8944" style="stroke:#181818;stroke-width:0.5;"/><text fill="#000000" font-family="Arial" font-size="12" lengthAdjust="spacing" textLength="120" x="272.4318" y="222.4471">Monitor Security Alerts</text></g><!--entity user--><g id="elem_user"><ellipse cx="65.46" cy="14" fill="#F1F1F1" rx="8" ry="8" style="stroke:#181818;stroke-width:0.5;"/><path d="M65.46,22 L65.46,49 M52.46,30 L78.46,30 M65.46,49 L52.46,64 M65.46,49 L78.46,64 " fill="none" style="stroke:#181818;stroke-width:0.5;"/><text fill="#000000" font-family="Arial" font-size="12" lengthAdjust="spacing" textLength="27" x="51.96" y="76.9521">User</text></g><!--entity admin--><g id="elem_admin"><ellipse cx="1526.46" cy="14" fill="#F1F1F1" rx="8" ry="8" style="stroke:#181818;stroke-width:0.5;"/><path d="M1526.46,22 L1526.46,49 M1513.46,30 L1539.46,30 M1526.46,49 L1513.46,64 M1526.46,49 L1539.46,64 " fill="none" style="stroke:#181818;stroke-width:0.5;"/><text fill="#000000" font-family="Arial" font-size="12" lengthAdjust="spacing" textLength="117" x="1467.96" y="76.9521">System Administrator</text></g><!--entity secOfficer--><g id="elem_secOfficer"><ellipse cx="332.46" cy="14" fill="#F1F1F1" rx="8" ry="8" style="stroke:#181818;stroke-width:0.5;"/><path d="M332.46,22 L332.46,49 M319.46,30 L345.46,30 M332.46,49 L319.46,64 M332.46,49 L345.46,64 " fill="none" style="stroke:#181818;stroke-width:0.5;"/><text fill="#000000" font-family="Arial" font-size="12" lengthAdjust="spacing" textLength="81" x="291.96" y="76.9521">Security Officer</text></g><!--link user to UC1--><g id="link_user_UC1"><path d="M78.98,72.09 C96.71,109.58 124.6352,168.6158 138.5652,198.0758 " fill="none" id="user-to-UC1" style="stroke:#181818;stroke-width:1.0;"/><polygon fill="#181818" points="141.13,203.5,140.8989,193.6539,138.9927,198.9798,133.6667,197.0736,141.13,203.5" style="stroke:#181818;stroke-width:1.0;"/></g><!--link user to UC3--><g id="link_user_UC3"><path d="M51.95,76.34 C32.86,128.69 6,230.85 60.46,287 C98.66,326.38 993.11,309.56 1047.46,317 C1057.15,318.33 1061.5938,319.0475 1071.2338,321.3475 " fill="none" id="user-to-UC3" style="stroke:#181818;stroke-width:1.0;"/><polygon fill="#181818" points="1077.07,322.74,1069.244,316.7605,1072.2065,321.5796,1067.3874,324.5421,1077.07,322.74" style="stroke:#181818;stroke-width:1.0;"/></g><!--link admin to UC4--><g id="link_admin_UC4"><path d="M1504.71,79.86 C1482.36,117.21 1451.62,168.5908 1434.8,196.7108 " fill="none" id="admin-to-UC4" style="stroke:#181818;stroke-width:1.0;"/><polygon fill="#181818" points="1431.72,201.86,1439.7727,196.1896,1434.2866,197.569,1432.9072,192.083,1431.72,201.86" style="stroke:#181818;stroke-width:1.0;"/></g><!--link admin to UC2--><g id="link_admin_UC2"><path d="M1539.21,79.83 C1559.19,139.82 1593.11,256.06 1567.46,287 C1544.51,314.68 1443.6,309.36 1408.46,317 C1396.55,319.59 1389.4129,321.2531 1377.8629,324.1231 " fill="none" id="admin-to-UC2" style="stroke:#181818;stroke-width:1.0;"/><polygon fill="#181818" points="1372.04,325.57,1381.739,327.2816,1376.8924,324.3642,1379.8098,319.5177,1372.04,325.57" style="stroke:#181818;stroke-width:1.0;"/></g><!--link admin to UC4a--><g id="link_admin_UC4a"><path d="M1565.65,79.79 C1573.34,88.79 1580.54,98.91 1585.46,109.5 C1618.99,181.64 1652.59,220.81 1608.46,287 C1594.96,307.25 1576.7819,317.1726 1554.3119,323.8426 " fill="none" id="admin-to-UC4a" style="stroke:#181818;stroke-width:1.0;"/><polygon fill="#181818" points="1548.56,325.55,1558.3262,326.8235,1553.3533,324.1272,1556.0496,319.1543,1548.56,325.55" style="stroke:#181818;stroke-width:1.0;"/></g><!--link admin to UC4b--><g id="link_admin_UC4b"><path d="M1585.15,70.62 C1604.4,82.52 1623.82,98.43 1635.46,118.5 C1674.73,186.2 1663.0985,280.5688 1656.9685,315.7988 " fill="none" id="admin-to-UC4b" style="stroke:#181818;stroke-width:1.0;"/><polygon fill="#181818" points="1655.94,321.71,1661.4236,313.5289,1656.7971,316.784,1653.542,312.1575,1655.94,321.71" style="stroke:#181818;stroke-width:1.0;"/></g><!--link admin to UC5--><g id="link_admin_UC5"><path d="M1467.83,47.86 C1352.27,57.15 1099.52,81.16 1021.46,118.5 C978.97,138.82 945.2502,176.7426 927.3502,199.3926 " fill="none" id="admin-to-UC5" style="stroke:#181818;stroke-width:1.0;"/><polygon fill="#181818" points="923.63,204.1,932.3486,199.519,926.7302,200.1771,926.072,194.5587,923.63,204.1" style="stroke:#181818;stroke-width:1.0;"/></g><!--link admin to UC6--><g id="link_admin_UC6"><path d="M1467.89,43.26 C1291.46,43.33 767.85,49.49 614.46,118.5 C571.89,137.65 539.5332,176.7534 522.9132,199.6634 " fill="none" id="admin-to-UC6" style="stroke:#181818;stroke-width:1.0;"/><polygon fill="#181818" points="519.39,204.52,527.9126,199.5839,522.326,200.4728,521.4371,194.8862,519.39,204.52" style="stroke:#181818;stroke-width:1.0;"/></g><!--link secOfficer to UC6a--><g id="link_secOfficer_UC6a"><path d="M332.46,79.86 C332.46,117.21 332.46,167.74 332.46,195.86 " fill="none" id="secOfficer-to-UC6a" style="stroke:#181818;stroke-width:1.0;"/><polygon fill="#181818" points="332.46,201.86,336.46,192.86,332.46,196.86,328.46,192.86,332.46,201.86" style="stroke:#181818;stroke-width:1.0;"/></g><!--link UC1 to UC1a--><g id="link_UC1_UC1a"><path d="M149.57,236.78 C151.06,257.86 153.2568,289.0849 154.8068,311.0049 " fill="none" id="UC1-to-UC1a" style="stroke:#181818;stroke-width:1.0;stroke-dasharray:7.0,7.0;"/><polygon fill="#181818" points="155.23,316.99,158.5852,307.7303,154.8773,312.0025,150.6051,308.2946,155.23,316.99" style="stroke:#181818;stroke-width:1.0;"/><text fill="#000000" font-family="Arial" font-size="12" lengthAdjust="spacing" textLength="54" x="153.46" y="284.4521">&#171;include&#187;</text></g><!--link UC1a to UC1b--><g id="link_UC1a_UC1b"><path d="M156.46,354.17 C156.46,375.18 156.46,403.84 156.46,423.23 " fill="none" id="UC1a-to-UC1b" style="stroke:#181818;stroke-width:1.0;stroke-dasharray:7.0,7.0;"/><polygon fill="#181818" points="156.46,429.23,160.46,420.23,156.46,424.23,152.46,420.23,156.46,429.23" style="stroke:#181818;stroke-width:1.0;"/><text fill="#000000" font-family="Arial" font-size="12" lengthAdjust="spacing" textLength="54" x="157.46" y="396.4521">&#171;include&#187;</text></g><!--link UC3 to UC3a--><g id="link_UC3_UC3a"><path d="M1118.46,351.83 C1118.46,372.4 1118.46,402.68 1118.46,422.88 " fill="none" id="UC3-to-UC3a" style="stroke:#181818;stroke-width:1.0;stroke-dasharray:7.0,7.0;"/><polygon fill="#181818" points="1118.46,428.88,1122.46,419.88,1118.46,423.88,1114.46,419.88,1118.46,428.88" style="stroke:#181818;stroke-width:1.0;"/><text fill="#000000" font-family="Arial" font-size="12" lengthAdjust="spacing" textLength="54" x="1119.46" y="396.4521">&#171;include&#187;</text></g><!--link UC3b to UC3--><g id="link_UC3b_UC3"><path d="M1129.93,241.55 C1127.17,263.91 1123.5536,293.185 1121.0836,313.235 " fill="none" id="UC3b-to-UC3" style="stroke:#181818;stroke-width:1.0;stroke-dasharray:7.0,7.0;"/><polygon fill="#181818" points="1120.35,319.19,1125.4204,310.7466,1120.9613,314.2275,1117.4804,309.7685,1120.35,319.19" style="stroke:#181818;stroke-width:1.0;"/><text fill="#000000" font-family="Arial" font-size="12" lengthAdjust="spacing" textLength="50" x="1126.46" y="284.4521">&#171;extend&#187;</text></g><!--link UC4 to UC2--><g id="link_UC4_UC2"><path d="M1384.32,235.92 C1368.72,244.16 1352.01,256.03 1342.46,272 C1333.19,287.51 1333.1244,303.2328 1334.7244,316.5528 " fill="none" id="UC4-to-UC2" style="stroke:#181818;stroke-width:1.0;stroke-dasharray:7.0,7.0;"/><polygon fill="#181818" points="1335.44,322.51,1338.3381,313.0972,1334.8437,317.5457,1330.3952,314.0513,1335.44,322.51" style="stroke:#181818;stroke-width:1.0;"/><text fill="#000000" font-family="Arial" font-size="12" lengthAdjust="spacing" textLength="54" x="1343.46" y="284.4521">&#171;include&#187;</text></g><!--link UC4 to UC4a--><g id="link_UC4_UC4a"><path d="M1413.14,238.12 C1407.61,252.15 1402.8,272.06 1411.46,287 C1421.04,303.52 1433.2788,312.3395 1449.8988,319.7395 " fill="none" id="UC4-to-UC4a" style="stroke:#181818;stroke-width:1.0;stroke-dasharray:7.0,7.0;"/><polygon fill="#181818" points="1455.38,322.18,1448.7851,314.8651,1450.8123,320.1462,1445.5311,322.1734,1455.38,322.18" style="stroke:#181818;stroke-width:1.0;"/><text fill="#000000" font-family="Arial" font-size="12" lengthAdjust="spacing" textLength="54" x="1412.46" y="284.4521">&#171;include&#187;</text></g><!--link UC4 to UC4b--><g id="link_UC4_UC4b"><path d="M1453.23,236.54 C1500.52,259.68 1582.9107,299.9827 1624.7407,320.4527 " fill="none" id="UC4-to-UC4b" style="stroke:#181818;stroke-width:1.0;stroke-dasharray:7.0,7.0;"/><polygon fill="#181818" points="1630.13,323.09,1623.8043,315.5412,1625.6389,320.8922,1620.2878,322.7269,1630.13,323.09" style="stroke:#181818;stroke-width:1.0;"/><text fill="#000000" font-family="Arial" font-size="12" lengthAdjust="spacing" textLength="54" x="1551.46" y="284.4521">&#171;include&#187;</text></g><!--SRC=[TLDDRzim3BthLn2vz9G2ZTCSXYA0cpRROTsA5Fa1Z4mdGct9aEIbtT3_FifVjHqNI02JV7nyf4ZtgdI15dD8ACKoyrkZ_I_C2MQnLPZDX9j2lAY_13SB8L1wOs6sTsHdW0vA_cYTB-_EKmvnaYkjdBV8tWg4mTEXI9PM-NVudQPADZIEP6CAOKbwrCUC9MsLFf8jhD8UTYJDKIklZ8QwqWp-2GWA93e6Rx3mfINe9LNS-yrD7_PigR16adDJIEn37z-u2UbXInYONGiwC8X_1SfNF58z3NYs9bKi-WarEtCAd45VZwyEGH_USYw7o4TjJPP1D-RzPZ44x8i4VKFrW1vR6Xp27YYZ1jOYWlYFgGRYqfzOjP8OPdmXlXSU44RZ7hqyJKms6YdxWJhXQMsHXv1SrAvJfgJ6PQ8yS38lH66ivq8NKdVqHz4PQkXFSso7V3k4VITDDdJJhMHDsS5nedwpv4_8hP56BMdYcJd6_svDAxRL26Hub_aUkjfnHf-bLtNf3o6kO3wVGnnknuLF4IwEFzRLNlUCY8ypt5bZBWVMOXZ3eNaOcBS3QoN4vt6sFcnrxIYhNioTLE7WdloPI8VjW0rtMGk-Wet9SxxQj7VDpGco1mfLKAOq2Mu8hg-hnX2-mTsTqZ8h4rglHULgOeTHZ0iCrmVIp9mv9MeoeakswD36gX2zyLicDTSNnzoIBfl4nGLd6rdYrw6nzly0]--></g></svg>