<?xml version="1.0" encoding="us-ascii" standalone="no"?><svg xmlns="http://www.w3.org/2000/svg" xmlns:xlink="http://www.w3.org/1999/xlink" contentStyleType="text/css" height="487px" preserveAspectRatio="none" style="width:1885px;height:487px;background:#FFFFFF;" version="1.1" viewBox="0 0 1885 487" width="1885px" zoomAndPan="magnify"><defs/><g><!--cluster Fingerprint Recognition System--><g id="cluster_Fingerprint Recognition System"><rect fill="none" height="355" rx="2.5" ry="2.5" style="stroke:#181818;stroke-width:1.0;" width="1872" x="7" y="126.5"/><text fill="#000000" font-family="Arial" font-size="12" font-weight="bold" lengthAdjust="spacing" textLength="177" x="854.5" y="139.7559">Fingerprint Recognition System</text></g><!--cluster User Profile Management--><g id="cluster_User Profile Management"><path d="M617.5,168.5 L762.5,168.5 A3.75,3.75 0 0 1 765,171 L772,188.2988 L1069.5,188.2988 A2.5,2.5 0 0 1 1072,190.7988 L1072,366.5 A2.5,2.5 0 0 1 1069.5,369 L617.5,369 A2.5,2.5 0 0 1 615,366.5 L615,171 A2.5,2.5 0 0 1 617.5,168.5 " fill="none" style="stroke:#000000;stroke-width:1.5;"/><line style="stroke:#000000;stroke-width:1.5;" x1="615" x2="772" y1="188.2988" y2="188.2988"/><text fill="#000000" font-family="Arial" font-size="12" font-weight="bold" lengthAdjust="spacing" textLength="144" x="619" y="181.7559">User Profile Management</text></g><!--cluster User Authentication--><g id="cluster_User Authentication"><path d="M204.5,170.5 L317.5,170.5 A3.75,3.75 0 0 1 320,173 L327,190.2988 L588.5,190.2988 A2.5,2.5 0 0 1 591,192.7988 L591,372 A2.5,2.5 0 0 1 588.5,374.5 L204.5,374.5 A2.5,2.5 0 0 1 202,372 L202,173 A2.5,2.5 0 0 1 204.5,170.5 " fill="none" style="stroke:#000000;stroke-width:1.5;"/><line style="stroke:#000000;stroke-width:1.5;" x1="202" x2="327" y1="190.2988" y2="190.2988"/><text fill="#000000" font-family="Arial" font-size="12" font-weight="bold" lengthAdjust="spacing" textLength="112" x="206" y="183.7559">User Authentication</text></g><!--cluster Audit and Reporting--><g id="cluster_Audit and Reporting"><path d="M1098.5,166.5 L1210.5,166.5 A3.75,3.75 0 0 1 1213,169 L1220,186.2988 L1476.5,186.2988 A2.5,2.5 0 0 1 1479,188.7988 L1479,252 A2.5,2.5 0 0 1 1476.5,254.5 L1098.5,254.5 A2.5,2.5 0 0 1 1096,252 L1096,169 A2.5,2.5 0 0 1 1098.5,166.5 " fill="none" style="stroke:#000000;stroke-width:1.5;"/><line style="stroke:#000000;stroke-width:1.5;" x1="1096" x2="1220" y1="186.2988" y2="186.2988"/><text fill="#000000" font-family="Arial" font-size="12" font-weight="bold" lengthAdjust="spacing" textLength="111" x="1100" y="179.7559">Audit and Reporting</text></g><!--cluster System Maintenance--><g id="cluster_System Maintenance"><path d="M1505.5,168.5 L1625.5,168.5 A3.75,3.75 0 0 1 1628,171 L1635,188.2988 L1852.5,188.2988 A2.5,2.5 0 0 1 1855,190.7988 L1855,250 A2.5,2.5 0 0 1 1852.5,252.5 L1505.5,252.5 A2.5,2.5 0 0 1 1503,250 L1503,171 A2.5,2.5 0 0 1 1505.5,168.5 " fill="none" style="stroke:#000000;stroke-width:1.5;"/><line style="stroke:#000000;stroke-width:1.5;" x1="1503" x2="1635" y1="188.2988" y2="188.2988"/><text fill="#000000" font-family="Arial" font-size="12" font-weight="bold" lengthAdjust="spacing" textLength="119" x="1507" y="181.7559">System Maintenance</text></g><g id="elem_UC1"><ellipse cx="107.8451" cy="218.669" fill="#F1F1F1" rx="71.3451" ry="16.669" style="stroke:#181818;stroke-width:0.5;"/><text fill="#000000" font-family="Arial" font-size="12" lengthAdjust="spacing" textLength="106" x="54.8451" y="221.0255">Capture Fingerprint</text></g><g id="elem_UC1a"><ellipse cx="103.143" cy="336.9286" fill="#F1F1F1" rx="80.143" ry="18.4286" style="stroke:#181818;stroke-width:0.5;"/><text fill="#000000" font-family="Arial" font-size="12" lengthAdjust="spacing" textLength="126" x="40.143" y="339.2851">Preprocess Fingerprint</text></g><g id="elem_UC1b"><ellipse cx="103.2458" cy="450.6492" fill="#F1F1F1" rx="63.7458" ry="15.1492" style="stroke:#181818;stroke-width:0.5;"/><text fill="#000000" font-family="Arial" font-size="12" lengthAdjust="spacing" textLength="88" x="59.2458" y="453.0056">Extract Features</text></g><g id="elem_UC4"><ellipse cx="918.029" cy="218.3058" fill="#F1F1F1" rx="77.029" ry="17.8058" style="stroke:#181818;stroke-width:0.5;"/><text fill="#000000" font-family="Arial" font-size="12" lengthAdjust="spacing" textLength="119" x="858.529" y="220.6623">Manage User Profiles</text></g><g id="elem_UC2"><ellipse cx="685.087" cy="337.1174" fill="#F1F1F1" rx="53.587" ry="13.1174" style="stroke:#181818;stroke-width:0.5;"/><text fill="#000000" font-family="Arial" font-size="12" lengthAdjust="spacing" textLength="62" x="654.087" y="339.4739">Enroll User</text></g><g id="elem_UC4a"><ellipse cx="841.8475" cy="337.0695" fill="#F1F1F1" rx="68.3475" ry="16.0695" style="stroke:#181818;stroke-width:0.5;"/><text fill="#000000" font-family="Arial" font-size="12" lengthAdjust="spacing" textLength="99" x="792.3475" y="339.4259">Update User Data</text></g><g id="elem_UC4b"><ellipse cx="1001.0677" cy="336.9135" fill="#F1F1F1" rx="55.0677" ry="13.4135" style="stroke:#181818;stroke-width:0.5;"/><text fill="#000000" font-family="Arial" font-size="12" lengthAdjust="spacing" textLength="66" x="968.0677" y="339.27">Delete User</text></g><g id="elem_UC3"><ellipse cx="286.0004" cy="218.4001" fill="#F1F1F1" rx="67.5004" ry="15.9001" style="stroke:#181818;stroke-width:0.5;"/><text fill="#000000" font-family="Arial" font-size="12" lengthAdjust="spacing" textLength="97" x="237.5004" y="220.7565">Authenticate User</text></g><g id="elem_UC3a"><ellipse cx="284.238" cy="337.1476" fill="#F1F1F1" rx="66.238" ry="15.6476" style="stroke:#181818;stroke-width:0.5;"/><text fill="#000000" font-family="Arial" font-size="12" lengthAdjust="spacing" textLength="94" x="237.238" y="339.5041">Match Fingerprint</text></g><g id="elem_UC3b"><ellipse cx="479.7705" cy="336.7541" fill="#F1F1F1" rx="94.2705" ry="21.2541" style="stroke:#181818;stroke-width:0.5;"/><text fill="#000000" font-family="Arial" font-size="12" lengthAdjust="spacing" textLength="157" x="401.2705" y="339.1105">Handle Failed Authentication</text></g><g id="elem_UC5"><ellipse cx="1394.1989" cy="218.7398" fill="#F1F1F1" rx="69.1989" ry="16.2398" style="stroke:#181818;stroke-width:0.5;"/><text fill="#000000" font-family="Arial" font-size="12" lengthAdjust="spacing" textLength="101" x="1343.6989" y="221.0962">Review Audit Logs</text></g><g id="elem_UC5a"><ellipse cx="1200.788" cy="218.5576" fill="#F1F1F1" rx="88.288" ry="20.0576" style="stroke:#181818;stroke-width:0.5;"/><text fill="#000000" font-family="Arial" font-size="12" lengthAdjust="spacing" textLength="144" x="1128.788" y="220.9141">Generate Security Reports</text></g><g id="elem_UC6"><ellipse cx="1584.0715" cy="218.3143" fill="#F1F1F1" rx="64.5715" ry="15.3143" style="stroke:#181818;stroke-width:0.5;"/><text fill="#000000" font-family="Arial" font-size="12" lengthAdjust="spacing" textLength="90" x="1539.0715" y="220.6707">Maintain System</text></g><g id="elem_UC6a"><ellipse cx="1760.9718" cy="218.3944" fill="#F1F1F1" rx="77.4718" ry="17.8944" style="stroke:#181818;stroke-width:0.5;"/><text fill="#000000" font-family="Arial" font-size="12" lengthAdjust="spacing" textLength="120" x="1700.9718" y="220.7508">Monitor Security Alerts</text></g><!--entity user--><g id="elem_user"><ellipse cx="198" cy="14" fill="#F1F1F1" rx="8" ry="8" style="stroke:#181818;stroke-width:0.5;"/><path d="M198,22 L198,49 M185,30 L211,30 M198,49 L185,64 M198,49 L211,64 " fill="none" style="stroke:#181818;stroke-width:0.5;"/><text fill="#000000" font-family="Arial" font-size="12" lengthAdjust="spacing" textLength="27" x="184.5" y="76.7559">User</text></g><!--entity admin--><g id="elem_admin"><ellipse cx="1394" cy="14" fill="#F1F1F1" rx="8" ry="8" style="stroke:#181818;stroke-width:0.5;"/><path d="M1394,22 L1394,49 M1381,30 L1407,30 M1394,49 L1381,64 M1394,49 L1407,64 " fill="none" style="stroke:#181818;stroke-width:0.5;"/><text fill="#000000" font-family="Arial" font-size="12" lengthAdjust="spacing" textLength="117" x="1335.5" y="76.7559">System Administrator</text></g><!--entity secOfficer--><g id="elem_secOfficer"><ellipse cx="1761" cy="14" fill="#F1F1F1" rx="8" ry="8" style="stroke:#181818;stroke-width:0.5;"/><path d="M1761,22 L1761,49 M1748,30 L1774,30 M1761,49 L1748,64 M1761,49 L1774,64 " fill="none" style="stroke:#181818;stroke-width:0.5;"/><text fill="#000000" font-family="Arial" font-size="12" lengthAdjust="spacing" textLength="81" x="1720.5" y="76.7559">Security Officer</text></g><!--link user to UC1--><g id="link_user_UC1"><path d="M184.33,69.93 C165.35,106.62 134.3572,166.541 118.8972,196.421 " fill="none" id="user-to-UC1" style="stroke:#181818;stroke-width:1.0;"/><polygon fill="#181818" points="116.14,201.75,123.8285,195.5947,118.4377,197.3092,116.7232,191.9184,116.14,201.75" style="stroke:#181818;stroke-width:1.0;"/></g><!--link user to UC3--><g id="link_user_UC3"><path d="M211.56,70.31 C230.26,107.29 260.6621,167.3958 275.6021,196.9358 " fill="none" id="user-to-UC3" style="stroke:#181818;stroke-width:1.0;"/><polygon fill="#181818" points="278.31,202.29,277.8176,192.4535,276.0534,197.8282,270.6787,196.064,278.31,202.29" style="stroke:#181818;stroke-width:1.0;"/></g><!--link admin to UC4--><g id="link_admin_UC4"><path d="M1335.47,53.54 C1274.35,65.1 1176.35,86.68 1096,118.5 C1038.14,141.41 980.7341,176.3454 947.3641,197.9854 " fill="none" id="admin-to-UC4" style="stroke:#181818;stroke-width:1.0;"/><polygon fill="#181818" points="942.33,201.25,952.0576,199.7092,946.5251,198.5295,947.7048,192.997,942.33,201.25" style="stroke:#181818;stroke-width:1.0;"/></g><!--link admin to UC5--><g id="link_admin_UC5"><path d="M1394,79.55 C1394,117.38 1394,169.04 1394,196.26 " fill="none" id="admin-to-UC5" style="stroke:#181818;stroke-width:1.0;"/><polygon fill="#181818" points="1394,202.26,1398,193.26,1394,197.26,1390,193.26,1394,202.26" style="stroke:#181818;stroke-width:1.0;"/></g><!--link admin to UC6--><g id="link_admin_UC6"><path d="M1435.75,79.85 C1449.6,92.04 1465.04,105.77 1479,118.5 C1511.58,148.22 1544.6593,179.7173 1564.8593,199.0873 " fill="none" id="admin-to-UC6" style="stroke:#181818;stroke-width:1.0;"/><polygon fill="#181818" points="1569.19,203.24,1565.4625,194.1238,1565.5811,199.7794,1559.9255,199.898,1569.19,203.24" style="stroke:#181818;stroke-width:1.0;"/></g><!--link secOfficer to UC6a--><g id="link_secOfficer_UC6a"><path d="M1761,79.55 C1761,116.38 1761,166.02 1761,194.05 " fill="none" id="secOfficer-to-UC6a" style="stroke:#181818;stroke-width:1.0;"/><polygon fill="#181818" points="1761,200.05,1765,191.05,1761,195.05,1757,191.05,1761,200.05" style="stroke:#181818;stroke-width:1.0;"/></g><!--link UC1 to UC1a--><g id="link_UC1_UC1a"><path d="M107.33,235.21 C106.4,256.83 104.9869,289.6255 104.0169,312.2555 " fill="none" id="UC1-to-UC1a" style="stroke:#181818;stroke-width:1.0;"/><polygon fill="#181818" points="103.76,318.25,108.1417,309.4296,103.9741,313.2546,100.1491,309.087,103.76,318.25" style="stroke:#181818;stroke-width:1.0;"/><text fill="#000000" font-family="Arial" font-size="12" lengthAdjust="spacing" textLength="77" x="107" y="282.7559">preprocesses</text></g><!--link UC1a to UC1b--><g id="link_UC1a_UC1b"><path d="M103,355.91 C103,377.95 103,408.93 103,429.17 " fill="none" id="UC1a-to-UC1b" style="stroke:#181818;stroke-width:1.0;"/><polygon fill="#181818" points="103,435.17,107,426.17,103,430.17,99,426.17,103,435.17" style="stroke:#181818;stroke-width:1.0;"/><text fill="#000000" font-family="Arial" font-size="12" lengthAdjust="spacing" textLength="118" x="104" y="402.7559">extracts features from</text></g><!--link UC3 to UC3a--><g id="link_UC3_UC3a"><path d="M283.37,234.62 C281.75,244.74 279.83,258.37 279,270.5 C277.8,288.02 279.0447,302.2256 280.8647,315.4956 " fill="none" id="UC3-to-UC3a" style="stroke:#181818;stroke-width:1.0;"/><polygon fill="#181818" points="281.68,321.44,284.42,311.98,281.0006,316.4864,276.4942,313.067,281.68,321.44" style="stroke:#181818;stroke-width:1.0;"/><text fill="#000000" font-family="Arial" font-size="12" lengthAdjust="spacing" textLength="150" x="280" y="282.7559">matches against templates</text></g><!--link UC3 to UC3b--><g id="link_UC3_UC3b"><path d="M338.18,228.78 C368.71,236.19 406.69,249.01 435,270.5 C450.49,282.26 459.7322,295.6535 467.4622,310.0535 " fill="none" id="UC3-to-UC3b" style="stroke:#181818;stroke-width:1.0;"/><polygon fill="#181818" points="470.3,315.34,469.5676,305.5184,467.9352,310.9346,462.519,309.3022,470.3,315.34" style="stroke:#181818;stroke-width:1.0;"/><text fill="#000000" font-family="Arial" font-size="12" lengthAdjust="spacing" textLength="99" x="450" y="282.7559">on failure, triggers</text></g><!--link UC4 to UC2--><g id="link_UC4_UC2"><path d="M885.08,234.83 C863.84,244.81 835.68,258.21 811,270.5 C773.7,289.08 736.0403,308.8581 711.1403,322.0681 " fill="none" id="UC4-to-UC2" style="stroke:#181818;stroke-width:1.0;"/><polygon fill="#181818" points="705.84,324.88,715.6651,324.1956,710.2569,322.5367,711.9158,317.1286,705.84,324.88" style="stroke:#181818;stroke-width:1.0;"/><text fill="#000000" font-family="Arial" font-size="12" lengthAdjust="spacing" textLength="54" x="812" y="282.7559">&#171;include&#187;</text></g><!--link UC4 to UC4a--><g id="link_UC4_UC4a"><path d="M906.79,236.69 C891.92,259.48 869.2087,294.2951 855.0887,315.9351 " fill="none" id="UC4-to-UC4a" style="stroke:#181818;stroke-width:1.0;"/><polygon fill="#181818" points="851.81,320.96,860.0781,315.6084,854.5423,316.7726,853.3782,311.2368,851.81,320.96" style="stroke:#181818;stroke-width:1.0;"/><text fill="#000000" font-family="Arial" font-size="12" lengthAdjust="spacing" textLength="54" x="885" y="282.7559">&#171;include&#187;</text></g><!--link UC4 to UC4b--><g id="link_UC4_UC4b"><path d="M930.25,236.69 C947.11,260.36 973.6074,297.5541 988.5474,318.5141 " fill="none" id="UC4-to-UC4b" style="stroke:#181818;stroke-width:1.0;"/><polygon fill="#181818" points="992.03,323.4,990.0634,313.7495,989.1279,319.3284,983.5489,318.3929,992.03,323.4" style="stroke:#181818;stroke-width:1.0;"/><text fill="#000000" font-family="Arial" font-size="12" lengthAdjust="spacing" textLength="54" x="965" y="282.7559">&#171;include&#187;</text></g><!--SRC=[TPJ1Rjim38RlUWh2brsMGvCqXw4euARDTbYt8aKUW95fHwWj6PAyhXlwxgCisxKJ3qW0I_pqynTDshqeNQF52ZBAiIdzpcZ_0ok29BKAoqIuEU9P_I6uMWg1qXiBoS6HJG0TDFpGRpw_EKyLf5cbj7BU8k-s48QTWIBPMENVu6UUAzd9E9BTKWXBqgCkIhQqKxeWMrkbFUn9ca8hhuo6c2c1lmA20ucEuItMlh44eqEjzc5xDSQUBDNMI79kZiGn-l2RBo4zx0Y3ikkX8qFygr6-O46n6l1aJQxOz2DgtgmeQ0P_8xqOWZ7UQwwdv8EsfYnXAFDXkvm2Xpf3tqdTeyTU1gVOFPNKOJqHpB_FNI1j_8bTAucXnXVcH-69uEhyZbwUPYgxEdFs3NN6rTeX5o6xo1sFp5bDcqnvuCFS4BMndXDTMDtJBqMl4D7lfkYBV3t5lf8c6supj6IK772SoTyr-IForKYZbZJpcZd6_w5DMxND6MIubtaUXjnfIH-fDp7rkn2VOB5OG1fcnuL74IQE7sxRlXujLZoSOSwwvNgokfwiDa9y35o_XtskFPNjMt0dLJku8_zAfCCRXoqxZoOuT-y1uGiazJ1KtD6YtUt2nn2cE4WEycwI8BUc2k2gTz_ALA5vE8e5byzvuEhLR2Pg3cWhoL-1d7k7nJw3jwhWTcEAiNM7BPcwkL5Qbar6jxUZo1h_7pgUXVu1]--></g></svg>