<?xml version="1.0" encoding="us-ascii" standalone="no"?><svg xmlns="http://www.w3.org/2000/svg" xmlns:xlink="http://www.w3.org/1999/xlink" contentStyleType="text/css" height="714px" preserveAspectRatio="none" style="width:405px;height:714px;background:#FFFFFF;" version="1.1" viewBox="0 0 405 714" width="405px" zoomAndPan="magnify"><defs/><g><!--entity FSM--><g id="elem_FSM"><rect fill="#FFFFE0" height="33.7988" rx="2.5" ry="2.5" style="stroke:#181818;stroke-width:0.5;" width="177" x="95" y="7"/><text fill="#000000" font-family="Arial" font-size="12" lengthAdjust="spacing" textLength="157" x="105" y="28.2559">Fingerprint Scanning Module</text></g><!--entity APIGW--><g id="elem_APIGW"><rect fill="#ADD8E6" height="33.7988" rx="2.5" ry="2.5" style="stroke:#181818;stroke-width:0.5;" width="140" x="113.5" y="116"/><text fill="#000000" font-family="Arial" font-size="12" lengthAdjust="spacing" textLength="120" x="123.5" y="137.2559">API Gateway / Firewall</text></g><!--entity BPM--><g id="elem_BPM"><rect fill="#ADD8E6" height="33.7988" rx="2.5" ry="2.5" style="stroke:#181818;stroke-width:0.5;" width="181" x="93" y="225"/><text fill="#000000" font-family="Arial" font-size="12" lengthAdjust="spacing" textLength="161" x="103" y="246.2559">Biometric Processing Module</text></g><!--entity MLModel--><g id="elem_MLModel"><rect fill="#ADD8E6" height="33.7988" rx="2.5" ry="2.5" style="stroke:#181818;stroke-width:0.5;" width="203" x="82" y="334"/><text fill="#000000" font-family="Arial" font-size="12" lengthAdjust="spacing" textLength="183" x="92" y="355.2559">ML Model for Fingerprint Matching</text></g><!--entity AS--><g id="elem_AS"><rect fill="#D3D3D3" height="33.7988" rx="2.5" ry="2.5" style="stroke:#181818;stroke-width:0.5;" width="140" x="113.5" y="457"/><text fill="#000000" font-family="Arial" font-size="12" lengthAdjust="spacing" textLength="120" x="123.5" y="478.2559">Authentication Service</text></g><!--entity UMM--><g id="elem_UMM"><rect fill="#D3D3D3" height="33.7988" rx="2.5" ry="2.5" style="stroke:#181818;stroke-width:0.5;" width="165" x="7" y="566"/><text fill="#000000" font-family="Arial" font-size="12" lengthAdjust="spacing" textLength="145" x="17" y="587.2559">User Management Module</text></g><!--entity LS--><g id="elem_LS"><rect fill="#D3D3D3" height="33.7988" rx="2.5" ry="2.5" style="stroke:#181818;stroke-width:0.5;" width="108" x="222.5" y="566"/><text fill="#000000" font-family="Arial" font-size="12" lengthAdjust="spacing" textLength="88" x="232.5" y="587.2559">Logging Service</text></g><!--entity UDB--><g id="elem_UDB"><rect fill="#90EE90" height="33.7988" rx="2.5" ry="2.5" style="stroke:#181818;stroke-width:0.5;" width="104" x="36.5" y="675"/><text fill="#000000" font-family="Arial" font-size="12" lengthAdjust="spacing" textLength="84" x="46.5" y="696.2559">User Database</text></g><!--entity LDB--><g id="elem_LDB"><rect fill="#90EE90" height="33.7988" rx="2.5" ry="2.5" style="stroke:#181818;stroke-width:0.5;" width="98" x="228.5" y="675"/><text fill="#000000" font-family="Arial" font-size="12" lengthAdjust="spacing" textLength="78" x="238.5" y="696.2559">Log Database</text></g><!--link FSM to APIGW--><g id="link_FSM_APIGW"><path d="M183.5,41.25 C183.5,61.48 183.5,89.81 183.5,109.95 " fill="none" id="FSM-to-APIGW" style="stroke:#181818;stroke-width:1.0;"/><polygon fill="#181818" points="183.5,115.95,187.5,106.95,183.5,110.95,179.5,106.95,183.5,115.95" style="stroke:#181818;stroke-width:1.0;"/><text fill="#000000" font-family="Arial" font-size="12" lengthAdjust="spacing" textLength="136" x="184.5" y="83.2559">Captures fingerprint data</text></g><!--link APIGW to BPM--><g id="link_APIGW_BPM"><path d="M183.5,150.25 C183.5,170.48 183.5,198.81 183.5,218.95 " fill="none" id="APIGW-to-BPM" style="stroke:#181818;stroke-width:1.0;"/><polygon fill="#181818" points="183.5,224.95,187.5,215.95,183.5,219.95,179.5,215.95,183.5,224.95" style="stroke:#181818;stroke-width:1.0;"/><text fill="#000000" font-family="Arial" font-size="12" lengthAdjust="spacing" textLength="161" x="184.5" y="192.2559">Forwards data for processing</text></g><!--link BPM to MLModel--><g id="link_BPM_MLModel"><path d="M183.5,259.25 C183.5,279.48 183.5,307.81 183.5,327.95 " fill="none" id="BPM-to-MLModel" style="stroke:#181818;stroke-width:1.0;"/><polygon fill="#181818" points="183.5,333.95,187.5,324.95,183.5,328.95,179.5,324.95,183.5,333.95" style="stroke:#181818;stroke-width:1.0;"/><text fill="#000000" font-family="Arial" font-size="12" lengthAdjust="spacing" textLength="167" x="184.5" y="301.2559">Generates fingerprint template</text></g><!--link MLModel to AS--><g id="link_MLModel_AS"><path d="M183.5,368.32 C183.5,391.54 183.5,427.86 183.5,450.94 " fill="none" id="MLModel-to-AS" style="stroke:#181818;stroke-width:1.0;"/><polygon fill="#181818" points="183.5,456.94,187.5,447.94,183.5,451.94,179.5,447.94,183.5,456.94" style="stroke:#181818;stroke-width:1.0;"/><text fill="#000000" font-family="Arial" font-size="12" lengthAdjust="spacing" textLength="124" x="184.5" y="410.2559">Performs ML inference</text><text fill="#000000" font-family="Arial" font-size="12" lengthAdjust="spacing" textLength="115" x="189" y="424.0547">(validates fingerprint)</text></g><!--link AS to UMM--><g id="link_AS_UMM"><path d="M120.46,491.09 C105.9,497.89 92.16,507.48 83.5,521 C74.95,534.35 76.4839,547.1275 80.8539,560.2475 " fill="none" id="AS-to-UMM" style="stroke:#181818;stroke-width:1.0;"/><polygon fill="#181818" points="82.75,565.94,83.7009,556.1372,81.1699,561.1962,76.1109,558.6652,82.75,565.94" style="stroke:#181818;stroke-width:1.0;"/><text fill="#000000" font-family="Arial" font-size="12" lengthAdjust="spacing" textLength="144" x="84.5" y="533.2559">Manages user information</text></g><!--link AS to LS--><g id="link_AS_LS"><path d="M205.33,491.14 C215.73,499.42 227.95,510.05 237.5,521 C249.64,534.93 257.764,547.7374 264.974,560.5874 " fill="none" id="AS-to-LS" style="stroke:#181818;stroke-width:1.0;"/><polygon fill="#181818" points="267.91,565.82,266.9945,556.0138,265.4634,561.4595,260.0177,559.9284,267.91,565.82" style="stroke:#181818;stroke-width:1.0;"/><text fill="#000000" font-family="Arial" font-size="12" lengthAdjust="spacing" textLength="147" x="250.5" y="533.2559">Logs authentication events</text></g><!--link UMM to UDB--><g id="link_UMM_UDB"><path d="M87.75,600.16 C86.88,608.97 85.93,620.07 85.5,630 C84.84,645.25 85.3693,656.6709 86.3993,668.9709 " fill="none" id="UMM-to-UDB" style="stroke:#181818;stroke-width:1.0;"/><polygon fill="#181818" points="86.9,674.95,90.135,665.6476,86.4828,669.9674,82.1629,666.3152,86.9,674.95" style="stroke:#181818;stroke-width:1.0;"/><text fill="#000000" font-family="Arial" font-size="12" lengthAdjust="spacing" textLength="147" x="86.5" y="642.2559">Reads/Writes user profiles</text></g><!--link LS to LDB--><g id="link_LS_LDB"><path d="M276.65,600.25 C276.84,620.48 277.1034,648.8103 277.2934,668.9503 " fill="none" id="LS-to-LDB" style="stroke:#181818;stroke-width:1.0;"/><polygon fill="#181818" points="277.35,674.95,281.2649,665.9127,277.3028,669.9502,273.2653,665.9881,277.35,674.95" style="stroke:#181818;stroke-width:1.0;"/><text fill="#000000" font-family="Arial" font-size="12" lengthAdjust="spacing" textLength="95" x="278.5" y="642.2559">Stores log events</text></g><!--SRC=[VLBBZjim3BphAuZqqFQmMBH77mea6oGeO1T1ZM0llJ0sxGWhIuP49qY_lfHZfuxtSPF4cI4rmy-mRqjaAk79DQspP1dM6ckF3LJEmqRRcdphjRolj6k8lIvWsV5HaBf0riv2VWbC3Pmr7o5B8NCb6QN2YxOjHg6IAkmCRvpbNzWGB9PUercyZSZrNu9ltoV5OfmivuiXy5GmsjgGOjS2EpWuPYSQEbPa7gLk45XCFv0NQAtSuuITeGLWW4sUmIUZwoDVo1XtddANkv-m5NFEU857iSBBoPYU9gNjyq0yc8wcjFy-xRmhA8HPozKkUuSvclVA-WovECgzvsVf5VIsnZmRyYTTN1ilyu4ZyLwcd7qWBpqirjJ43PWCky-oTqYfg-luisc7zCCEQsGyO1Y4rwiRbiZEbE-nwGohOceF3p-6619umfOxJm6gYMcorwYkY8YDjYUmSVwClWnzjVUvlOMa8YH2HuSJs98bBojmhopRtXfvLIEmdoKN_8wyQ3On9D2s8a-se3_somcDBkSwNvLm8ZMQd0m11EYYLq8MdJx34PN61k9D0BpFc4vo2Iggz6hYLWA_2Slm-EmrZvBoqKeR2YeTz7fSpYuQPyJpGUSV]--></g></svg>