<?xml version="1.0" encoding="us-ascii" standalone="no"?><svg xmlns="http://www.w3.org/2000/svg" xmlns:xlink="http://www.w3.org/1999/xlink" contentStyleType="text/css" height="839px" preserveAspectRatio="none" style="width:1014px;height:839px;background:#FFFFFF;" version="1.1" viewBox="0 0 1014 839" width="1014px" zoomAndPan="magnify"><defs/><g><!--cluster clientNode--><g id="cluster_clientNode"><polygon fill="#FFFFE0" points="505,16,515,6,770,6,770,109,760,119,505,119,505,16" style="stroke:#181818;stroke-width:1.0;"/><line style="stroke:#181818;stroke-width:1.0;" x1="760" x2="770" y1="16" y2="6"/><line style="stroke:#181818;stroke-width:1.0;" x1="505" x2="760" y1="16" y2="16"/><line style="stroke:#181818;stroke-width:1.0;" x1="760" x2="760" y1="16" y2="119"/><text fill="#000000" font-family="Arial" font-size="12" font-weight="bold" lengthAdjust="spacing" textLength="73" x="597" y="30.2559">Client Device</text></g><!--cluster gatewayNode--><g id="cluster_gatewayNode"><polygon fill="#ADD8E6" points="505,192,515,182,732,182,732,285,722,295,505,295,505,192" style="stroke:#181818;stroke-width:1.0;"/><line style="stroke:#181818;stroke-width:1.0;" x1="722" x2="732" y1="192" y2="182"/><line style="stroke:#181818;stroke-width:1.0;" x1="505" x2="722" y1="192" y2="192"/><line style="stroke:#181818;stroke-width:1.0;" x1="722" x2="722" y1="192" y2="295"/><text fill="#000000" font-family="Arial" font-size="12" font-weight="bold" lengthAdjust="spacing" textLength="93" x="568" y="206.2559">Secure Gateway</text></g><!--cluster authNode--><g id="cluster_authNode"><polygon fill="#D3D3D3" points="505,368,515,358,732,358,732,461,722,471,505,471,505,368" style="stroke:#181818;stroke-width:1.0;"/><line style="stroke:#181818;stroke-width:1.0;" x1="722" x2="732" y1="368" y2="358"/><line style="stroke:#181818;stroke-width:1.0;" x1="505" x2="722" y1="368" y2="368"/><line style="stroke:#181818;stroke-width:1.0;" x1="722" x2="722" y1="368" y2="471"/><text fill="#000000" font-family="Arial" font-size="12" font-weight="bold" lengthAdjust="spacing" textLength="123" x="553" y="382.2559">Authentication Server</text></g><!--cluster procNode--><g id="cluster_procNode"><polygon fill="#D3D3D3" points="16,544,26,534,465,534,465,637,455,647,16,647,16,544" style="stroke:#181818;stroke-width:1.0;"/><line style="stroke:#181818;stroke-width:1.0;" x1="455" x2="465" y1="544" y2="534"/><line style="stroke:#181818;stroke-width:1.0;" x1="16" x2="455" y1="544" y2="544"/><line style="stroke:#181818;stroke-width:1.0;" x1="455" x2="455" y1="544" y2="647"/><text fill="#000000" font-family="Arial" font-size="12" font-weight="bold" lengthAdjust="spacing" textLength="106" x="183.5" y="558.2559">Processing Server</text></g><!--cluster umsNode--><g id="cluster_umsNode"><polygon fill="#D3D3D3" points="505,544,515,534,758,534,758,637,748,647,505,647,505,544" style="stroke:#181818;stroke-width:1.0;"/><line style="stroke:#181818;stroke-width:1.0;" x1="748" x2="758" y1="544" y2="534"/><line style="stroke:#181818;stroke-width:1.0;" x1="505" x2="748" y1="544" y2="544"/><line style="stroke:#181818;stroke-width:1.0;" x1="748" x2="748" y1="544" y2="647"/><text fill="#000000" font-family="Arial" font-size="12" font-weight="bold" lengthAdjust="spacing" textLength="145" x="555" y="558.2559">User Management Server</text></g><!--cluster logNode--><g id="cluster_logNode"><polygon fill="#D3D3D3" points="802,544,812,534,997,534,997,637,987,647,802,647,802,544" style="stroke:#181818;stroke-width:1.0;"/><line style="stroke:#181818;stroke-width:1.0;" x1="987" x2="997" y1="544" y2="534"/><line style="stroke:#181818;stroke-width:1.0;" x1="802" x2="987" y1="544" y2="544"/><line style="stroke:#181818;stroke-width:1.0;" x1="987" x2="987" y1="544" y2="647"/><text fill="#000000" font-family="Arial" font-size="12" font-weight="bold" lengthAdjust="spacing" textLength="86" x="852.5" y="558.2559">Logging Server</text></g><!--cluster dbNode--><g id="cluster_dbNode"><polygon fill="#90EE90" points="598,720,608,710,902,710,902,812,892,822,598,822,598,720" style="stroke:#181818;stroke-width:1.0;"/><line style="stroke:#181818;stroke-width:1.0;" x1="892" x2="902" y1="720" y2="710"/><line style="stroke:#181818;stroke-width:1.0;" x1="598" x2="892" y1="720" y2="720"/><line style="stroke:#181818;stroke-width:1.0;" x1="892" x2="892" y1="720" y2="822"/><text fill="#000000" font-family="Arial" font-size="12" font-weight="bold" lengthAdjust="spacing" textLength="95" x="698.5" y="734.2559">Database Server</text></g><!--entity FSM--><g id="elem_FSM"><rect fill="#F1F1F1" height="43.7988" rx="2.5" ry="2.5" style="stroke:#181818;stroke-width:0.5;" width="197" x="548.5" y="51"/><rect fill="#F1F1F1" height="10" style="stroke:#181818;stroke-width:0.5;" width="15" x="725.5" y="56"/><rect fill="#F1F1F1" height="2" style="stroke:#181818;stroke-width:0.5;" width="4" x="723.5" y="58"/><rect fill="#F1F1F1" height="2" style="stroke:#181818;stroke-width:0.5;" width="4" x="723.5" y="62"/><text fill="#000000" font-family="Arial" font-size="12" lengthAdjust="spacing" textLength="157" x="563.5" y="82.2559">Fingerprint Scanning Module</text></g><!--entity APIGW--><g id="elem_APIGW"><rect fill="#F1F1F1" height="43.7988" rx="2.5" ry="2.5" style="stroke:#181818;stroke-width:0.5;" width="160" x="548" y="227"/><rect fill="#F1F1F1" height="10" style="stroke:#181818;stroke-width:0.5;" width="15" x="688" y="232"/><rect fill="#F1F1F1" height="2" style="stroke:#181818;stroke-width:0.5;" width="4" x="686" y="234"/><rect fill="#F1F1F1" height="2" style="stroke:#181818;stroke-width:0.5;" width="4" x="686" y="238"/><text fill="#000000" font-family="Arial" font-size="12" lengthAdjust="spacing" textLength="120" x="563" y="258.2559">API Gateway / Firewall</text></g><!--entity AuthService--><g id="elem_AuthService"><rect fill="#F1F1F1" height="43.7988" rx="2.5" ry="2.5" style="stroke:#181818;stroke-width:0.5;" width="160" x="548" y="403"/><rect fill="#F1F1F1" height="10" style="stroke:#181818;stroke-width:0.5;" width="15" x="688" y="408"/><rect fill="#F1F1F1" height="2" style="stroke:#181818;stroke-width:0.5;" width="4" x="686" y="410"/><rect fill="#F1F1F1" height="2" style="stroke:#181818;stroke-width:0.5;" width="4" x="686" y="414"/><text fill="#000000" font-family="Arial" font-size="12" lengthAdjust="spacing" textLength="120" x="563" y="434.2559">Authentication Service</text></g><!--entity BPM--><g id="elem_BPM"><rect fill="#F1F1F1" height="43.7988" rx="2.5" ry="2.5" style="stroke:#181818;stroke-width:0.5;" width="201" x="239.5" y="579"/><rect fill="#F1F1F1" height="10" style="stroke:#181818;stroke-width:0.5;" width="15" x="420.5" y="584"/><rect fill="#F1F1F1" height="2" style="stroke:#181818;stroke-width:0.5;" width="4" x="418.5" y="586"/><rect fill="#F1F1F1" height="2" style="stroke:#181818;stroke-width:0.5;" width="4" x="418.5" y="590"/><text fill="#000000" font-family="Arial" font-size="12" lengthAdjust="spacing" textLength="161" x="254.5" y="610.2559">Biometric Processing Module</text></g><!--entity FM--><g id="elem_FM"><rect fill="#F1F1F1" height="43.7988" rx="2.5" ry="2.5" style="stroke:#181818;stroke-width:0.5;" width="145" x="59.5" y="579"/><rect fill="#F1F1F1" height="10" style="stroke:#181818;stroke-width:0.5;" width="15" x="184.5" y="584"/><rect fill="#F1F1F1" height="2" style="stroke:#181818;stroke-width:0.5;" width="4" x="182.5" y="586"/><rect fill="#F1F1F1" height="2" style="stroke:#181818;stroke-width:0.5;" width="4" x="182.5" y="590"/><text fill="#000000" font-family="Arial" font-size="12" lengthAdjust="spacing" textLength="105" x="74.5" y="610.2559">Fingerprint Matcher</text></g><!--entity UMM--><g id="elem_UMM"><rect fill="#F1F1F1" height="43.7988" rx="2.5" ry="2.5" style="stroke:#181818;stroke-width:0.5;" width="185" x="548.5" y="579"/><rect fill="#F1F1F1" height="10" style="stroke:#181818;stroke-width:0.5;" width="15" x="713.5" y="584"/><rect fill="#F1F1F1" height="2" style="stroke:#181818;stroke-width:0.5;" width="4" x="711.5" y="586"/><rect fill="#F1F1F1" height="2" style="stroke:#181818;stroke-width:0.5;" width="4" x="711.5" y="590"/><text fill="#000000" font-family="Arial" font-size="12" lengthAdjust="spacing" textLength="145" x="563.5" y="610.2559">User Management Module</text></g><!--entity LS--><g id="elem_LS"><rect fill="#F1F1F1" height="43.7988" rx="2.5" ry="2.5" style="stroke:#181818;stroke-width:0.5;" width="128" x="845" y="579"/><rect fill="#F1F1F1" height="10" style="stroke:#181818;stroke-width:0.5;" width="15" x="953" y="584"/><rect fill="#F1F1F1" height="2" style="stroke:#181818;stroke-width:0.5;" width="4" x="951" y="586"/><rect fill="#F1F1F1" height="2" style="stroke:#181818;stroke-width:0.5;" width="4" x="951" y="590"/><text fill="#000000" font-family="Arial" font-size="12" lengthAdjust="spacing" textLength="88" x="860" y="610.2559">Logging Service</text></g><!--entity UDB--><g id="elem_UDB"><path d="M774,765 C774,755 826,755 826,755 C826,755 878,755 878,765 L878,787.7988 C878,797.7988 826,797.7988 826,797.7988 C826,797.7988 774,797.7988 774,787.7988 L774,765 " fill="#F1F1F1" style="stroke:#181818;stroke-width:0.5;"/><path d="M774,765 C774,775 826,775 826,775 C826,775 878,775 878,765 " fill="none" style="stroke:#181818;stroke-width:0.5;"/><text fill="#000000" font-family="Arial" font-size="12" lengthAdjust="spacing" textLength="84" x="784" y="790.2559">User Database</text></g><!--entity LDB--><g id="elem_LDB"><path d="M641,765 C641,755 690,755 690,755 C690,755 739,755 739,765 L739,787.7988 C739,797.7988 690,797.7988 690,797.7988 C690,797.7988 641,797.7988 641,787.7988 L641,765 " fill="#F1F1F1" style="stroke:#181818;stroke-width:0.5;"/><path d="M641,765 C641,775 690,775 690,775 C690,775 739,775 739,765 " fill="none" style="stroke:#181818;stroke-width:0.5;"/><text fill="#000000" font-family="Arial" font-size="12" lengthAdjust="spacing" textLength="78" x="651" y="790.2559">Log Database</text></g><!--link clientNode to gatewayNode--><g id="link_clientNode_gatewayNode"><path d="M513,119.1673 C513,120.3386 513,121.5231 513,122.7197 C513,125.113 513,127.5545 513,130.0346 C513,139.9551 513,150.4934 513,161.0312 C513,166.3002 513,171.5689 513,176.7603 C513,178.0581 513,179.3511 513,180.638 C513,180.9598 513,175.2811 513,175.6021 " fill="none" id="clientNode-to-gatewayNode" style="stroke:#181818;stroke-width:1.0;"/><polygon fill="#181818" points="513,181.6021,517,172.6021,513,176.6021,509,172.6021,513,181.6021" style="stroke:#181818;stroke-width:1.0;"/><text fill="#000000" font-family="Arial" font-size="12" lengthAdjust="spacing" textLength="154" x="514" y="155.2559">Sends fingerprint data (TLS)</text></g><!--link gatewayNode to authNode--><g id="link_gatewayNode_authNode"><path d="M513,295.1673 C513,296.3386 513,297.5231 513,298.7197 C513,301.113 513,303.5545 513,306.0346 C513,315.9551 513,326.4934 513,337.0313 C513,342.3002 513,347.5689 513,352.7603 C513,354.0581 513,355.3511 513,356.638 C513,356.9598 513,351.2811 513,351.6021 " fill="none" id="gatewayNode-to-authNode" style="stroke:#181818;stroke-width:1.0;"/><polygon fill="#181818" points="513,357.6021,517,348.6021,513,352.6021,509,348.6021,513,357.6021" style="stroke:#181818;stroke-width:1.0;"/><text fill="#000000" font-family="Arial" font-size="12" lengthAdjust="spacing" textLength="145" x="514" y="331.2559">Forwards secure requests</text></g><!--link authNode to procNode--><g id="link_authNode_procNode"><path d="M504.8483,426.4161 C503.8875,426.4682 502.8467,426.5255 501.7285,426.588 C499.4922,426.7129 496.9465,426.8589 494.1125,427.0271 C482.7768,427.6996 466.8295,428.7264 447.6259,430.1797 C409.2188,433.0863 357.7863,437.6988 304.17,444.595 C196.9375,458.3875 80.97,481.315 43,518 C39.7425,521.1475 36.9953,524.7352 34.6826,528.6102 C34.1044,529.579 33.5534,530.5657 33.0284,531.568 C32.7659,532.0692 32.5098,532.5742 32.2601,533.0828 C32.1353,533.3372 34.5873,528.1731 34.4656,528.4292 " fill="none" id="authNode-to-procNode" style="stroke:#181818;stroke-width:1.0;"/><polygon fill="#181818" points="31.8903,533.8485,39.366,527.4364,34.0364,529.3324,32.1403,524.0028,31.8903,533.8485" style="stroke:#181818;stroke-width:1.0;"/><text fill="#000000" font-family="Arial" font-size="12" lengthAdjust="spacing" textLength="246" x="76" y="507.2559">Delegates biometric processing (secure API)</text></g><!--link authNode to umsNode--><g id="link_authNode_umsNode"><path d="M513,471.1673 C513,472.3386 513,473.5231 513,474.7197 C513,477.113 513,479.5545 513,482.0346 C513,491.9551 513,502.4934 513,513.0313 C513,518.3002 513,523.5689 513,528.7603 C513,530.0581 513,531.3511 513,532.638 C513,532.9598 513,527.2811 513,527.6021 " fill="none" id="authNode-to-umsNode" style="stroke:#181818;stroke-width:1.0;"/><polygon fill="#181818" points="513,533.6021,517,524.6021,513,528.6021,509,524.6021,513,533.6021" style="stroke:#181818;stroke-width:1.0;"/><text fill="#000000" font-family="Arial" font-size="12" lengthAdjust="spacing" textLength="225" x="514" y="507.2559">Retrieves/updates user data (secure API)</text></g><!--link authNode to logNode--><g id="link_authNode_logNode"><path d="M519.9181,471.0967 C519.9627,471.1947 520.0076,471.2925 520.0528,471.3902 C520.1431,471.5856 520.2345,471.7804 520.3271,471.9746 C520.5122,472.3631 520.7017,472.7491 520.8958,473.1324 C521.284,473.8991 521.6903,474.6552 522.1156,475.3986 C522.9663,476.8856 523.8929,478.3221 524.902,479.6927 C526.9203,482.4339 529.2688,484.9113 532,487 C551.08,501.59 727.37,482.71 748,495 C770.915,508.65 786.2925,534.3 796.0013,556.83 C797.2148,559.6463 798.3399,562.4138 799.38,565.103 C799.9,566.4476 800.3988,567.7726 800.8769,569.0744 C801.1159,569.7253 801.3497,570.3704 801.5784,571.0092 C801.6927,571.3286 799.806,565.9895 799.9178,566.3057 " fill="none" id="authNode-to-logNode" style="stroke:#181818;stroke-width:1.0;"/><polygon fill="#181818" points="801.9176,571.9626,802.6891,562.144,800.2511,567.2485,795.1466,564.8104,801.9176,571.9626" style="stroke:#181818;stroke-width:1.0;"/><text fill="#000000" font-family="Arial" font-size="12" lengthAdjust="spacing" textLength="157" x="766" y="507.2559">Sends audit logs (encrypted)</text></g><!--link umsNode to dbNode--><g id="link_umsNode_dbNode"><path d="M504.9751,630.4609 C504.9269,630.7122 504.879,630.9645 504.8316,631.2177 C504.7368,631.7242 504.6437,632.2346 504.5525,632.7488 C501.635,649.2 500.69,669.425 508,686 C519.715,712.565 543.6375,734.6625 564.9137,750.2538 C575.5519,758.0494 585.5284,764.2184 592.9867,768.5061 C593.919,769.0421 594.8119,769.5486 595.6619,770.0253 C596.0869,770.2636 596.5011,770.4945 596.9042,770.7178 C597.1057,770.8295 597.3044,770.9392 597.5003,771.0471 C597.5982,771.1011 592.4363,768.2663 592.5328,768.3193 " fill="none" id="umsNode-to-dbNode" style="stroke:#181818;stroke-width:1.0;"/><polygon fill="#181818" points="597.7919,771.2075,591.8288,763.3691,593.4094,768.8006,587.9778,770.3812,597.7919,771.2075" style="stroke:#181818;stroke-width:1.0;"/><text fill="#000000" font-family="Arial" font-size="12" lengthAdjust="spacing" textLength="259" x="509" y="683.2559">Reads/Writes user profiles (secure connection)</text></g><!--link logNode to dbNode--><g id="link_logNode_dbNode"><path d="M801.8715,642.5323 C801.8237,642.6757 801.7757,642.8192 801.7274,642.9627 C800.9543,645.2598 800.1108,647.5749 799.1905,649.8852 C797.35,654.5058 795.2027,659.1071 792.6989,663.5058 C787.6913,672.3031 781.2575,680.29 773,686 C745.91,704.73 650.24,672.83 625,694 C621.5487,696.8938 618.6547,700.2817 616.2335,704.0018 C615.0229,705.8618 616.5746,702.4189 615.5899,704.4247 " fill="none" id="logNode-to-dbNode" style="stroke:#181818;stroke-width:1.0;"/><polygon fill="#181818" points="612.9458,709.8107,620.5026,703.4945,615.1492,705.3224,613.3214,699.969,612.9458,709.8107" style="stroke:#181818;stroke-width:1.0;"/><text fill="#000000" font-family="Arial" font-size="12" lengthAdjust="spacing" textLength="159" x="787" y="683.2559">Stores log events (encrypted)</text></g><!--SRC=[XLHBZzem4BxxLupeeN10g3rogCH3MLM25MfsjMVZ3C6gOwUs0wBL_lUEanWCR4jEiUTxZCSpTZ-bhhdb5HIuuutocT7-cLS8WvcLN0sO-mYHozy8NxuoRshm1hR6UqC0QL5uQJHZds4y7iCITr8ZF9i27N1TmCiUfOM5gMgZKNi7muLHneuNX2X6WSCq_S9WeIJ5IU0W1Gw0En3jJf22JqgMUtz2fSmH_Z2WJqH966HIbsXhAscH2wurhM5jYaPrGbc-Pk-izybHD1RXYNiyybCRBxl_n6ch6hptcMs-HnvC8AEp7xbIhGI5djuk9hF6xuaY1G_5WHpj0MqBv1H9Z4fBMlT6z_HOb13grnUxZJK2dGl7JgngsdreDPUcGc-bW4GagTryi_vVkTVSYttlboLLVdLeAQXvYLKW9MarbNkOrIqzIUXrdTYiJ5dUd5gPyg5yIek5NUKNsINtVCiTfhh5zaeMKVUwHGHtMKTkb-noVeCXwsl8YY3lD-FJzoXDJTNelWjSEol9J8p7twuwTqeqNJZO9TSJV67uiif7B8K6whaHfv0PU-IMgAxpjVYhGUSTEsC2uTnEKqfJOT1pi3stJtrfds6lGqCnkjQ8Tp-57u651tIJfYvQgIPKhqlud_nukV6il2ca3xlqhg0MzbHxUbLOj0cK_jw28o_SvCtAincbl9EALj5G6Asxzsp4ejMLHkwDnRR7W79ldxF4zYy0]--></g></svg>