<?xml version="1.0" encoding="us-ascii" standalone="no"?><svg xmlns="http://www.w3.org/2000/svg" xmlns:xlink="http://www.w3.org/1999/xlink" contentStyleType="text/css" height="499px" preserveAspectRatio="none" style="width:812px;height:499px;background:#FFFFFF;" version="1.1" viewBox="0 0 812 499" width="812px" zoomAndPan="magnify"><defs/><g><!--cluster client--><g id="cluster_client"><polygon fill="none" points="506,16,516,6,795,6,795,117,785,127,506,127,506,16" style="stroke:#181818;stroke-width:1.0;"/><line style="stroke:#181818;stroke-width:1.0;" x1="785" x2="795" y1="16" y2="6"/><line style="stroke:#181818;stroke-width:1.0;" x1="506" x2="785" y1="16" y2="16"/><line style="stroke:#181818;stroke-width:1.0;" x1="785" x2="785" y1="16" y2="127"/><text fill="#000000" font-family="sans-serif" font-size="14" font-weight="bold" lengthAdjust="spacing" textLength="94" x="599.5" y="33.5332">Client Device</text></g><!--cluster appServer--><g id="cluster_appServer"><polygon fill="none" points="16,203,26,193,522,193,522,472.5,512,482.5,16,482.5,16,203" style="stroke:#181818;stroke-width:1.0;"/><line style="stroke:#181818;stroke-width:1.0;" x1="512" x2="522" y1="203" y2="193"/><line style="stroke:#181818;stroke-width:1.0;" x1="16" x2="512" y1="203" y2="203"/><line style="stroke:#181818;stroke-width:1.0;" x1="512" x2="512" y1="203" y2="482.5"/><text fill="#000000" font-family="sans-serif" font-size="14" font-weight="bold" lengthAdjust="spacing" textLength="130" x="200" y="220.5332">Application Server</text></g><!--cluster dbServer--><g id="cluster_dbServer"><polygon fill="none" points="562,372,572,362,755,362,755,472,745,482,562,482,562,372" style="stroke:#181818;stroke-width:1.0;"/><line style="stroke:#181818;stroke-width:1.0;" x1="745" x2="755" y1="372" y2="362"/><line style="stroke:#181818;stroke-width:1.0;" x1="562" x2="745" y1="372" y2="372"/><line style="stroke:#181818;stroke-width:1.0;" x1="745" x2="745" y1="372" y2="482"/><text fill="#000000" font-family="sans-serif" font-size="14" font-weight="bold" lengthAdjust="spacing" textLength="117" x="596" y="389.5332">Database Server</text></g><!--entity scanner--><g id="elem_scanner"><rect fill="#F1F1F1" height="47.6094" rx="2.5" ry="2.5" style="stroke:#181818;stroke-width:0.5;" width="222" x="549" y="55"/><rect fill="#F1F1F1" height="10" style="stroke:#181818;stroke-width:0.5;" width="15" x="751" y="60"/><rect fill="#F1F1F1" height="2" style="stroke:#181818;stroke-width:0.5;" width="4" x="749" y="62"/><rect fill="#F1F1F1" height="2" style="stroke:#181818;stroke-width:0.5;" width="4" x="749" y="66"/><text fill="#000000" font-family="sans-serif" font-size="14" lengthAdjust="spacing" textLength="182" x="564" y="89.5332">Fingerprint Scanning Module</text></g><!--entity authService--><g id="elem_authService"><rect fill="#F1F1F1" height="47.6094" rx="2.5" ry="2.5" style="stroke:#181818;stroke-width:0.5;" width="181" x="40.5" y="242"/><rect fill="#F1F1F1" height="10" style="stroke:#181818;stroke-width:0.5;" width="15" x="201.5" y="247"/><rect fill="#F1F1F1" height="2" style="stroke:#181818;stroke-width:0.5;" width="4" x="199.5" y="249"/><rect fill="#F1F1F1" height="2" style="stroke:#181818;stroke-width:0.5;" width="4" x="199.5" y="253"/><text fill="#000000" font-family="sans-serif" font-size="14" lengthAdjust="spacing" textLength="141" x="55.5" y="276.5332">Authentication Service</text></g><!--entity processor--><g id="elem_processor"><rect fill="#F1F1F1" height="47.6094" rx="2.5" ry="2.5" style="stroke:#181818;stroke-width:0.5;" width="222" x="257" y="242"/><rect fill="#F1F1F1" height="10" style="stroke:#181818;stroke-width:0.5;" width="15" x="459" y="247"/><rect fill="#F1F1F1" height="2" style="stroke:#181818;stroke-width:0.5;" width="4" x="457" y="249"/><rect fill="#F1F1F1" height="2" style="stroke:#181818;stroke-width:0.5;" width="4" x="457" y="253"/><text fill="#000000" font-family="sans-serif" font-size="14" lengthAdjust="spacing" textLength="182" x="272" y="276.5332">Biometric Processing Module</text></g><!--entity userMgmt--><g id="elem_userMgmt"><rect fill="#F1F1F1" height="47.6094" rx="2.5" ry="2.5" style="stroke:#181818;stroke-width:0.5;" width="205" x="40.5" y="410.5"/><rect fill="#F1F1F1" height="10" style="stroke:#181818;stroke-width:0.5;" width="15" x="225.5" y="415.5"/><rect fill="#F1F1F1" height="2" style="stroke:#181818;stroke-width:0.5;" width="4" x="223.5" y="417.5"/><rect fill="#F1F1F1" height="2" style="stroke:#181818;stroke-width:0.5;" width="4" x="223.5" y="421.5"/><text fill="#000000" font-family="sans-serif" font-size="14" lengthAdjust="spacing" textLength="165" x="55.5" y="445.0332">User Management Module</text></g><!--entity database--><g id="elem_database"><path d="M611,421 C611,411 668,411 668,411 C668,411 725,411 725,421 L725,447.6094 C725,457.6094 668,457.6094 668,457.6094 C668,457.6094 611,457.6094 611,447.6094 L611,421 " fill="#F1F1F1" style="stroke:#181818;stroke-width:0.5;"/><path d="M611,421 C611,431 668,431 668,431 C668,431 725,431 725,421 " fill="none" style="stroke:#181818;stroke-width:0.5;"/><text fill="#000000" font-family="sans-serif" font-size="14" lengthAdjust="spacing" textLength="94" x="621" y="449.5332">User Database</text></g><!--link client to appServer--><g id="link_client_appServer"><path d="M514,127.0908 C514,127.4004 514,127.7109 514,128.0222 C514,129.2676 514,130.527 514,131.7994 C514,134.344 514,136.9399 514,139.5769 C514,150.1249 514,161.3297 514,172.5337 C514,178.1358 514,183.7376 514,189.2571 C514,189.9471 514,190.6357 514,191.3229 C514,191.6665 514,192.0098 514,192.3526 C514,192.524 514,186.6954 514,186.8666 " fill="none" id="client-to-appServer" style="stroke:#181818;stroke-width:1.0;"/><polygon fill="#181818" points="514,192.8666,518,183.8666,514,187.8666,510,183.8666,514,192.8666" style="stroke:#181818;stroke-width:1.0;"/><text fill="#000000" font-family="sans-serif" font-size="13" lengthAdjust="spacing" textLength="126" x="515" y="165.4951">Sends fingerprint data</text></g><!--link appServer to dbServer--><g id="link_appServer_dbServer"><path d="M522.0643,290.975 C522.1414,291.2042 522.2189,291.4346 522.2968,291.6663 C522.6085,292.5931 522.9269,293.5395 523.2514,294.5044 C528.4441,309.9425 535.2281,330.1125 542.0113,350.28 C548.7944,370.4475 555.5766,390.6125 560.7655,406.0406 C561.0898,407.0049 561.4079,407.9506 561.7193,408.8767 C561.7972,409.1083 559.962,403.6516 560.039,403.8806 " fill="none" id="appServer-to-dbServer" style="stroke:#181818;stroke-width:1.0;"/><polygon fill="#181818" points="561.9517,409.5676,562.874,399.762,560.3578,404.8285,555.2914,402.3123,561.9517,409.5676" style="stroke:#181818;stroke-width:1.0;"/><text fill="#000000" font-family="sans-serif" font-size="13" lengthAdjust="spacing" textLength="137" x="537" y="334.4951">Reads/Writes user data</text></g><!--SRC=[PL3BQiCm4BphAnPVSWgzvr18Qtepb8RIyqRQk0BhmKeEXD1_hsJPiUhgDgkPsTdPGKj-S3T3DaAhiMSqS74CRzhsn9vrchzePoYobd0SutTYQebHEmkdMuXaXB1E4JIlWvvSwAebDO01P9dS1QGddV7EPjpKvYU9rYOCdLFZK7GXpuZ5ps9zz7vuB2M-4ayyzBwW_oksIHDjIONfQyPRrNhfEpj98Mo2-J9rl1L-XXIYGuizJLLMcZ5zTRs9wpKjHZnZeFeKTVvpYLeenNbH5EeCik7Sy7x_N9LnICPM1RXKDMUHM2bPy5XvW0z25Pw-M4SgWGl_5m00]--></g></svg>