<?xml version="1.0" encoding="us-ascii" standalone="no"?><svg xmlns="http://www.w3.org/2000/svg" xmlns:xlink="http://www.w3.org/1999/xlink" contentStyleType="text/css" height="598px" preserveAspectRatio="none" style="width:1691px;height:598px;background:#FFFFFF;" version="1.1" viewBox="0 0 1691 598" width="1691px" zoomAndPan="magnify"><defs/><g><text fill="#000000" font-family="sans-serif" font-size="14" font-weight="bold" lengthAdjust="spacing" textLength="381" x="648.25" y="24.5332">Class Diagram for Fingerprint-Based User Recognition</text><!--class RecognitionSystem--><g id="elem_RecognitionSystem"><rect codeLine="4" fill="#F1F1F1" height="118.4375" id="RecognitionSystem" rx="2.5" ry="2.5" style="stroke:#181818;stroke-width:0.5;" width="252" x="576" y="45.6094"/><ellipse cx="637.25" cy="61.6094" fill="#ADD1B2" rx="11" ry="11" style="stroke:#181818;stroke-width:1.0;"/><path d="M640.0156,57.4844 Q640.1719,57.2656 640.3594,57.1563 Q640.5469,57.0469 640.7656,57.0469 Q641.1406,57.0469 641.375,57.3125 Q641.6094,57.5625 641.6094,58.1719 L641.6094,59.625 Q641.6094,60.2344 641.375,60.5 Q641.1406,60.7656 640.7656,60.7656 Q640.4219,60.7656 640.2188,60.5625 Q640.0156,60.375 639.9063,59.8594 Q639.8594,59.5 639.6719,59.3125 Q639.3438,58.9375 638.7344,58.7188 Q638.125,58.5 637.5,58.5 Q636.7344,58.5 636.0938,58.8281 Q635.4688,59.1563 634.9688,59.9063 Q634.4844,60.6563 634.4844,61.6875 L634.4844,62.7813 Q634.4844,64.0156 635.375,64.8438 Q636.2656,65.6563 637.8594,65.6563 Q638.7969,65.6563 639.4531,65.4063 Q639.8438,65.25 640.2656,64.8125 Q640.5313,64.5469 640.6719,64.4688 Q640.8281,64.3906 641.0313,64.3906 Q641.3594,64.3906 641.6094,64.6563 Q641.875,64.9063 641.875,65.25 Q641.875,65.5938 641.5313,66 Q641.0313,66.5781 640.2344,66.9063 Q639.1563,67.3594 637.8594,67.3594 Q636.3438,67.3594 635.1406,66.7344 Q634.1563,66.2344 633.4688,65.1719 Q632.7813,64.0938 632.7813,62.8125 L632.7813,61.6563 Q632.7813,60.3281 633.3906,59.1875 Q634.0156,58.0313 635.1094,57.4219 Q636.2031,56.7969 637.4375,56.7969 Q638.1719,56.7969 638.8125,56.9688 Q639.4688,57.125 640.0156,57.4844 Z " fill="#000000"/><text fill="#000000" font-family="sans-serif" font-size="14" lengthAdjust="spacing" textLength="121" x="657.75" y="67.3379">RecognitionSystem</text><line style="stroke:#181818;stroke-width:0.5;" x1="577" x2="827" y1="77.6094" y2="77.6094"/><rect fill="none" height="6" style="stroke:#C82930;stroke-width:1.0;" width="6" x="584" y="88.9141"/><text fill="#000000" font-family="sans-serif" font-size="14" lengthAdjust="spacing" textLength="80" x="596" y="96.1426">systemID: int</text><rect fill="none" height="6" style="stroke:#C82930;stroke-width:1.0;" width="6" x="584" y="106.5234"/><text fill="#000000" font-family="sans-serif" font-size="14" lengthAdjust="spacing" textLength="80" x="596" y="113.752">name: String</text><line style="stroke:#181818;stroke-width:0.5;" x1="577" x2="827" y1="120.8281" y2="120.8281"/><ellipse cx="587" cy="135.1328" fill="#84BE84" rx="3" ry="3" style="stroke:#038048;stroke-width:1.0;"/><text fill="#000000" font-family="sans-serif" font-size="14" lengthAdjust="spacing" textLength="173" x="596" y="139.3613">enrollUser(user: User): void</text><ellipse cx="587" cy="152.7422" fill="#84BE84" rx="3" ry="3" style="stroke:#038048;stroke-width:1.0;"/><text fill="#000000" font-family="sans-serif" font-size="14" lengthAdjust="spacing" textLength="226" x="596" y="156.9707">recognizeUser(fp: Fingerprint): User</text></g><!--class User--><g id="elem_User"><rect codeLine="12" fill="#F1F1F1" height="118.4375" id="User" rx="2.5" ry="2.5" style="stroke:#181818;stroke-width:0.5;" width="247" x="817.5" y="241.6094"/><ellipse cx="922.25" cy="257.6094" fill="#ADD1B2" rx="11" ry="11" style="stroke:#181818;stroke-width:1.0;"/><path d="M925.0156,253.4844 Q925.1719,253.2656 925.3594,253.1563 Q925.5469,253.0469 925.7656,253.0469 Q926.1406,253.0469 926.375,253.3125 Q926.6094,253.5625 926.6094,254.1719 L926.6094,255.625 Q926.6094,256.2344 926.375,256.5 Q926.1406,256.7656 925.7656,256.7656 Q925.4219,256.7656 925.2188,256.5625 Q925.0156,256.375 924.9063,255.8594 Q924.8594,255.5 924.6719,255.3125 Q924.3438,254.9375 923.7344,254.7188 Q923.125,254.5 922.5,254.5 Q921.7344,254.5 921.0938,254.8281 Q920.4688,255.1563 919.9688,255.9063 Q919.4844,256.6563 919.4844,257.6875 L919.4844,258.7813 Q919.4844,260.0156 920.375,260.8438 Q921.2656,261.6563 922.8594,261.6563 Q923.7969,261.6563 924.4531,261.4063 Q924.8438,261.25 925.2656,260.8125 Q925.5313,260.5469 925.6719,260.4688 Q925.8281,260.3906 926.0313,260.3906 Q926.3594,260.3906 926.6094,260.6563 Q926.875,260.9063 926.875,261.25 Q926.875,261.5938 926.5313,262 Q926.0313,262.5781 925.2344,262.9063 Q924.1563,263.3594 922.8594,263.3594 Q921.3438,263.3594 920.1406,262.7344 Q919.1563,262.2344 918.4688,261.1719 Q917.7813,260.0938 917.7813,258.8125 L917.7813,257.6563 Q917.7813,256.3281 918.3906,255.1875 Q919.0156,254.0313 920.1094,253.4219 Q921.2031,252.7969 922.4375,252.7969 Q923.1719,252.7969 923.8125,252.9688 Q924.4688,253.125 925.0156,253.4844 Z " fill="#000000"/><text fill="#000000" font-family="sans-serif" font-size="14" lengthAdjust="spacing" textLength="29" x="942.75" y="263.3379">User</text><line style="stroke:#181818;stroke-width:0.5;" x1="818.5" x2="1063.5" y1="273.6094" y2="273.6094"/><rect fill="none" height="6" style="stroke:#C82930;stroke-width:1.0;" width="6" x="825.5" y="284.9141"/><text fill="#000000" font-family="sans-serif" font-size="14" lengthAdjust="spacing" textLength="64" x="837.5" y="292.1426">userID: int</text><rect fill="none" height="6" style="stroke:#C82930;stroke-width:1.0;" width="6" x="825.5" y="302.5234"/><text fill="#000000" font-family="sans-serif" font-size="14" lengthAdjust="spacing" textLength="80" x="837.5" y="309.752">name: String</text><rect fill="none" height="6" style="stroke:#C82930;stroke-width:1.0;" width="6" x="825.5" y="320.1328"/><text fill="#000000" font-family="sans-serif" font-size="14" lengthAdjust="spacing" textLength="90" x="837.5" y="327.3613">gender: String</text><line style="stroke:#181818;stroke-width:0.5;" x1="818.5" x2="1063.5" y1="334.4375" y2="334.4375"/><ellipse cx="828.5" cy="348.7422" fill="#84BE84" rx="3" ry="3" style="stroke:#038048;stroke-width:1.0;"/><text fill="#000000" font-family="sans-serif" font-size="14" lengthAdjust="spacing" textLength="221" x="837.5" y="352.9707">getFingerprints(): List&lt;Fingerprint&gt;</text></g><!--class Fingerprint--><g id="elem_Fingerprint"><rect codeLine="20" fill="#F1F1F1" height="153.6563" id="Fingerprint" rx="2.5" ry="2.5" style="stroke:#181818;stroke-width:0.5;" width="162" x="445" y="437.6094"/><ellipse cx="487.45" cy="453.6094" fill="#ADD1B2" rx="11" ry="11" style="stroke:#181818;stroke-width:1.0;"/><path d="M490.2156,449.4844 Q490.3719,449.2656 490.5594,449.1563 Q490.7469,449.0469 490.9656,449.0469 Q491.3406,449.0469 491.575,449.3125 Q491.8094,449.5625 491.8094,450.1719 L491.8094,451.625 Q491.8094,452.2344 491.575,452.5 Q491.3406,452.7656 490.9656,452.7656 Q490.6219,452.7656 490.4188,452.5625 Q490.2156,452.375 490.1063,451.8594 Q490.0594,451.5 489.8719,451.3125 Q489.5438,450.9375 488.9344,450.7188 Q488.325,450.5 487.7,450.5 Q486.9344,450.5 486.2938,450.8281 Q485.6688,451.1563 485.1688,451.9063 Q484.6844,452.6563 484.6844,453.6875 L484.6844,454.7813 Q484.6844,456.0156 485.575,456.8438 Q486.4656,457.6563 488.0594,457.6563 Q488.9969,457.6563 489.6531,457.4063 Q490.0438,457.25 490.4656,456.8125 Q490.7313,456.5469 490.8719,456.4688 Q491.0281,456.3906 491.2313,456.3906 Q491.5594,456.3906 491.8094,456.6563 Q492.075,456.9063 492.075,457.25 Q492.075,457.5938 491.7313,458 Q491.2313,458.5781 490.4344,458.9063 Q489.3563,459.3594 488.0594,459.3594 Q486.5438,459.3594 485.3406,458.7344 Q484.3563,458.2344 483.6688,457.1719 Q482.9813,456.0938 482.9813,454.8125 L482.9813,453.6563 Q482.9813,452.3281 483.5906,451.1875 Q484.2156,450.0313 485.3094,449.4219 Q486.4031,448.7969 487.6375,448.7969 Q488.3719,448.7969 489.0125,448.9688 Q489.6688,449.125 490.2156,449.4844 Z " fill="#000000"/><text fill="#000000" font-family="sans-serif" font-size="14" lengthAdjust="spacing" textLength="69" x="507.55" y="459.3379">Fingerprint</text><line style="stroke:#181818;stroke-width:0.5;" x1="446" x2="606" y1="469.6094" y2="469.6094"/><rect fill="none" height="6" style="stroke:#C82930;stroke-width:1.0;" width="6" x="453" y="480.9141"/><text fill="#000000" font-family="sans-serif" font-size="14" lengthAdjust="spacing" textLength="100" x="465" y="488.1426">fingerprintID: int</text><rect fill="none" height="6" style="stroke:#C82930;stroke-width:1.0;" width="6" x="453" y="498.5234"/><text fill="#000000" font-family="sans-serif" font-size="14" lengthAdjust="spacing" textLength="84" x="465" y="505.752">image: Image</text><rect fill="none" height="6" style="stroke:#C82930;stroke-width:1.0;" width="6" x="453" y="516.1328"/><text fill="#000000" font-family="sans-serif" font-size="14" lengthAdjust="spacing" textLength="113" x="465" y="523.3613">fingerType: String</text><rect fill="none" height="6" style="stroke:#C82930;stroke-width:1.0;" width="6" x="453" y="533.7422"/><text fill="#000000" font-family="sans-serif" font-size="14" lengthAdjust="spacing" textLength="77" x="465" y="540.9707">hand: String</text><rect fill="none" height="6" style="stroke:#C82930;stroke-width:1.0;" width="6" x="453" y="551.3516"/><text fill="#000000" font-family="sans-serif" font-size="14" lengthAdjust="spacing" textLength="136" x="465" y="558.5801">alterationType: String</text><line style="stroke:#181818;stroke-width:0.5;" x1="446" x2="606" y1="565.6563" y2="565.6563"/><ellipse cx="456" cy="579.9609" fill="#84BE84" rx="3" ry="3" style="stroke:#038048;stroke-width:1.0;"/><text fill="#000000" font-family="sans-serif" font-size="14" lengthAdjust="spacing" textLength="94" x="465" y="584.1895">process(): void</text></g><!--class FingerprintSensor--><g id="elem_FingerprintSensor"><rect codeLine="30" fill="#F1F1F1" height="65.6094" id="FingerprintSensor" rx="2.5" ry="2.5" style="stroke:#181818;stroke-width:0.5;" width="161" x="621.5" y="267.6094"/><ellipse cx="643.25" cy="283.6094" fill="#ADD1B2" rx="11" ry="11" style="stroke:#181818;stroke-width:1.0;"/><path d="M646.0156,279.4844 Q646.1719,279.2656 646.3594,279.1563 Q646.5469,279.0469 646.7656,279.0469 Q647.1406,279.0469 647.375,279.3125 Q647.6094,279.5625 647.6094,280.1719 L647.6094,281.625 Q647.6094,282.2344 647.375,282.5 Q647.1406,282.7656 646.7656,282.7656 Q646.4219,282.7656 646.2188,282.5625 Q646.0156,282.375 645.9063,281.8594 Q645.8594,281.5 645.6719,281.3125 Q645.3438,280.9375 644.7344,280.7188 Q644.125,280.5 643.5,280.5 Q642.7344,280.5 642.0938,280.8281 Q641.4688,281.1563 640.9688,281.9063 Q640.4844,282.6563 640.4844,283.6875 L640.4844,284.7813 Q640.4844,286.0156 641.375,286.8438 Q642.2656,287.6563 643.8594,287.6563 Q644.7969,287.6563 645.4531,287.4063 Q645.8438,287.25 646.2656,286.8125 Q646.5313,286.5469 646.6719,286.4688 Q646.8281,286.3906 647.0313,286.3906 Q647.3594,286.3906 647.6094,286.6563 Q647.875,286.9063 647.875,287.25 Q647.875,287.5938 647.5313,288 Q647.0313,288.5781 646.2344,288.9063 Q645.1563,289.3594 643.8594,289.3594 Q642.3438,289.3594 641.1406,288.7344 Q640.1563,288.2344 639.4688,287.1719 Q638.7813,286.0938 638.7813,284.8125 L638.7813,283.6563 Q638.7813,282.3281 639.3906,281.1875 Q640.0156,280.0313 641.1094,279.4219 Q642.2031,278.7969 643.4375,278.7969 Q644.1719,278.7969 644.8125,278.9688 Q645.4688,279.125 646.0156,279.4844 Z " fill="#000000"/><text fill="#000000" font-family="sans-serif" font-size="14" lengthAdjust="spacing" textLength="114" x="658.75" y="289.3379">FingerprintSensor</text><line style="stroke:#181818;stroke-width:0.5;" x1="622.5" x2="781.5" y1="299.6094" y2="299.6094"/><line style="stroke:#181818;stroke-width:0.5;" x1="622.5" x2="781.5" y1="307.6094" y2="307.6094"/><ellipse cx="632.5" cy="321.9141" fill="#84BE84" rx="3" ry="3" style="stroke:#038048;stroke-width:1.0;"/><text fill="#000000" font-family="sans-serif" font-size="14" lengthAdjust="spacing" textLength="135" x="641.5" y="326.1426">capture(): Fingerprint</text></g><!--class Preprocessor--><g id="elem_Preprocessor"><rect codeLine="35" fill="#F1F1F1" height="83.2188" id="Preprocessor" rx="2.5" ry="2.5" style="stroke:#181818;stroke-width:0.5;" width="226" x="7" y="259.1094"/><ellipse cx="73.25" cy="275.1094" fill="#ADD1B2" rx="11" ry="11" style="stroke:#181818;stroke-width:1.0;"/><path d="M76.0156,270.9844 Q76.1719,270.7656 76.3594,270.6563 Q76.5469,270.5469 76.7656,270.5469 Q77.1406,270.5469 77.375,270.8125 Q77.6094,271.0625 77.6094,271.6719 L77.6094,273.125 Q77.6094,273.7344 77.375,274 Q77.1406,274.2656 76.7656,274.2656 Q76.4219,274.2656 76.2188,274.0625 Q76.0156,273.875 75.9063,273.3594 Q75.8594,273 75.6719,272.8125 Q75.3438,272.4375 74.7344,272.2188 Q74.125,272 73.5,272 Q72.7344,272 72.0938,272.3281 Q71.4688,272.6563 70.9688,273.4063 Q70.4844,274.1563 70.4844,275.1875 L70.4844,276.2813 Q70.4844,277.5156 71.375,278.3438 Q72.2656,279.1563 73.8594,279.1563 Q74.7969,279.1563 75.4531,278.9063 Q75.8438,278.75 76.2656,278.3125 Q76.5313,278.0469 76.6719,277.9688 Q76.8281,277.8906 77.0313,277.8906 Q77.3594,277.8906 77.6094,278.1563 Q77.875,278.4063 77.875,278.75 Q77.875,279.0938 77.5313,279.5 Q77.0313,280.0781 76.2344,280.4063 Q75.1563,280.8594 73.8594,280.8594 Q72.3438,280.8594 71.1406,280.2344 Q70.1563,279.7344 69.4688,278.6719 Q68.7813,277.5938 68.7813,276.3125 L68.7813,275.1563 Q68.7813,273.8281 69.3906,272.6875 Q70.0156,271.5313 71.1094,270.9219 Q72.2031,270.2969 73.4375,270.2969 Q74.1719,270.2969 74.8125,270.4688 Q75.4688,270.625 76.0156,270.9844 Z " fill="#000000"/><text fill="#000000" font-family="sans-serif" font-size="14" lengthAdjust="spacing" textLength="85" x="93.75" y="280.8379">Preprocessor</text><line style="stroke:#181818;stroke-width:0.5;" x1="8" x2="232" y1="291.1094" y2="291.1094"/><line style="stroke:#181818;stroke-width:0.5;" x1="8" x2="232" y1="299.1094" y2="299.1094"/><ellipse cx="18" cy="313.4141" fill="#84BE84" rx="3" ry="3" style="stroke:#038048;stroke-width:1.0;"/><text fill="#000000" font-family="sans-serif" font-size="14" lengthAdjust="spacing" textLength="195" x="27" y="317.6426">enhance(image: Image): Image</text><ellipse cx="18" cy="331.0234" fill="#84BE84" rx="3" ry="3" style="stroke:#038048;stroke-width:1.0;"/><text fill="#000000" font-family="sans-serif" font-size="14" lengthAdjust="spacing" textLength="200" x="27" y="335.252">normalize(image: Image): Image</text></g><!--class FeatureExtractor--><g id="elem_FeatureExtractor"><rect codeLine="41" fill="#F1F1F1" height="65.6094" id="FeatureExtractor" rx="2.5" ry="2.5" style="stroke:#181818;stroke-width:0.5;" width="318" x="268" y="267.6094"/><ellipse cx="369.75" cy="283.6094" fill="#ADD1B2" rx="11" ry="11" style="stroke:#181818;stroke-width:1.0;"/><path d="M372.5156,279.4844 Q372.6719,279.2656 372.8594,279.1563 Q373.0469,279.0469 373.2656,279.0469 Q373.6406,279.0469 373.875,279.3125 Q374.1094,279.5625 374.1094,280.1719 L374.1094,281.625 Q374.1094,282.2344 373.875,282.5 Q373.6406,282.7656 373.2656,282.7656 Q372.9219,282.7656 372.7188,282.5625 Q372.5156,282.375 372.4063,281.8594 Q372.3594,281.5 372.1719,281.3125 Q371.8438,280.9375 371.2344,280.7188 Q370.625,280.5 370,280.5 Q369.2344,280.5 368.5938,280.8281 Q367.9688,281.1563 367.4688,281.9063 Q366.9844,282.6563 366.9844,283.6875 L366.9844,284.7813 Q366.9844,286.0156 367.875,286.8438 Q368.7656,287.6563 370.3594,287.6563 Q371.2969,287.6563 371.9531,287.4063 Q372.3438,287.25 372.7656,286.8125 Q373.0313,286.5469 373.1719,286.4688 Q373.3281,286.3906 373.5313,286.3906 Q373.8594,286.3906 374.1094,286.6563 Q374.375,286.9063 374.375,287.25 Q374.375,287.5938 374.0313,288 Q373.5313,288.5781 372.7344,288.9063 Q371.6563,289.3594 370.3594,289.3594 Q368.8438,289.3594 367.6406,288.7344 Q366.6563,288.2344 365.9688,287.1719 Q365.2813,286.0938 365.2813,284.8125 L365.2813,283.6563 Q365.2813,282.3281 365.8906,281.1875 Q366.5156,280.0313 367.6094,279.4219 Q368.7031,278.7969 369.9375,278.7969 Q370.6719,278.7969 371.3125,278.9688 Q371.9688,279.125 372.5156,279.4844 Z " fill="#000000"/><text fill="#000000" font-family="sans-serif" font-size="14" lengthAdjust="spacing" textLength="106" x="390.25" y="289.3379">FeatureExtractor</text><line style="stroke:#181818;stroke-width:0.5;" x1="269" x2="585" y1="299.6094" y2="299.6094"/><line style="stroke:#181818;stroke-width:0.5;" x1="269" x2="585" y1="307.6094" y2="307.6094"/><ellipse cx="279" cy="321.9141" fill="#84BE84" rx="3" ry="3" style="stroke:#038048;stroke-width:1.0;"/><text fill="#000000" font-family="sans-serif" font-size="14" lengthAdjust="spacing" textLength="292" x="288" y="326.1426">extractFeatures(image: Image): FeatureVector</text></g><!--class NeuralNetworkModel--><g id="elem_NeuralNetworkModel"><rect codeLine="46" fill="#F1F1F1" height="118.4375" id="NeuralNetworkModel" rx="2.5" ry="2.5" style="stroke:#181818;stroke-width:0.5;" width="289" x="1395.5" y="241.6094"/><ellipse cx="1471.25" cy="257.6094" fill="#ADD1B2" rx="11" ry="11" style="stroke:#181818;stroke-width:1.0;"/><path d="M1474.0156,253.4844 Q1474.1719,253.2656 1474.3594,253.1563 Q1474.5469,253.0469 1474.7656,253.0469 Q1475.1406,253.0469 1475.375,253.3125 Q1475.6094,253.5625 1475.6094,254.1719 L1475.6094,255.625 Q1475.6094,256.2344 1475.375,256.5 Q1475.1406,256.7656 1474.7656,256.7656 Q1474.4219,256.7656 1474.2188,256.5625 Q1474.0156,256.375 1473.9063,255.8594 Q1473.8594,255.5 1473.6719,255.3125 Q1473.3438,254.9375 1472.7344,254.7188 Q1472.125,254.5 1471.5,254.5 Q1470.7344,254.5 1470.0938,254.8281 Q1469.4688,255.1563 1468.9688,255.9063 Q1468.4844,256.6563 1468.4844,257.6875 L1468.4844,258.7813 Q1468.4844,260.0156 1469.375,260.8438 Q1470.2656,261.6563 1471.8594,261.6563 Q1472.7969,261.6563 1473.4531,261.4063 Q1473.8438,261.25 1474.2656,260.8125 Q1474.5313,260.5469 1474.6719,260.4688 Q1474.8281,260.3906 1475.0313,260.3906 Q1475.3594,260.3906 1475.6094,260.6563 Q1475.875,260.9063 1475.875,261.25 Q1475.875,261.5938 1475.5313,262 Q1475.0313,262.5781 1474.2344,262.9063 Q1473.1563,263.3594 1471.8594,263.3594 Q1470.3438,263.3594 1469.1406,262.7344 Q1468.1563,262.2344 1467.4688,261.1719 Q1466.7813,260.0938 1466.7813,258.8125 L1466.7813,257.6563 Q1466.7813,256.3281 1467.3906,255.1875 Q1468.0156,254.0313 1469.1094,253.4219 Q1470.2031,252.7969 1471.4375,252.7969 Q1472.1719,252.7969 1472.8125,252.9688 Q1473.4688,253.125 1474.0156,253.4844 Z " fill="#000000"/><text fill="#000000" font-family="sans-serif" font-size="14" lengthAdjust="spacing" textLength="129" x="1491.75" y="263.3379">NeuralNetworkModel</text><line style="stroke:#181818;stroke-width:0.5;" x1="1396.5" x2="1683.5" y1="273.6094" y2="273.6094"/><rect fill="none" height="6" style="stroke:#C82930;stroke-width:1.0;" width="6" x="1403.5" y="284.9141"/><text fill="#000000" font-family="sans-serif" font-size="14" lengthAdjust="spacing" textLength="120" x="1415.5" y="292.1426">architecture: String</text><rect fill="none" height="6" style="stroke:#C82930;stroke-width:1.0;" width="6" x="1403.5" y="302.5234"/><text fill="#000000" font-family="sans-serif" font-size="14" lengthAdjust="spacing" textLength="209" x="1415.5" y="309.752">parameters: Map&lt;String, Object&gt;</text><line style="stroke:#181818;stroke-width:0.5;" x1="1396.5" x2="1683.5" y1="316.8281" y2="316.8281"/><ellipse cx="1406.5" cy="331.1328" fill="#84BE84" rx="3" ry="3" style="stroke:#038048;stroke-width:1.0;"/><text fill="#000000" font-family="sans-serif" font-size="14" lengthAdjust="spacing" textLength="157" x="1415.5" y="335.3613">train(data: Dataset): void</text><ellipse cx="1406.5" cy="348.7422" fill="#84BE84" rx="3" ry="3" style="stroke:#038048;stroke-width:1.0;"/><text fill="#000000" font-family="sans-serif" font-size="14" lengthAdjust="spacing" textLength="263" x="1415.5" y="352.9707">predict(features: FeatureVector): double[]</text></g><!--class Database--><g id="elem_Database"><rect codeLine="54" fill="#F1F1F1" height="118.4375" id="Database" rx="2.5" ry="2.5" style="stroke:#181818;stroke-width:0.5;" width="260" x="1100" y="241.6094"/><ellipse cx="1195.25" cy="257.6094" fill="#ADD1B2" rx="11" ry="11" style="stroke:#181818;stroke-width:1.0;"/><path d="M1198.0156,253.4844 Q1198.1719,253.2656 1198.3594,253.1563 Q1198.5469,253.0469 1198.7656,253.0469 Q1199.1406,253.0469 1199.375,253.3125 Q1199.6094,253.5625 1199.6094,254.1719 L1199.6094,255.625 Q1199.6094,256.2344 1199.375,256.5 Q1199.1406,256.7656 1198.7656,256.7656 Q1198.4219,256.7656 1198.2188,256.5625 Q1198.0156,256.375 1197.9063,255.8594 Q1197.8594,255.5 1197.6719,255.3125 Q1197.3438,254.9375 1196.7344,254.7188 Q1196.125,254.5 1195.5,254.5 Q1194.7344,254.5 1194.0938,254.8281 Q1193.4688,255.1563 1192.9688,255.9063 Q1192.4844,256.6563 1192.4844,257.6875 L1192.4844,258.7813 Q1192.4844,260.0156 1193.375,260.8438 Q1194.2656,261.6563 1195.8594,261.6563 Q1196.7969,261.6563 1197.4531,261.4063 Q1197.8438,261.25 1198.2656,260.8125 Q1198.5313,260.5469 1198.6719,260.4688 Q1198.8281,260.3906 1199.0313,260.3906 Q1199.3594,260.3906 1199.6094,260.6563 Q1199.875,260.9063 1199.875,261.25 Q1199.875,261.5938 1199.5313,262 Q1199.0313,262.5781 1198.2344,262.9063 Q1197.1563,263.3594 1195.8594,263.3594 Q1194.3438,263.3594 1193.1406,262.7344 Q1192.1563,262.2344 1191.4688,261.1719 Q1190.7813,260.0938 1190.7813,258.8125 L1190.7813,257.6563 Q1190.7813,256.3281 1191.3906,255.1875 Q1192.0156,254.0313 1193.1094,253.4219 Q1194.2031,252.7969 1195.4375,252.7969 Q1196.1719,252.7969 1196.8125,252.9688 Q1197.4688,253.125 1198.0156,253.4844 Z " fill="#000000"/><text fill="#000000" font-family="sans-serif" font-size="14" lengthAdjust="spacing" textLength="61" x="1215.75" y="263.3379">Database</text><line style="stroke:#181818;stroke-width:0.5;" x1="1101" x2="1359" y1="273.6094" y2="273.6094"/><line style="stroke:#181818;stroke-width:0.5;" x1="1101" x2="1359" y1="281.6094" y2="281.6094"/><ellipse cx="1111" cy="295.9141" fill="#84BE84" rx="3" ry="3" style="stroke:#038048;stroke-width:1.0;"/><text fill="#000000" font-family="sans-serif" font-size="14" lengthAdjust="spacing" textLength="162" x="1120" y="300.1426">addUser(user: User): void</text><ellipse cx="1111" cy="313.5234" fill="#84BE84" rx="3" ry="3" style="stroke:#038048;stroke-width:1.0;"/><text fill="#000000" font-family="sans-serif" font-size="14" lengthAdjust="spacing" textLength="160" x="1120" y="317.752">getUser(userID: int): User</text><ellipse cx="1111" cy="331.1328" fill="#84BE84" rx="3" ry="3" style="stroke:#038048;stroke-width:1.0;"/><text fill="#000000" font-family="sans-serif" font-size="14" lengthAdjust="spacing" textLength="234" x="1120" y="335.3613">storeFingerprint(fp: Fingerprint): void</text><ellipse cx="1111" cy="348.7422" fill="#84BE84" rx="3" ry="3" style="stroke:#038048;stroke-width:1.0;"/><text fill="#000000" font-family="sans-serif" font-size="14" lengthAdjust="spacing" textLength="221" x="1120" y="352.9707">getFingerprints(): List&lt;Fingerprint&gt;</text></g><!--class FeatureVector--><g id="elem_FeatureVector"><rect fill="#F1F1F1" height="48" id="FeatureVector" rx="2.5" ry="2.5" style="stroke:#181818;stroke-width:0.5;" width="123" x="1478.5" y="490.6094"/><ellipse cx="1493.5" cy="506.6094" fill="#ADD1B2" rx="11" ry="11" style="stroke:#181818;stroke-width:1.0;"/><path d="M1496.2656,502.4844 Q1496.4219,502.2656 1496.6094,502.1563 Q1496.7969,502.0469 1497.0156,502.0469 Q1497.3906,502.0469 1497.625,502.3125 Q1497.8594,502.5625 1497.8594,503.1719 L1497.8594,504.625 Q1497.8594,505.2344 1497.625,505.5 Q1497.3906,505.7656 1497.0156,505.7656 Q1496.6719,505.7656 1496.4688,505.5625 Q1496.2656,505.375 1496.1563,504.8594 Q1496.1094,504.5 1495.9219,504.3125 Q1495.5938,503.9375 1494.9844,503.7188 Q1494.375,503.5 1493.75,503.5 Q1492.9844,503.5 1492.3438,503.8281 Q1491.7188,504.1563 1491.2188,504.9063 Q1490.7344,505.6563 1490.7344,506.6875 L1490.7344,507.7813 Q1490.7344,509.0156 1491.625,509.8438 Q1492.5156,510.6563 1494.1094,510.6563 Q1495.0469,510.6563 1495.7031,510.4063 Q1496.0938,510.25 1496.5156,509.8125 Q1496.7813,509.5469 1496.9219,509.4688 Q1497.0781,509.3906 1497.2813,509.3906 Q1497.6094,509.3906 1497.8594,509.6563 Q1498.125,509.9063 1498.125,510.25 Q1498.125,510.5938 1497.7813,511 Q1497.2813,511.5781 1496.4844,511.9063 Q1495.4063,512.3594 1494.1094,512.3594 Q1492.5938,512.3594 1491.3906,511.7344 Q1490.4063,511.2344 1489.7188,510.1719 Q1489.0313,509.0938 1489.0313,507.8125 L1489.0313,506.6563 Q1489.0313,505.3281 1489.6406,504.1875 Q1490.2656,503.0313 1491.3594,502.4219 Q1492.4531,501.7969 1493.6875,501.7969 Q1494.4219,501.7969 1495.0625,501.9688 Q1495.7188,502.125 1496.2656,502.4844 Z " fill="#000000"/><text fill="#000000" font-family="sans-serif" font-size="14" lengthAdjust="spacing" textLength="91" x="1507.5" y="512.3379">FeatureVector</text><line style="stroke:#181818;stroke-width:0.5;" x1="1479.5" x2="1600.5" y1="522.6094" y2="522.6094"/><line style="stroke:#181818;stroke-width:0.5;" x1="1479.5" x2="1600.5" y1="530.6094" y2="530.6094"/></g><!--link RecognitionSystem to FingerprintSensor--><g id="link_RecognitionSystem_FingerprintSensor"><path codeLine="62" d="M702,163.8194 C702,197.7494 702,233.2594 702,261.3794 " fill="none" id="RecognitionSystem-to-FingerprintSensor" style="stroke:#181818;stroke-width:1.0;"/><polygon fill="#181818" points="702,267.3794,706,258.3794,702,262.3794,698,258.3794,702,267.3794" style="stroke:#181818;stroke-width:1.0;"/><text fill="#000000" font-family="sans-serif" font-size="13" lengthAdjust="spacing" textLength="28" x="703" y="208.1045">uses</text></g><!--link RecognitionSystem to Preprocessor--><g id="link_RecognitionSystem_Preprocessor"><path codeLine="63" d="M575.88,138.9094 C484.42,164.1794 358.3,201.3394 250,241.6094 C235.87,246.8594 226.6025,250.5403 212.2925,256.6903 " fill="none" id="RecognitionSystem-to-Preprocessor" style="stroke:#181818;stroke-width:1.0;"/><polygon fill="#181818" points="206.78,259.0594,216.6281,259.1807,211.3737,257.0851,213.4693,251.8308,206.78,259.0594" style="stroke:#181818;stroke-width:1.0;"/><text fill="#000000" font-family="sans-serif" font-size="13" lengthAdjust="spacing" textLength="79" x="386" y="208.1045">processes via</text></g><!--link RecognitionSystem to FeatureExtractor--><g id="link_RecognitionSystem_FeatureExtractor"><path codeLine="64" d="M619.49,163.8194 C571.4,197.7494 517.4532,235.8012 477.5832,263.9212 " fill="none" id="RecognitionSystem-to-FeatureExtractor" style="stroke:#181818;stroke-width:1.0;"/><polygon fill="#181818" points="472.68,267.3794,482.3402,265.4609,476.766,264.4976,477.7293,258.9233,472.68,267.3794" style="stroke:#181818;stroke-width:1.0;"/><text fill="#000000" font-family="sans-serif" font-size="13" lengthAdjust="spacing" textLength="52" x="574" y="208.1045">analyzes</text></g><!--link RecognitionSystem to NeuralNetworkModel--><g id="link_RecognitionSystem_NeuralNetworkModel"><path codeLine="65" d="M828.19,125.3594 C964.96,148.0594 1188.99,189.0594 1378,241.6094 C1383.76,243.2094 1383.8592,243.1647 1389.7492,244.9547 " fill="none" id="RecognitionSystem-to-NeuralNetworkModel" style="stroke:#181818;stroke-width:1.0;"/><polygon fill="#181818" points="1395.49,246.6994,1388.042,240.2552,1390.706,245.2455,1385.7158,247.9096,1395.49,246.6994" style="stroke:#181818;stroke-width:1.0;"/><text fill="#000000" font-family="sans-serif" font-size="13" lengthAdjust="spacing" textLength="73" x="1251" y="208.1045">predicts with</text></g><!--link RecognitionSystem to Database--><g id="link_RecognitionSystem_Database"><path codeLine="66" d="M828.15,149.6994 C902.27,175.8694 997.69,210.0094 1082,241.6094 C1087.81,243.7894 1088.1425,243.895 1094.1325,246.175 " fill="none" id="RecognitionSystem-to-Database" style="stroke:#181818;stroke-width:1.0;"/><polygon fill="#181818" points="1099.74,248.3094,1092.7517,241.3694,1095.0671,246.5307,1089.9058,248.8461,1099.74,248.3094" style="stroke:#181818;stroke-width:1.0;"/><text fill="#000000" font-family="sans-serif" font-size="13" lengthAdjust="spacing" textLength="82" x="1001" y="208.1045">stores/queries</text></g><!--link User to Fingerprint--><g id="link_User_Fingerprint"><path codeLine="68" d="M827.33,359.6794 C757.61,395.2894 670,440.0494 607.25,472.0994 " fill="none" id="User-Fingerprint" style="stroke:#181818;stroke-width:1.0;"/><text fill="#000000" font-family="sans-serif" font-size="13" lengthAdjust="spacing" textLength="30" x="760" y="404.1045">owns</text><text fill="#000000" font-family="sans-serif" font-size="13" lengthAdjust="spacing" textLength="7" x="806.0499" y="381.3434">1</text><text fill="#000000" font-family="sans-serif" font-size="13" lengthAdjust="spacing" textLength="5" x="614.9707" y="464.9702">*</text></g><!--link FingerprintSensor to Fingerprint--><g id="link_FingerprintSensor_Fingerprint"><path codeLine="69" d="M675.27,333.8094 C652.48,361.2594 622.6322,397.2026 593.0322,432.8626 " fill="none" id="FingerprintSensor-to-Fingerprint" style="stroke:#181818;stroke-width:1.0;"/><polygon fill="#181818" points="589.2,437.4794,598.0261,433.109,592.3935,433.6321,591.8704,427.9995,589.2,437.4794" style="stroke:#181818;stroke-width:1.0;"/><text fill="#000000" font-family="sans-serif" font-size="13" lengthAdjust="spacing" textLength="50" x="626" y="404.1045">captures</text></g><!--link Preprocessor to Fingerprint--><g id="link_Preprocessor_Fingerprint"><path codeLine="70" d="M197.8,342.2294 C268.72,379.2694 367.7615,430.9821 439.6715,468.5321 " fill="none" id="Preprocessor-to-Fingerprint" style="stroke:#181818;stroke-width:1.0;"/><polygon fill="#181818" points="444.99,471.3094,438.8637,463.5978,440.5579,468.995,435.1607,470.6892,444.99,471.3094" style="stroke:#181818;stroke-width:1.0;"/><text fill="#000000" font-family="sans-serif" font-size="13" lengthAdjust="spacing" textLength="56" x="324" y="404.1045">enhances</text></g><!--link FeatureExtractor to Fingerprint--><g id="link_FeatureExtractor_Fingerprint"><path codeLine="71" d="M442.04,333.8094 C454.86,361.2594 471.2616,396.3828 487.9116,432.0428 " fill="none" id="FeatureExtractor-to-Fingerprint" style="stroke:#181818;stroke-width:1.0;"/><polygon fill="#181818" points="490.45,437.4794,490.2668,427.6322,488.3347,432.9489,483.018,431.0168,490.45,437.4794" style="stroke:#181818;stroke-width:1.0;"/><text fill="#000000" font-family="sans-serif" font-size="13" lengthAdjust="spacing" textLength="76" x="478" y="404.1045">extracts from</text></g><!--link NeuralNetworkModel to FeatureVector--><g id="link_NeuralNetworkModel_FeatureVector"><path codeLine="72" d="M1540,359.8194 C1540,402.9694 1540,453.4794 1540,484.5794 " fill="none" id="NeuralNetworkModel-to-FeatureVector" style="stroke:#181818;stroke-width:1.0;stroke-dasharray:7.0,7.0;"/><polygon fill="#181818" points="1540,490.5794,1544,481.5794,1540,485.5794,1536,481.5794,1540,490.5794" style="stroke:#181818;stroke-width:1.0;"/><text fill="#000000" font-family="sans-serif" font-size="13" lengthAdjust="spacing" textLength="43" x="1541" y="404.1045">outputs</text></g><!--SRC=[ZLHDRzD04BtxLuny8QMa5LSBHG82KYLQK5ku80uRU-8isBjcPvsILlntPZ-Ih1EdufAFtJVpthoT6IjjW_2-4KGmbw8seeMbDl1HgXfDPwIoqtU2i8AlX0PkiTIrabPgbMKlu7w5K6g3G1kos89T2GlQb2iaQuH5uXC4im-2pkWIYRBICoRfxaA6fmnW6jDTpGjWVd-YH8i5t5aMLFF1EQ0okccSg4dF7uNNTrR0MilA0oBh8thCiYlIciu2FllhghZ5pY2XiWG2N39ua7O52wbRPC8IAc55LEnT228TyXc9KwXHLKvPehf6cwYW2Ulu9Cc-IGvd8wAM-siWqNODHZb9N5ILG5DniXKrgxjoNmdkVjCDDQ-4gWO7eh78JyalT80ztxxbPEjwr4sTLYGNt5QkaKhHsTw538hmSWYMHhTS7fT93ArmBSkHokx2zPCd3VdGaIQGmFt5ODJa-8pkhLIEXOCz8JSDrrTYoxO25mfAcrOqyj7N5udtINQSCMoIcdYsD_Dyb-S4n8lxy8T7eWpFYSBL06iiBPD45uxysJeHq35-BohyZxTqo1pFltcAeC1DgyBUY8Q_x8Cslw3L5JQkaoll4cUKodddpE7-gsIPE7FZOsz2wBMF33qdUEAbPIOc73HF9tYV83SG5N0jkZVXwXLyNlnazCpNuJadRiGAcFCdeKt7EAgOHC_ee3A6LhhdPll-8nJv5aYw0V53k-1ib_oUcYHZDxv6ub-kH3U-v0jDZDykfdaCZbwBgdfcq_1GxsxZp6ttYxjsX9ZqwiWkIbFzztveVDVIIdO42tuKHENNRQbRda2tERBZ_JgTpaP6gu2SnLD-8c0m4eoDVtYqrbAS2ZfgMmuKIZIRnzD48ntcwNmBa5_Bfq9tByO1td6w_DsZaOuiyrixVvqp4lAN-M1jCbu_A4OTst9WbeF6zSFmWIaZoBWqNE939yRGs-tWba6UZHXnSJ63VD3xkTVUswwtbFy3]--></g></svg>