<?xml version="1.0" encoding="us-ascii" standalone="no"?><svg xmlns="http://www.w3.org/2000/svg" xmlns:xlink="http://www.w3.org/1999/xlink" contentStyleType="text/css" height="615px" preserveAspectRatio="none" style="width:658px;height:615px;background:#FFFFFF;" version="1.1" viewBox="0 0 658 615" width="658px" zoomAndPan="magnify"><defs/><g><!--class FingerprintSensor--><g id="elem_FingerprintSensor"><rect codeLine="3" fill="#F1F1F1" height="65.6094" id="FingerprintSensor" rx="2.5" ry="2.5" style="stroke:#181818;stroke-width:0.5;" width="275" x="7" y="355"/><ellipse cx="83.25" cy="371" fill="#ADD1B2" rx="11" ry="11" style="stroke:#181818;stroke-width:1.0;"/><path d="M86.0156,366.875 Q86.1719,366.6563 86.3594,366.5469 Q86.5469,366.4375 86.7656,366.4375 Q87.1406,366.4375 87.375,366.6953 Q87.6094,366.9531 87.6094,367.5625 L87.6094,369.0156 Q87.6094,369.625 87.375,369.8906 Q87.1406,370.1563 86.7656,370.1563 Q86.4219,370.1563 86.2188,369.9531 Q86.0156,369.7656 85.9063,369.25 Q85.8594,368.8906 85.6719,368.7031 Q85.3438,368.3281 84.7344,368.1094 Q84.125,367.8906 83.5,367.8906 Q82.7344,367.8906 82.1016,368.2188 Q81.4688,368.5469 80.9766,369.2969 Q80.4844,370.0469 80.4844,371.0781 L80.4844,372.1719 Q80.4844,373.4063 81.375,374.2266 Q82.2656,375.0469 83.8594,375.0469 Q84.7969,375.0469 85.4531,374.7969 Q85.8438,374.6406 86.2656,374.2031 Q86.5313,373.9375 86.6797,373.8594 Q86.8281,373.7813 87.0313,373.7813 Q87.3594,373.7813 87.6172,374.0391 Q87.875,374.2969 87.875,374.6406 Q87.875,374.9844 87.5313,375.3906 Q87.0313,375.9688 86.2344,376.2969 Q85.1563,376.75 83.8594,376.75 Q82.3438,376.75 81.1406,376.125 Q80.1563,375.625 79.4688,374.5547 Q78.7813,373.4844 78.7813,372.2031 L78.7813,371.0469 Q78.7813,369.7188 79.3984,368.5703 Q80.0156,367.4219 81.1094,366.8047 Q82.2031,366.1875 83.4375,366.1875 Q84.1719,366.1875 84.8203,366.3516 Q85.4688,366.5156 86.0156,366.875 Z " fill="#000000"/><text fill="#000000" font-family="sans-serif" font-size="14" lengthAdjust="spacing" textLength="114" x="103.75" y="376.7285">FingerprintSensor</text><line style="stroke:#181818;stroke-width:0.5;" x1="8" x2="281" y1="387" y2="387"/><line style="stroke:#181818;stroke-width:0.5;" x1="8" x2="281" y1="395" y2="395"/><ellipse cx="18" cy="409.3047" fill="#84BE84" rx="3" ry="3" style="stroke:#038048;stroke-width:1.0;"/><text fill="#000000" font-family="sans-serif" font-size="14" lengthAdjust="spacing" textLength="249" x="27" y="413.5332">scanFingerprint() : FingerprintTemplate</text></g><!--class FingerprintTemplate--><g id="elem_FingerprintTemplate"><rect codeLine="7" fill="#F1F1F1" height="83.2188" id="FingerprintTemplate" rx="2.5" ry="2.5" style="stroke:#181818;stroke-width:0.5;" width="344" x="70.5" y="525"/><ellipse cx="174.25" cy="541" fill="#ADD1B2" rx="11" ry="11" style="stroke:#181818;stroke-width:1.0;"/><path d="M177.0156,536.875 Q177.1719,536.6563 177.3594,536.5469 Q177.5469,536.4375 177.7656,536.4375 Q178.1406,536.4375 178.375,536.6953 Q178.6094,536.9531 178.6094,537.5625 L178.6094,539.0156 Q178.6094,539.625 178.375,539.8906 Q178.1406,540.1563 177.7656,540.1563 Q177.4219,540.1563 177.2188,539.9531 Q177.0156,539.7656 176.9063,539.25 Q176.8594,538.8906 176.6719,538.7031 Q176.3438,538.3281 175.7344,538.1094 Q175.125,537.8906 174.5,537.8906 Q173.7344,537.8906 173.1016,538.2188 Q172.4688,538.5469 171.9766,539.2969 Q171.4844,540.0469 171.4844,541.0781 L171.4844,542.1719 Q171.4844,543.4063 172.375,544.2266 Q173.2656,545.0469 174.8594,545.0469 Q175.7969,545.0469 176.4531,544.7969 Q176.8438,544.6406 177.2656,544.2031 Q177.5313,543.9375 177.6797,543.8594 Q177.8281,543.7813 178.0313,543.7813 Q178.3594,543.7813 178.6172,544.0391 Q178.875,544.2969 178.875,544.6406 Q178.875,544.9844 178.5313,545.3906 Q178.0313,545.9688 177.2344,546.2969 Q176.1563,546.75 174.8594,546.75 Q173.3438,546.75 172.1406,546.125 Q171.1563,545.625 170.4688,544.5547 Q169.7813,543.4844 169.7813,542.2031 L169.7813,541.0469 Q169.7813,539.7188 170.3984,538.5703 Q171.0156,537.4219 172.1094,536.8047 Q173.2031,536.1875 174.4375,536.1875 Q175.1719,536.1875 175.8203,536.3516 Q176.4688,536.5156 177.0156,536.875 Z " fill="#000000"/><text fill="#000000" font-family="sans-serif" font-size="14" lengthAdjust="spacing" textLength="128" x="194.75" y="546.7285">FingerprintTemplate</text><line style="stroke:#181818;stroke-width:0.5;" x1="71.5" x2="413.5" y1="557" y2="557"/><rect fill="none" height="6" style="stroke:#C82930;stroke-width:1.0;" width="6" x="78.5" y="568.3047"/><text fill="#000000" font-family="sans-serif" font-size="14" lengthAdjust="spacing" textLength="71" x="90.5" y="575.5332">data: byte[]</text><line style="stroke:#181818;stroke-width:0.5;" x1="71.5" x2="413.5" y1="582.6094" y2="582.6094"/><ellipse cx="81.5" cy="596.9141" fill="#84BE84" rx="3" ry="3" style="stroke:#038048;stroke-width:1.0;"/><text fill="#000000" font-family="sans-serif" font-size="14" lengthAdjust="spacing" textLength="318" x="90.5" y="601.1426">compare(template: FingerprintTemplate) : boolean</text></g><!--class User--><g id="elem_User"><rect codeLine="12" fill="#F1F1F1" height="118.4375" id="User" rx="2.5" ry="2.5" style="stroke:#181818;stroke-width:0.5;" width="265" x="317" y="329"/><ellipse cx="430.75" cy="345" fill="#ADD1B2" rx="11" ry="11" style="stroke:#181818;stroke-width:1.0;"/><path d="M433.5156,340.875 Q433.6719,340.6563 433.8594,340.5469 Q434.0469,340.4375 434.2656,340.4375 Q434.6406,340.4375 434.875,340.6953 Q435.1094,340.9531 435.1094,341.5625 L435.1094,343.0156 Q435.1094,343.625 434.875,343.8906 Q434.6406,344.1563 434.2656,344.1563 Q433.9219,344.1563 433.7188,343.9531 Q433.5156,343.7656 433.4063,343.25 Q433.3594,342.8906 433.1719,342.7031 Q432.8438,342.3281 432.2344,342.1094 Q431.625,341.8906 431,341.8906 Q430.2344,341.8906 429.6016,342.2188 Q428.9688,342.5469 428.4766,343.2969 Q427.9844,344.0469 427.9844,345.0781 L427.9844,346.1719 Q427.9844,347.4063 428.875,348.2266 Q429.7656,349.0469 431.3594,349.0469 Q432.2969,349.0469 432.9531,348.7969 Q433.3438,348.6406 433.7656,348.2031 Q434.0313,347.9375 434.1797,347.8594 Q434.3281,347.7813 434.5313,347.7813 Q434.8594,347.7813 435.1172,348.0391 Q435.375,348.2969 435.375,348.6406 Q435.375,348.9844 435.0313,349.3906 Q434.5313,349.9688 433.7344,350.2969 Q432.6563,350.75 431.3594,350.75 Q429.8438,350.75 428.6406,350.125 Q427.6563,349.625 426.9688,348.5547 Q426.2813,347.4844 426.2813,346.2031 L426.2813,345.0469 Q426.2813,343.7188 426.8984,342.5703 Q427.5156,341.4219 428.6094,340.8047 Q429.7031,340.1875 430.9375,340.1875 Q431.6719,340.1875 432.3203,340.3516 Q432.9688,340.5156 433.5156,340.875 Z " fill="#000000"/><text fill="#000000" font-family="sans-serif" font-size="14" lengthAdjust="spacing" textLength="29" x="451.25" y="350.7285">User</text><line style="stroke:#181818;stroke-width:0.5;" x1="318" x2="581" y1="361" y2="361"/><rect fill="none" height="6" style="stroke:#C82930;stroke-width:1.0;" width="6" x="325" y="372.3047"/><text fill="#000000" font-family="sans-serif" font-size="14" lengthAdjust="spacing" textLength="34" x="337" y="379.5332">id: int</text><rect fill="none" height="6" style="stroke:#C82930;stroke-width:1.0;" width="6" x="325" y="389.9141"/><text fill="#000000" font-family="sans-serif" font-size="14" lengthAdjust="spacing" textLength="80" x="337" y="397.1426">name: String</text><rect fill="none" height="6" style="stroke:#C82930;stroke-width:1.0;" width="6" x="325" y="407.5234"/><text fill="#000000" font-family="sans-serif" font-size="14" lengthAdjust="spacing" textLength="200" x="337" y="414.752">fingerprint: FingerprintTemplate</text><line style="stroke:#181818;stroke-width:0.5;" x1="318" x2="581" y1="421.8281" y2="421.8281"/><ellipse cx="328" cy="436.1328" fill="#84BE84" rx="3" ry="3" style="stroke:#038048;stroke-width:1.0;"/><text fill="#000000" font-family="sans-serif" font-size="14" lengthAdjust="spacing" textLength="239" x="337" y="440.3613">getFingerprint() : FingerprintTemplate</text></g><!--class AuthenticationManager--><g id="elem_AuthenticationManager"><rect codeLine="19" fill="#F1F1F1" height="83.2188" id="AuthenticationManager" rx="2.5" ry="2.5" style="stroke:#181818;stroke-width:0.5;" width="345" x="277" y="7"/><ellipse cx="372.25" cy="23" fill="#ADD1B2" rx="11" ry="11" style="stroke:#181818;stroke-width:1.0;"/><path d="M375.0156,18.875 Q375.1719,18.6563 375.3594,18.5469 Q375.5469,18.4375 375.7656,18.4375 Q376.1406,18.4375 376.375,18.6953 Q376.6094,18.9531 376.6094,19.5625 L376.6094,21.0156 Q376.6094,21.625 376.375,21.8906 Q376.1406,22.1563 375.7656,22.1563 Q375.4219,22.1563 375.2188,21.9531 Q375.0156,21.7656 374.9063,21.25 Q374.8594,20.8906 374.6719,20.7031 Q374.3438,20.3281 373.7344,20.1094 Q373.125,19.8906 372.5,19.8906 Q371.7344,19.8906 371.1016,20.2188 Q370.4688,20.5469 369.9766,21.2969 Q369.4844,22.0469 369.4844,23.0781 L369.4844,24.1719 Q369.4844,25.4063 370.375,26.2266 Q371.2656,27.0469 372.8594,27.0469 Q373.7969,27.0469 374.4531,26.7969 Q374.8438,26.6406 375.2656,26.2031 Q375.5313,25.9375 375.6797,25.8594 Q375.8281,25.7813 376.0313,25.7813 Q376.3594,25.7813 376.6172,26.0391 Q376.875,26.2969 376.875,26.6406 Q376.875,26.9844 376.5313,27.3906 Q376.0313,27.9688 375.2344,28.2969 Q374.1563,28.75 372.8594,28.75 Q371.3438,28.75 370.1406,28.125 Q369.1563,27.625 368.4688,26.5547 Q367.7813,25.4844 367.7813,24.2031 L367.7813,23.0469 Q367.7813,21.7188 368.3984,20.5703 Q369.0156,19.4219 370.1094,18.8047 Q371.2031,18.1875 372.4375,18.1875 Q373.1719,18.1875 373.8203,18.3516 Q374.4688,18.5156 375.0156,18.875 Z " fill="#000000"/><text fill="#000000" font-family="sans-serif" font-size="14" lengthAdjust="spacing" textLength="146" x="392.75" y="28.7285">AuthenticationManager</text><line style="stroke:#181818;stroke-width:0.5;" x1="278" x2="621" y1="39" y2="39"/><line style="stroke:#181818;stroke-width:0.5;" x1="278" x2="621" y1="47" y2="47"/><ellipse cx="288" cy="61.3047" fill="#84BE84" rx="3" ry="3" style="stroke:#038048;stroke-width:1.0;"/><text fill="#000000" font-family="sans-serif" font-size="14" lengthAdjust="spacing" textLength="190" x="297" y="65.5332">registerUser(user: User) : void</text><ellipse cx="288" cy="78.9141" fill="#84BE84" rx="3" ry="3" style="stroke:#038048;stroke-width:1.0;"/><text fill="#000000" font-family="sans-serif" font-size="14" lengthAdjust="spacing" textLength="319" x="297" y="83.1426">authenticate(template: FingerprintTemplate) : User</text></g><!--class FingerprintDatabase--><g id="elem_FingerprintDatabase"><rect codeLine="24" fill="#F1F1F1" height="83.2188" id="FingerprintDatabase" rx="2.5" ry="2.5" style="stroke:#181818;stroke-width:0.5;" width="404" x="247.5" y="168"/><ellipse cx="380.25" cy="184" fill="#ADD1B2" rx="11" ry="11" style="stroke:#181818;stroke-width:1.0;"/><path d="M383.0156,179.875 Q383.1719,179.6563 383.3594,179.5469 Q383.5469,179.4375 383.7656,179.4375 Q384.1406,179.4375 384.375,179.6953 Q384.6094,179.9531 384.6094,180.5625 L384.6094,182.0156 Q384.6094,182.625 384.375,182.8906 Q384.1406,183.1563 383.7656,183.1563 Q383.4219,183.1563 383.2188,182.9531 Q383.0156,182.7656 382.9063,182.25 Q382.8594,181.8906 382.6719,181.7031 Q382.3438,181.3281 381.7344,181.1094 Q381.125,180.8906 380.5,180.8906 Q379.7344,180.8906 379.1016,181.2188 Q378.4688,181.5469 377.9766,182.2969 Q377.4844,183.0469 377.4844,184.0781 L377.4844,185.1719 Q377.4844,186.4063 378.375,187.2266 Q379.2656,188.0469 380.8594,188.0469 Q381.7969,188.0469 382.4531,187.7969 Q382.8438,187.6406 383.2656,187.2031 Q383.5313,186.9375 383.6797,186.8594 Q383.8281,186.7813 384.0313,186.7813 Q384.3594,186.7813 384.6172,187.0391 Q384.875,187.2969 384.875,187.6406 Q384.875,187.9844 384.5313,188.3906 Q384.0313,188.9688 383.2344,189.2969 Q382.1563,189.75 380.8594,189.75 Q379.3438,189.75 378.1406,189.125 Q377.1563,188.625 376.4688,187.5547 Q375.7813,186.4844 375.7813,185.2031 L375.7813,184.0469 Q375.7813,182.7188 376.3984,181.5703 Q377.0156,180.4219 378.1094,179.8047 Q379.2031,179.1875 380.4375,179.1875 Q381.1719,179.1875 381.8203,179.3516 Q382.4688,179.5156 383.0156,179.875 Z " fill="#000000"/><text fill="#000000" font-family="sans-serif" font-size="14" lengthAdjust="spacing" textLength="130" x="400.75" y="189.7285">FingerprintDatabase</text><line style="stroke:#181818;stroke-width:0.5;" x1="248.5" x2="650.5" y1="200" y2="200"/><rect fill="none" height="6" style="stroke:#C82930;stroke-width:1.0;" width="6" x="255.5" y="211.3047"/><text fill="#000000" font-family="sans-serif" font-size="14" lengthAdjust="spacing" textLength="110" x="267.5" y="218.5332">users: List&lt;User&gt;</text><line style="stroke:#181818;stroke-width:0.5;" x1="248.5" x2="650.5" y1="225.6094" y2="225.6094"/><ellipse cx="258.5" cy="239.9141" fill="#84BE84" rx="3" ry="3" style="stroke:#038048;stroke-width:1.0;"/><text fill="#000000" font-family="sans-serif" font-size="14" lengthAdjust="spacing" textLength="378" x="267.5" y="244.1426">findUserByFingerprint(template: FingerprintTemplate) : User</text></g><!--link FingerprintSensor to FingerprintTemplate--><g id="link_FingerprintSensor_FingerprintTemplate"><path codeLine="29" d="M162.47,421.37 C178.67,450.53 199.617,488.2746 217.077,519.7146 " fill="none" id="FingerprintSensor-to-FingerprintTemplate" style="stroke:#181818;stroke-width:1.0;"/><polygon fill="#181818" points="219.99,524.96,219.1174,515.1499,217.5625,520.5888,212.1235,519.0339,219.99,524.96" style="stroke:#181818;stroke-width:1.0;"/><text fill="#000000" font-family="sans-serif" font-size="13" lengthAdjust="spacing" textLength="47" x="202.5" y="491.4951">&#1089;&#1086;&#1079;&#1076;&#1072;&#1077;&#1090;</text></g><!--link User to FingerprintTemplate--><g id="link_User_FingerprintTemplate"><path codeLine="30" d="M381.43,447.04 C351.62,472.46 321.916,497.7875 294.866,520.8475 " fill="none" id="User-to-FingerprintTemplate" style="stroke:#181818;stroke-width:1.0;"/><polygon fill="#181818" points="290.3,524.74,299.744,521.9453,294.105,521.4962,294.554,515.8572,290.3,524.74" style="stroke:#181818;stroke-width:1.0;"/><text fill="#000000" font-family="sans-serif" font-size="13" lengthAdjust="spacing" textLength="40" x="346.5" y="491.4951">&#1093;&#1088;&#1072;&#1085;&#1080;&#1090;</text></g><!--link AuthenticationManager to FingerprintDatabase--><g id="link_AuthenticationManager_FingerprintDatabase"><path codeLine="31" d="M449.5,90.03 C449.5,113.86 449.5,137.9 449.5,161.76 " fill="none" id="AuthenticationManager-to-FingerprintDatabase" style="stroke:#181818;stroke-width:1.0;"/><polygon fill="#181818" points="449.5,167.76,453.5,158.76,449.5,162.76,445.5,158.76,449.5,167.76" style="stroke:#181818;stroke-width:1.0;"/><text fill="#000000" font-family="sans-serif" font-size="13" lengthAdjust="spacing" textLength="67" x="450.5" y="134.4951">&#1080;&#1089;&#1087;&#1086;&#1083;&#1100;&#1079;&#1091;&#1077;&#1090;</text></g><!--reverse link FingerprintDatabase to User--><g id="link_FingerprintDatabase_User"><path codeLine="32" d="M449.5,263.44 C449.5,286.45 449.5,303.56 449.5,328.9 " fill="none" id="FingerprintDatabase-backto-User" style="stroke:#181818;stroke-width:1.0;"/><polygon fill="none" points="449.5,251.44,445.5,257.44,449.5,263.44,453.5,257.44,449.5,251.44" style="stroke:#181818;stroke-width:1.0;"/><text fill="#000000" font-family="sans-serif" font-size="13" lengthAdjust="spacing" textLength="57" x="450.5" y="295.4951">&#1089;&#1086;&#1076;&#1077;&#1088;&#1078;&#1080;&#1090;</text><text fill="#000000" font-family="sans-serif" font-size="13" lengthAdjust="spacing" textLength="7" x="441.9641" y="272.5923">1</text><text fill="#000000" font-family="sans-serif" font-size="13" lengthAdjust="spacing" textLength="5" x="444.1953" y="318.2121">*</text></g><!--SRC=[bLDDIyD04BtdLmozM2qvU0rIKCIJdgedyR1DrXXeDoMx5Oe8_K0zA7ZnXyJQsjhM-1Tc_v6pIR_G83M1P7VslJTlPsUt05zmZ36-wJPzP_J6W1ESOgmxkeC9zW47EDNFGBCnnReun9b-17mbNaBueUuITwmVQDGXQe8VG59zGYPc0KUaTK__CU0N9a3HBWs6H8XfDD4z4uyfnnF1XjYtBBV6f8IZGFWyQaI1K1KkP1Z1ZGNqbAJBnDfYSHkSTV0fhpTgJ77hDaTfiJZNiZscc0FLbkBd5vcw6zORBE95DKVcQfkKrJ2iSIPMQSuaNtYq0yy1mcSJmUeaKr6au6UHovLallVKYi_Ll_QvtrHNNAZ0PIe8nGaJp5ywAaNS3wJYaN5PRDB7IGqRqUimy38GMobiK073pwto8LMrokIooYQTTE2O3EmPKZdBHbNmpFIWjRxDZTF-RX3RBkSUjWDfBu-ebMFJi5PwL7-WxzBhy4bjtRNog_g3lDon0-QQc4ut7OqZtKiJva4BkmK8RHiAEuMiT-Os1yHeutkQ_1i0]--></g></svg>